%TF.GenerationSoftware,KiCad,Pcbnew,9.0.9-9.0.9~ubuntu22.04.1*%
%TF.CreationDate,2026-08-30T16:40:41+00:00*%
%TF.ProjectId,anticipy_r1,616e7469-6369-4707-995f-72312e6b6963,rev?*%
%TF.SameCoordinates,Original*%
%TF.FileFunction,Legend,Bot*%
%TF.FilePolarity,Positive*%
%FSLAX46Y46*%
G04 Gerber Fmt 4.6, Leading zero omitted, Abs format (unit mm)*
G04 Created by KiCad (PCBNEW 9.0.9-9.0.9~ubuntu22.04.1) date 2026-08-30 16:40:41*
%MOMM*%
%LPD*%
G01*
G04 APERTURE LIST*
G04 Aperture macros list*
%AMRoundRect*
0 Rectangle with rounded corners*
0 $1 Rounding radius*
0 $2 $3 $4 $5 $6 $7 $8 $9 X,Y pos of 4 corners*
0 Add a 4 corners polygon primitive as box body*
4,1,4,$2,$3,$4,$5,$6,$7,$8,$9,$2,$3,0*
0 Add four circle primitives for the rounded corners*
1,1,$1+$1,$2,$3*
1,1,$1+$1,$4,$5*
1,1,$1+$1,$6,$7*
1,1,$1+$1,$8,$9*
0 Add four rect primitives between the rounded corners*
20,1,$1+$1,$2,$3,$4,$5,0*
20,1,$1+$1,$4,$5,$6,$7,0*
20,1,$1+$1,$6,$7,$8,$9,0*
20,1,$1+$1,$8,$9,$2,$3,0*%
G04 Aperture macros list end*
%ADD10C,0.120000*%
%ADD11C,0.500000*%
%ADD12C,0.700000*%
%ADD13C,0.650000*%
%ADD14O,2.100000X1.000000*%
%ADD15O,1.800000X1.000000*%
%ADD16RoundRect,0.135000X-0.135000X-0.185000X0.135000X-0.185000X0.135000X0.185000X-0.135000X0.185000X0*%
%ADD17RoundRect,0.250000X-0.250000X-0.475000X0.250000X-0.475000X0.250000X0.475000X-0.250000X0.475000X0*%
%ADD18RoundRect,0.112500X-0.187500X-0.112500X0.187500X-0.112500X0.187500X0.112500X-0.187500X0.112500X0*%
%ADD19RoundRect,0.162500X-0.650000X-0.162500X0.650000X-0.162500X0.650000X0.162500X-0.650000X0.162500X0*%
%ADD20RoundRect,0.140000X-0.140000X-0.170000X0.140000X-0.170000X0.140000X0.170000X-0.140000X0.170000X0*%
%ADD21RoundRect,0.140000X0.170000X-0.140000X0.170000X0.140000X-0.170000X0.140000X-0.170000X-0.140000X0*%
%ADD22RoundRect,0.050000X-0.112500X-0.050000X0.112500X-0.050000X0.112500X0.050000X-0.112500X0.050000X0*%
%ADD23RoundRect,0.050000X-0.050000X-0.112500X0.050000X-0.112500X0.050000X0.112500X-0.050000X0.112500X0*%
%ADD24RoundRect,0.150000X0.150000X0.625000X-0.150000X0.625000X-0.150000X-0.625000X0.150000X-0.625000X0*%
%ADD25RoundRect,0.250000X0.350000X0.650000X-0.350000X0.650000X-0.350000X-0.650000X0.350000X-0.650000X0*%
%ADD26C,0.990600*%
%ADD27C,0.787400*%
%ADD28RoundRect,0.150000X-0.587500X-0.150000X0.587500X-0.150000X0.587500X0.150000X-0.587500X0.150000X0*%
%ADD29RoundRect,0.150000X-0.625000X0.150000X-0.625000X-0.150000X0.625000X-0.150000X0.625000X0.150000X0*%
%ADD30RoundRect,0.250000X-0.650000X0.350000X-0.650000X-0.350000X0.650000X-0.350000X0.650000X0.350000X0*%
G04 APERTURE END LIST*
D10*
%TO.C,R14*%
X4346359Y-14120000D02*
X4653641Y-14120000D01*
X4346359Y-14880000D02*
X4653641Y-14880000D01*
%TO.C,C6*%
X32738748Y-2765000D02*
X33261252Y-2765000D01*
X32738748Y-4235000D02*
X33261252Y-4235000D01*
%TO.C,D3*%
X18890000Y-12650000D02*
X21550000Y-12650000D01*
X18890000Y-14350000D02*
X18890000Y-12650000D01*
X18890000Y-14350000D02*
X21550000Y-14350000D01*
%TO.C,U5*%
X25740000Y-6240000D02*
X25740000Y-6510000D01*
X25740000Y-11490000D02*
X25740000Y-11760000D01*
X25740000Y-11760000D02*
X31260000Y-11760000D01*
X31260000Y-6240000D02*
X25740000Y-6240000D01*
X31260000Y-6510000D02*
X31260000Y-6240000D01*
X31260000Y-11760000D02*
X31260000Y-11490000D01*
X25250000Y-11970000D02*
X24570000Y-11970000D01*
X24910000Y-11500000D01*
X25250000Y-11970000D01*
G36*
X25250000Y-11970000D02*
G01*
X24570000Y-11970000D01*
X24910000Y-11500000D01*
X25250000Y-11970000D01*
G37*
%TO.C,R12*%
X15446359Y-6420000D02*
X15753641Y-6420000D01*
X15446359Y-7180000D02*
X15753641Y-7180000D01*
%TO.C,R15*%
X4346359Y-15920000D02*
X4653641Y-15920000D01*
X4346359Y-16680000D02*
X4653641Y-16680000D01*
%TO.C,C9*%
X19592164Y-15240000D02*
X19807836Y-15240000D01*
X19592164Y-15960000D02*
X19807836Y-15960000D01*
%TO.C,C8*%
X26238748Y-12765000D02*
X26761252Y-12765000D01*
X26238748Y-14235000D02*
X26761252Y-14235000D01*
%TO.C,C11*%
X29092164Y-4140000D02*
X29307836Y-4140000D01*
X29092164Y-4860000D02*
X29307836Y-4860000D01*
%TO.C,C7*%
X32892164Y-13640000D02*
X33107836Y-13640000D01*
X32892164Y-14360000D02*
X33107836Y-14360000D01*
%TO.C,C13*%
X6640000Y-15607836D02*
X6640000Y-15392164D01*
X7360000Y-15607836D02*
X7360000Y-15392164D01*
%TO.C,U6*%
X21090000Y-7890000D02*
X21090000Y-8115000D01*
X21340000Y-10110000D02*
X21490000Y-10110000D01*
X21490000Y-7890000D02*
X21090000Y-7890000D01*
X22910000Y-10110000D02*
X23310000Y-10110000D01*
X23310000Y-7890000D02*
X22910000Y-7890000D01*
X23310000Y-8115000D02*
X23310000Y-7890000D01*
X23310000Y-10110000D02*
X23310000Y-9885000D01*
X21100000Y-10080000D02*
X20820000Y-9800000D01*
X21100000Y-9800000D01*
X21100000Y-10080000D01*
G36*
X21100000Y-10080000D02*
G01*
X20820000Y-9800000D01*
X21100000Y-9800000D01*
X21100000Y-10080000D01*
G37*
%TO.C,C10*%
X23292164Y-15240000D02*
X23507836Y-15240000D01*
X23292164Y-15960000D02*
X23507836Y-15960000D01*
%TO.C,J3*%
X9890000Y-13115000D02*
X10940000Y-13115000D01*
X9890000Y-15615000D02*
X9890000Y-13115000D01*
X12940000Y-17585000D02*
X11060000Y-17585000D01*
X13060000Y-13115000D02*
X13060000Y-12125000D01*
X14110000Y-13115000D02*
X13060000Y-13115000D01*
X14110000Y-15615000D02*
X14110000Y-13115000D01*
%TO.C,J4*%
X34030000Y-9870000D02*
X34030000Y-10505000D01*
X34030000Y-10505000D02*
X34665000Y-10505000D01*
%TO.C,C12*%
X23492164Y-5040000D02*
X23707836Y-5040000D01*
X23492164Y-5760000D02*
X23707836Y-5760000D01*
%TO.C,Q1*%
X16740000Y-7940000D02*
X16740000Y-7990000D01*
X16740000Y-9110000D02*
X16740000Y-9890000D01*
X16740000Y-11010000D02*
X16740000Y-11060000D01*
X16740000Y-11060000D02*
X18260000Y-11060000D01*
X18260000Y-7940000D02*
X16740000Y-7940000D01*
X18260000Y-8940000D02*
X18260000Y-7940000D01*
X18260000Y-11060000D02*
X18260000Y-10060000D01*
X16200000Y-9880000D02*
X15960000Y-9550000D01*
X16440000Y-9550000D01*
X16200000Y-9880000D01*
G36*
X16200000Y-9880000D02*
G01*
X15960000Y-9550000D01*
X16440000Y-9550000D01*
X16200000Y-9880000D01*
G37*
%TO.C,R13*%
X16346359Y-13120000D02*
X16653641Y-13120000D01*
X16346359Y-13880000D02*
X16653641Y-13880000D01*
%TO.C,J2*%
X9515000Y-4890000D02*
X9515000Y-5940000D01*
X9515000Y-5940000D02*
X8525000Y-5940000D01*
X9515000Y-10110000D02*
X9515000Y-9060000D01*
X12015000Y-4890000D02*
X9515000Y-4890000D01*
X12015000Y-10110000D02*
X9515000Y-10110000D01*
X13985000Y-6060000D02*
X13985000Y-8940000D01*
%TO.C,R8*%
X21346359Y-6120000D02*
X21653641Y-6120000D01*
X21346359Y-6880000D02*
X21653641Y-6880000D01*
%TO.C,R9*%
X21346359Y-11120000D02*
X21653641Y-11120000D01*
X21346359Y-11880000D02*
X21653641Y-11880000D01*
%TD*%
%LPC*%
D11*
%TO.C,MK1*%
X19700000Y-16370000D03*
%TD*%
%TO.C,MK2*%
X23400000Y-16370000D03*
%TD*%
D12*
%TO.C,SW1*%
X15100000Y-14500000D03*
X15100000Y-16300000D03*
%TD*%
D13*
%TO.C,J1*%
X2095000Y-11890000D03*
X2095000Y-6110000D03*
D14*
X1595000Y-13320000D03*
D15*
X5775000Y-13320000D03*
D14*
X1595000Y-4680000D03*
D15*
X5775000Y-4680000D03*
%TD*%
D16*
%TO.C,R14*%
X3990000Y-14500000D03*
X5010000Y-14500000D03*
%TD*%
D17*
%TO.C,C6*%
X32050000Y-3500000D03*
X33950000Y-3500000D03*
%TD*%
D18*
%TO.C,D3*%
X19450000Y-13500000D03*
X21550000Y-13500000D03*
%TD*%
D19*
%TO.C,U5*%
X24912500Y-10905000D03*
X24912500Y-9635000D03*
X24912500Y-8365000D03*
X24912500Y-7095000D03*
X32087500Y-7095000D03*
X32087500Y-8365000D03*
X32087500Y-9635000D03*
X32087500Y-10905000D03*
%TD*%
D16*
%TO.C,R12*%
X15090000Y-6800000D03*
X16110000Y-6800000D03*
%TD*%
%TO.C,R15*%
X3990000Y-16300000D03*
X5010000Y-16300000D03*
%TD*%
D20*
%TO.C,C9*%
X19220000Y-15600000D03*
X20180000Y-15600000D03*
%TD*%
D17*
%TO.C,C8*%
X25550000Y-13500000D03*
X27450000Y-13500000D03*
%TD*%
D20*
%TO.C,C11*%
X28720000Y-4500000D03*
X29680000Y-4500000D03*
%TD*%
%TO.C,C7*%
X32520000Y-14000000D03*
X33480000Y-14000000D03*
%TD*%
D21*
%TO.C,C13*%
X7000000Y-15980000D03*
X7000000Y-15020000D03*
%TD*%
D22*
%TO.C,U6*%
X21437500Y-9525000D03*
X21437500Y-9175000D03*
X21437500Y-8825000D03*
X21437500Y-8475000D03*
D23*
X21850000Y-8237500D03*
X22200000Y-8237500D03*
X22550000Y-8237500D03*
D22*
X22962500Y-8475000D03*
X22962500Y-8825000D03*
X22962500Y-9175000D03*
X22962500Y-9525000D03*
D23*
X22550000Y-9762500D03*
X22200000Y-9762500D03*
X21850000Y-9762500D03*
%TD*%
D20*
%TO.C,C10*%
X22920000Y-15600000D03*
X23880000Y-15600000D03*
%TD*%
D24*
%TO.C,J3*%
X12500000Y-12900000D03*
X11500000Y-12900000D03*
D25*
X13800000Y-16775000D03*
X10200000Y-16775000D03*
%TD*%
D26*
%TO.C,J4*%
X35300000Y-11140000D03*
X34284000Y-6060000D03*
X36316000Y-6060000D03*
D27*
X34665000Y-9870000D03*
X35935000Y-9870000D03*
X34665000Y-8600000D03*
X35935000Y-8600000D03*
X34665000Y-7330000D03*
X35935000Y-7330000D03*
%TD*%
D20*
%TO.C,C12*%
X23120000Y-5400000D03*
X24080000Y-5400000D03*
%TD*%
D28*
%TO.C,Q1*%
X16562500Y-10450000D03*
X16562500Y-8550000D03*
X18437500Y-9500000D03*
%TD*%
D16*
%TO.C,R13*%
X15990000Y-13500000D03*
X17010000Y-13500000D03*
%TD*%
D29*
%TO.C,J2*%
X9300000Y-6500000D03*
X9300000Y-7500000D03*
X9300000Y-8500000D03*
D30*
X13175000Y-5200000D03*
X13175000Y-9800000D03*
%TD*%
D16*
%TO.C,R8*%
X20990000Y-6500000D03*
X22010000Y-6500000D03*
%TD*%
%TO.C,R9*%
X20990000Y-11500000D03*
X22010000Y-11500000D03*
%TD*%
%LPD*%
M02*
