%TF.GenerationSoftware,KiCad,Pcbnew,9.0.9-9.0.9~ubuntu22.04.1*%
%TF.CreationDate,2026-08-30T16:40:41+00:00*%
%TF.ProjectId,anticipy_r1,616e7469-6369-4707-995f-72312e6b6963,rev?*%
%TF.SameCoordinates,Original*%
%TF.FileFunction,Copper,L2,Inr*%
%TF.FilePolarity,Positive*%
%FSLAX46Y46*%
G04 Gerber Fmt 4.6, Leading zero omitted, Abs format (unit mm)*
G04 Created by KiCad (PCBNEW 9.0.9-9.0.9~ubuntu22.04.1) date 2026-08-30 16:40:41*
%MOMM*%
%LPD*%
G01*
G04 APERTURE LIST*
%TA.AperFunction,HeatsinkPad*%
%ADD10O,2.100000X1.000000*%
%TD*%
%TA.AperFunction,HeatsinkPad*%
%ADD11O,1.800000X1.000000*%
%TD*%
%TA.AperFunction,ViaPad*%
%ADD12C,0.500000*%
%TD*%
%TA.AperFunction,Conductor*%
%ADD13C,0.150000*%
%TD*%
G04 APERTURE END LIST*
D10*
%TO.N,GND*%
%TO.C,J1*%
X1595000Y-13320000D03*
D11*
X5775000Y-13320000D03*
D10*
X1595000Y-4680000D03*
D11*
X5775000Y-4680000D03*
%TD*%
D12*
%TO.N,GND*%
X20000000Y-6000000D03*
X19680077Y-8686914D03*
X35000000Y-15500000D03*
X9000000Y-9500000D03*
X22880000Y-16930000D03*
X25265640Y-16399999D03*
X14963059Y-8225549D03*
X27465585Y-12842856D03*
X3000000Y-13000000D03*
X23874087Y-5349050D03*
X33000000Y-6000000D03*
X11000000Y-15500000D03*
X11011957Y-7209671D03*
X12000000Y-2500000D03*
X22448031Y-9595488D03*
X23757522Y-7814378D03*
X19231797Y-10391857D03*
X18000000Y-15500000D03*
X28000000Y-9500000D03*
X18196491Y-16485267D03*
X3000000Y-2500000D03*
%TO.N,VBAT_SENSE*%
X31332100Y-2529700D03*
%TO.N,ACC_INT1*%
X29219300Y-5569200D03*
X25259900Y-5844300D03*
%TO.N,I2C_SCL*%
X25163900Y-5103500D03*
%TO.N,I2C_SDA*%
X27946000Y-7159200D03*
%TO.N,+3V3*%
X21585200Y-7262400D03*
X27833400Y-4009700D03*
X19606600Y-14862700D03*
X23400000Y-14205100D03*
X30495800Y-9836300D03*
X31914100Y-14634700D03*
X21616100Y-14931700D03*
X21998000Y-5298900D03*
X22705700Y-11615700D03*
X25396500Y-11807700D03*
X33000000Y-3112500D03*
X19169700Y-3301100D03*
X18512000Y-4331700D03*
X23015600Y-7884600D03*
%TO.N,USB_DP*%
X27688000Y-14806000D03*
X14855400Y-9212500D03*
%TO.N,FLASH_SCK*%
X30065600Y-8504800D03*
%TO.N,FLASH_CS*%
X26692100Y-14790500D03*
%TO.N,FLASH_MISO*%
X28951200Y-11863400D03*
%TO.N,FLASH_MOSI*%
X30420300Y-15008800D03*
%TO.N,nRESET*%
X29977100Y-11099700D03*
%TO.N,LED_RED*%
X17177500Y-9644200D03*
X30887100Y-14395700D03*
X29028800Y-10998000D03*
%TO.N,LED_BLUE*%
X17908900Y-11756000D03*
X30632400Y-11862500D03*
%TO.N,HAPTIC_EN*%
X31207100Y-13748400D03*
%TO.N,nPGOOD*%
X33637000Y-15067700D03*
X19055000Y-7345000D03*
%TO.N,PDM_DATA*%
X23844600Y-13289800D03*
X25985200Y-16920000D03*
%TO.N,SWDIO*%
X35865100Y-14887500D03*
%TO.N,SWDCLK*%
X36667000Y-15202800D03*
%TO.N,BTN*%
X18050500Y-14116700D03*
X33073000Y-11862500D03*
%TO.N,USB_DP_CON*%
X8199999Y-9000000D03*
X3200000Y-8250000D03*
%TO.N,USB_DN_CON*%
X2282200Y-9612500D03*
X6236000Y-10295000D03*
%TO.N,USB_CC2*%
X5182400Y-7038800D03*
X6926700Y-10887700D03*
%TO.N,BAT_TS*%
X10648700Y-5326300D03*
%TO.N,VBAT*%
X19000000Y-8159100D03*
X12054000Y-6126600D03*
%TO.N,VSYS*%
X10350400Y-13150500D03*
X19297500Y-5258300D03*
X13403600Y-8001300D03*
X17041600Y-5319100D03*
%TD*%
D13*
%TO.N,ACC_INT1*%
X25535000Y-5569200D02*
X25259900Y-5844300D01*
X29219300Y-5569200D02*
X25535000Y-5569200D01*
%TO.N,USB_DP*%
X14855400Y-9369900D02*
X14855400Y-9212500D01*
X18321600Y-12836100D02*
X14855400Y-9369900D01*
X27688000Y-14806000D02*
X25718100Y-12836100D01*
X25718100Y-12836100D02*
X18321600Y-12836100D01*
%TO.N,LED_RED*%
X18531300Y-10998000D02*
X17177500Y-9644200D01*
X29028800Y-10998000D02*
X18531300Y-10998000D01*
%TO.N,LED_BLUE*%
X30177800Y-12317100D02*
X30632400Y-11862500D01*
X17908900Y-11756000D02*
X18470000Y-12317100D01*
X18470000Y-12317100D02*
X30177800Y-12317100D01*
%TO.N,nPGOOD*%
X33637000Y-14117900D02*
X30063400Y-10544300D01*
X22254300Y-10544300D02*
X19055000Y-7345000D01*
X33637000Y-15067700D02*
X33637000Y-14117900D01*
X30063400Y-10544300D02*
X22254300Y-10544300D01*
%TO.N,BTN*%
X34098300Y-15303600D02*
X33827300Y-15574600D01*
X34098300Y-12887800D02*
X34098300Y-15303600D01*
X33827300Y-15574600D02*
X19508400Y-15574600D01*
X33073000Y-11862500D02*
X34098300Y-12887800D01*
X19508400Y-15574600D02*
X18050500Y-14116700D01*
%TO.N,USB_DP_CON*%
X3200000Y-8250000D02*
X8199999Y-9000000D01*
%TO.N,USB_DN_CON*%
X5553500Y-9612500D02*
X2282200Y-9612500D01*
X6236000Y-10295000D02*
X5553500Y-9612500D01*
%TO.N,VBAT*%
X19000000Y-8159100D02*
X16967500Y-6126600D01*
X16967500Y-6126600D02*
X12054000Y-6126600D01*
%TO.N,VSYS*%
X19297500Y-5258300D02*
X19236700Y-5319100D01*
X19236700Y-5319100D02*
X17041600Y-5319100D01*
%TD*%
%TA.AperFunction,Conductor*%
%TO.N,GND*%
G36*
X31140970Y-11940775D02*
G01*
X33389826Y-14189631D01*
X33411500Y-14241957D01*
X33411500Y-14696155D01*
X33389826Y-14748481D01*
X33316520Y-14821786D01*
X33263795Y-14913108D01*
X33263791Y-14913117D01*
X33236500Y-15014970D01*
X33236500Y-15120429D01*
X33263791Y-15222282D01*
X33263796Y-15222293D01*
X33272922Y-15238099D01*
X33280316Y-15294251D01*
X33245838Y-15339185D01*
X33208837Y-15349100D01*
X30814457Y-15349100D01*
X30762131Y-15327426D01*
X30740457Y-15275100D01*
X30750370Y-15238101D01*
X30793507Y-15163387D01*
X30820799Y-15061529D01*
X30820800Y-15061529D01*
X30820800Y-14956071D01*
X30820799Y-14956070D01*
X30802923Y-14889353D01*
X30810315Y-14833200D01*
X30855248Y-14798722D01*
X30874401Y-14796200D01*
X30939829Y-14796200D01*
X30939829Y-14796199D01*
X31041687Y-14768907D01*
X31133013Y-14716180D01*
X31207580Y-14641613D01*
X31242015Y-14581970D01*
X31513600Y-14581970D01*
X31513600Y-14687429D01*
X31540891Y-14789282D01*
X31540895Y-14789291D01*
X31567153Y-14834771D01*
X31593620Y-14880613D01*
X31668187Y-14955180D01*
X31759513Y-15007907D01*
X31861370Y-15035199D01*
X31861371Y-15035200D01*
X31861373Y-15035200D01*
X31966829Y-15035200D01*
X31966829Y-15035199D01*
X32068687Y-15007907D01*
X32160013Y-14955180D01*
X32234580Y-14880613D01*
X32287307Y-14789287D01*
X32314599Y-14687429D01*
X32314600Y-14687429D01*
X32314600Y-14581971D01*
X32314599Y-14581970D01*
X32313818Y-14579057D01*
X32287307Y-14480113D01*
X32234580Y-14388787D01*
X32160013Y-14314220D01*
X32085651Y-14271287D01*
X32068691Y-14261495D01*
X32068682Y-14261491D01*
X31966829Y-14234200D01*
X31966827Y-14234200D01*
X31861373Y-14234200D01*
X31861371Y-14234200D01*
X31759517Y-14261491D01*
X31759508Y-14261495D01*
X31668186Y-14314220D01*
X31593620Y-14388786D01*
X31540895Y-14480108D01*
X31540891Y-14480117D01*
X31513600Y-14581970D01*
X31242015Y-14581970D01*
X31260307Y-14550287D01*
X31287599Y-14448429D01*
X31287600Y-14448429D01*
X31287600Y-14342971D01*
X31287599Y-14342970D01*
X31260308Y-14241117D01*
X31260307Y-14241113D01*
X31260304Y-14241108D01*
X31258449Y-14236628D01*
X31261161Y-14235504D01*
X31254950Y-14188555D01*
X31289399Y-14143599D01*
X31307283Y-14136184D01*
X31361687Y-14121607D01*
X31453013Y-14068880D01*
X31527580Y-13994313D01*
X31580307Y-13902987D01*
X31607599Y-13801129D01*
X31607600Y-13801129D01*
X31607600Y-13695671D01*
X31607599Y-13695670D01*
X31598847Y-13663008D01*
X31580307Y-13593813D01*
X31527580Y-13502487D01*
X31453013Y-13427920D01*
X31361691Y-13375195D01*
X31361682Y-13375191D01*
X31259829Y-13347900D01*
X31259827Y-13347900D01*
X31154373Y-13347900D01*
X31154371Y-13347900D01*
X31052517Y-13375191D01*
X31052508Y-13375195D01*
X30961186Y-13427920D01*
X30886620Y-13502486D01*
X30833895Y-13593808D01*
X30833891Y-13593817D01*
X30806600Y-13695670D01*
X30806600Y-13801129D01*
X30833891Y-13902982D01*
X30835751Y-13907472D01*
X30833046Y-13908592D01*
X30839240Y-13955579D01*
X30804769Y-14000518D01*
X30786912Y-14007916D01*
X30732515Y-14022492D01*
X30732508Y-14022495D01*
X30641186Y-14075220D01*
X30566620Y-14149786D01*
X30513895Y-14241108D01*
X30513891Y-14241117D01*
X30486600Y-14342970D01*
X30486600Y-14448429D01*
X30504477Y-14515147D01*
X30497085Y-14571300D01*
X30452152Y-14605778D01*
X30432999Y-14608300D01*
X30367571Y-14608300D01*
X30265717Y-14635591D01*
X30265708Y-14635595D01*
X30174386Y-14688320D01*
X30099820Y-14762886D01*
X30047095Y-14854208D01*
X30047091Y-14854217D01*
X30019800Y-14956070D01*
X30019800Y-15061529D01*
X30047091Y-15163382D01*
X30047092Y-15163384D01*
X30047093Y-15163387D01*
X30090229Y-15238101D01*
X30097622Y-15294252D01*
X30063143Y-15339186D01*
X30026143Y-15349100D01*
X27770623Y-15349100D01*
X27718297Y-15327426D01*
X27696623Y-15275100D01*
X27718297Y-15222774D01*
X27751470Y-15203622D01*
X27827759Y-15183180D01*
X27842587Y-15179207D01*
X27933913Y-15126480D01*
X28008480Y-15051913D01*
X28061207Y-14960587D01*
X28088499Y-14858729D01*
X28088500Y-14858729D01*
X28088500Y-14753271D01*
X28088499Y-14753270D01*
X28085313Y-14741381D01*
X28061207Y-14651413D01*
X28008480Y-14560087D01*
X27933913Y-14485520D01*
X27874145Y-14451013D01*
X27842591Y-14432795D01*
X27842582Y-14432791D01*
X27740729Y-14405500D01*
X27740727Y-14405500D01*
X27637058Y-14405500D01*
X27584732Y-14383826D01*
X25919678Y-12718773D01*
X25919678Y-12718772D01*
X25869832Y-12668926D01*
X25848158Y-12616600D01*
X25849336Y-12613757D01*
X25854506Y-12601273D01*
X25869832Y-12564274D01*
X25922158Y-12542600D01*
X30124325Y-12542600D01*
X30124333Y-12542601D01*
X30132945Y-12542601D01*
X30222654Y-12542601D01*
X30222655Y-12542601D01*
X30281260Y-12518325D01*
X30305536Y-12508270D01*
X30368970Y-12444836D01*
X30368970Y-12444835D01*
X30379375Y-12434430D01*
X30379377Y-12434427D01*
X30529130Y-12284674D01*
X30581456Y-12263000D01*
X30685129Y-12263000D01*
X30685129Y-12262999D01*
X30786987Y-12235707D01*
X30878313Y-12182980D01*
X30952880Y-12108413D01*
X31005607Y-12017087D01*
X31017166Y-11973947D01*
X31051644Y-11929015D01*
X31107796Y-11921622D01*
X31140970Y-11940775D01*
G37*
%TD.AperFunction*%
%TA.AperFunction,Conductor*%
G36*
X41478326Y-122174D02*
G01*
X41500000Y-174500D01*
X41500000Y-17825500D01*
X41478326Y-17877826D01*
X41426000Y-17899500D01*
X3002083Y-17899500D01*
X2997934Y-17899384D01*
X2679500Y-17881500D01*
X2671254Y-17880570D01*
X2358904Y-17827500D01*
X2350813Y-17825654D01*
X2046345Y-17737938D01*
X2038513Y-17735197D01*
X1745791Y-17613948D01*
X1738314Y-17610347D01*
X1461012Y-17457087D01*
X1453985Y-17452672D01*
X1195586Y-17269328D01*
X1189099Y-17264155D01*
X952843Y-17053025D01*
X946974Y-17047156D01*
X735844Y-16810900D01*
X730671Y-16804413D01*
X713717Y-16780519D01*
X547325Y-16546011D01*
X542912Y-16538987D01*
X485934Y-16435894D01*
X389650Y-16261682D01*
X386051Y-16254208D01*
X381993Y-16244411D01*
X372271Y-16220940D01*
X14499500Y-16220940D01*
X14499500Y-16379059D01*
X14540421Y-16531779D01*
X14540422Y-16531781D01*
X14540423Y-16531784D01*
X14619480Y-16668716D01*
X14731284Y-16780520D01*
X14868216Y-16859577D01*
X15020940Y-16900499D01*
X15020941Y-16900500D01*
X15020943Y-16900500D01*
X15179059Y-16900500D01*
X15179059Y-16900499D01*
X15331784Y-16859577D01*
X15468716Y-16780520D01*
X15580520Y-16668716D01*
X15659577Y-16531784D01*
X15700499Y-16379059D01*
X15700500Y-16379059D01*
X15700500Y-16220941D01*
X15700499Y-16220940D01*
X15659578Y-16068220D01*
X15659577Y-16068216D01*
X15580520Y-15931284D01*
X15468716Y-15819480D01*
X15331784Y-15740423D01*
X15331781Y-15740422D01*
X15331779Y-15740421D01*
X15179059Y-15699500D01*
X15179057Y-15699500D01*
X15020943Y-15699500D01*
X15020941Y-15699500D01*
X14868220Y-15740421D01*
X14868214Y-15740424D01*
X14731283Y-15819480D01*
X14619480Y-15931283D01*
X14540424Y-16068214D01*
X14540421Y-16068220D01*
X14499500Y-16220940D01*
X372271Y-16220940D01*
X264799Y-15961479D01*
X262061Y-15953654D01*
X257605Y-15938186D01*
X174342Y-15649175D01*
X172501Y-15641107D01*
X119428Y-15328739D01*
X118499Y-15320499D01*
X118112Y-15313613D01*
X100616Y-15002065D01*
X100500Y-14997916D01*
X100500Y-14420940D01*
X14499500Y-14420940D01*
X14499500Y-14579059D01*
X14540421Y-14731779D01*
X14540422Y-14731781D01*
X14540423Y-14731784D01*
X14619480Y-14868716D01*
X14731284Y-14980520D01*
X14868216Y-15059577D01*
X15020940Y-15100499D01*
X15020941Y-15100500D01*
X15020943Y-15100500D01*
X15179059Y-15100500D01*
X15179059Y-15100499D01*
X15331784Y-15059577D01*
X15468716Y-14980520D01*
X15580520Y-14868716D01*
X15659577Y-14731784D01*
X15700499Y-14579059D01*
X15700500Y-14579059D01*
X15700500Y-14420941D01*
X15700499Y-14420940D01*
X15699522Y-14417295D01*
X15659577Y-14268216D01*
X15580520Y-14131284D01*
X15468716Y-14019480D01*
X15331784Y-13940423D01*
X15331781Y-13940422D01*
X15331779Y-13940421D01*
X15179059Y-13899500D01*
X15179057Y-13899500D01*
X15020943Y-13899500D01*
X15020941Y-13899500D01*
X14868220Y-13940421D01*
X14868214Y-13940424D01*
X14731283Y-14019480D01*
X14619480Y-14131283D01*
X14540424Y-14268214D01*
X14540421Y-14268220D01*
X14499500Y-14420940D01*
X100500Y-14420940D01*
X100500Y-13097770D01*
X9949900Y-13097770D01*
X9949900Y-13203229D01*
X9977191Y-13305082D01*
X9977192Y-13305085D01*
X9977193Y-13305087D01*
X10029920Y-13396413D01*
X10104487Y-13470980D01*
X10195813Y-13523707D01*
X10297670Y-13550999D01*
X10297671Y-13551000D01*
X10297673Y-13551000D01*
X10403129Y-13551000D01*
X10403129Y-13550999D01*
X10504987Y-13523707D01*
X10596313Y-13470980D01*
X10670880Y-13396413D01*
X10723607Y-13305087D01*
X10750899Y-13203229D01*
X10750900Y-13203229D01*
X10750900Y-13097771D01*
X10750899Y-13097770D01*
X10741207Y-13061600D01*
X10723607Y-12995913D01*
X10670880Y-12904587D01*
X10596313Y-12830020D01*
X10504991Y-12777295D01*
X10504982Y-12777291D01*
X10403129Y-12750000D01*
X10403127Y-12750000D01*
X10297673Y-12750000D01*
X10297671Y-12750000D01*
X10195817Y-12777291D01*
X10195808Y-12777295D01*
X10104486Y-12830020D01*
X10029920Y-12904586D01*
X9977195Y-12995908D01*
X9977191Y-12995917D01*
X9949900Y-13097770D01*
X100500Y-13097770D01*
X100500Y-11814231D01*
X1519500Y-11814231D01*
X1519500Y-11965768D01*
X1558717Y-12112130D01*
X1558721Y-12112139D01*
X1630064Y-12235708D01*
X1634485Y-12243365D01*
X1741635Y-12350515D01*
X1872865Y-12426281D01*
X2019231Y-12465499D01*
X2019232Y-12465500D01*
X2019234Y-12465500D01*
X2170768Y-12465500D01*
X2170768Y-12465499D01*
X2317135Y-12426281D01*
X2448365Y-12350515D01*
X2555515Y-12243365D01*
X2631281Y-12112135D01*
X2670499Y-11965768D01*
X2670500Y-11965768D01*
X2670500Y-11814232D01*
X2670499Y-11814231D01*
X2666932Y-11800920D01*
X2631281Y-11667865D01*
X2555515Y-11536635D01*
X2448365Y-11429485D01*
X2448362Y-11429483D01*
X2317139Y-11353721D01*
X2317130Y-11353717D01*
X2170768Y-11314500D01*
X2170766Y-11314500D01*
X2019234Y-11314500D01*
X2019232Y-11314500D01*
X1872869Y-11353717D01*
X1872860Y-11353721D01*
X1741637Y-11429483D01*
X1634483Y-11536637D01*
X1558721Y-11667860D01*
X1558717Y-11667869D01*
X1519500Y-11814231D01*
X100500Y-11814231D01*
X100500Y-9559770D01*
X1881700Y-9559770D01*
X1881700Y-9665229D01*
X1908991Y-9767082D01*
X1908992Y-9767085D01*
X1908993Y-9767087D01*
X1961720Y-9858413D01*
X2036287Y-9932980D01*
X2127613Y-9985707D01*
X2229470Y-10012999D01*
X2229471Y-10013000D01*
X2229473Y-10013000D01*
X2334929Y-10013000D01*
X2334929Y-10012999D01*
X2436787Y-9985707D01*
X2528113Y-9932980D01*
X2601419Y-9859674D01*
X2653745Y-9838000D01*
X5429443Y-9838000D01*
X5481769Y-9859674D01*
X5813826Y-10191731D01*
X5835500Y-10244057D01*
X5835500Y-10347729D01*
X5862791Y-10449582D01*
X5862795Y-10449591D01*
X5905094Y-10522854D01*
X5915520Y-10540913D01*
X5990087Y-10615480D01*
X6081413Y-10668207D01*
X6183270Y-10695499D01*
X6183271Y-10695500D01*
X6183273Y-10695500D01*
X6288729Y-10695500D01*
X6288729Y-10695499D01*
X6390587Y-10668207D01*
X6451983Y-10632759D01*
X6508135Y-10625366D01*
X6553068Y-10659844D01*
X6560462Y-10715997D01*
X6555249Y-10728585D01*
X6555351Y-10728628D01*
X6553491Y-10733117D01*
X6526200Y-10834970D01*
X6526200Y-10940429D01*
X6553491Y-11042282D01*
X6553495Y-11042291D01*
X6556198Y-11046973D01*
X6606220Y-11133613D01*
X6680787Y-11208180D01*
X6772113Y-11260907D01*
X6873970Y-11288199D01*
X6873971Y-11288200D01*
X6873973Y-11288200D01*
X6979429Y-11288200D01*
X6979429Y-11288199D01*
X7081287Y-11260907D01*
X7172613Y-11208180D01*
X7247180Y-11133613D01*
X7299907Y-11042287D01*
X7327199Y-10940429D01*
X7327200Y-10940429D01*
X7327200Y-10834971D01*
X7327199Y-10834970D01*
X7315544Y-10791474D01*
X7299907Y-10733113D01*
X7247180Y-10641787D01*
X7172613Y-10567220D01*
X7161313Y-10560696D01*
X7081291Y-10514495D01*
X7081282Y-10514491D01*
X6979429Y-10487200D01*
X6979427Y-10487200D01*
X6873973Y-10487200D01*
X6873971Y-10487200D01*
X6772117Y-10514491D01*
X6772108Y-10514495D01*
X6710716Y-10549940D01*
X6654563Y-10557332D01*
X6609630Y-10522854D01*
X6602238Y-10466701D01*
X6607451Y-10454114D01*
X6607349Y-10454072D01*
X6609203Y-10449593D01*
X6609207Y-10449587D01*
X6636499Y-10347729D01*
X6636500Y-10347729D01*
X6636500Y-10242271D01*
X6636499Y-10242270D01*
X6635033Y-10236800D01*
X6609207Y-10140413D01*
X6556480Y-10049087D01*
X6481913Y-9974520D01*
X6464868Y-9964679D01*
X6390591Y-9921795D01*
X6390582Y-9921791D01*
X6288729Y-9894500D01*
X6288727Y-9894500D01*
X6185057Y-9894500D01*
X6132731Y-9872826D01*
X5755078Y-9495173D01*
X5755078Y-9495172D01*
X5681238Y-9421332D01*
X5681236Y-9421330D01*
X5656960Y-9411274D01*
X5656958Y-9411273D01*
X5656958Y-9411272D01*
X5598355Y-9386999D01*
X5508645Y-9386999D01*
X5500033Y-9386999D01*
X5500025Y-9387000D01*
X2653745Y-9387000D01*
X2601419Y-9365326D01*
X2528113Y-9292020D01*
X2436791Y-9239295D01*
X2436782Y-9239291D01*
X2334929Y-9212000D01*
X2334927Y-9212000D01*
X2229473Y-9212000D01*
X2229471Y-9212000D01*
X2127617Y-9239291D01*
X2127608Y-9239295D01*
X2036286Y-9292020D01*
X1961720Y-9366586D01*
X1908995Y-9457908D01*
X1908991Y-9457917D01*
X1881700Y-9559770D01*
X100500Y-9559770D01*
X100500Y-8197270D01*
X2799500Y-8197270D01*
X2799500Y-8302729D01*
X2826791Y-8404582D01*
X2826792Y-8404585D01*
X2826793Y-8404587D01*
X2879520Y-8495913D01*
X2954087Y-8570480D01*
X3045413Y-8623207D01*
X3147270Y-8650499D01*
X3147271Y-8650500D01*
X3147273Y-8650500D01*
X3252729Y-8650500D01*
X3252729Y-8650499D01*
X3354587Y-8623207D01*
X3445913Y-8570480D01*
X3467843Y-8548548D01*
X3520166Y-8526874D01*
X3531137Y-8527692D01*
X7802550Y-9168404D01*
X7851081Y-9197600D01*
X7855658Y-9204585D01*
X7879516Y-9245909D01*
X7879517Y-9245910D01*
X7879519Y-9245913D01*
X7954086Y-9320480D01*
X8045412Y-9373207D01*
X8147269Y-9400499D01*
X8147270Y-9400500D01*
X8147272Y-9400500D01*
X8252728Y-9400500D01*
X8252728Y-9400499D01*
X8354586Y-9373207D01*
X8445912Y-9320480D01*
X8520479Y-9245913D01*
X8573206Y-9154587D01*
X8600498Y-9052729D01*
X8600499Y-9052729D01*
X8600499Y-8947271D01*
X8600498Y-8947270D01*
X8573207Y-8845417D01*
X8573206Y-8845413D01*
X8520479Y-8754087D01*
X8445912Y-8679520D01*
X8354590Y-8626795D01*
X8354581Y-8626791D01*
X8252728Y-8599500D01*
X8252726Y-8599500D01*
X8147272Y-8599500D01*
X8147270Y-8599500D01*
X8045416Y-8626791D01*
X8045407Y-8626795D01*
X7954085Y-8679520D01*
X7932154Y-8701451D01*
X7879828Y-8723124D01*
X7868852Y-8722305D01*
X3597448Y-8081594D01*
X3595990Y-8080717D01*
X3594323Y-8081057D01*
X3582281Y-8072470D01*
X3548916Y-8052398D01*
X3547086Y-8049808D01*
X3545640Y-8047665D01*
X3520480Y-8004087D01*
X3464963Y-7948570D01*
X13003100Y-7948570D01*
X13003100Y-8054029D01*
X13030391Y-8155882D01*
X13030395Y-8155891D01*
X13062690Y-8211827D01*
X13083120Y-8247213D01*
X13157687Y-8321780D01*
X13249013Y-8374507D01*
X13350870Y-8401799D01*
X13350871Y-8401800D01*
X13350873Y-8401800D01*
X13456329Y-8401800D01*
X13456329Y-8401799D01*
X13558187Y-8374507D01*
X13649513Y-8321780D01*
X13724080Y-8247213D01*
X13776807Y-8155887D01*
X13804099Y-8054029D01*
X13804100Y-8054029D01*
X13804100Y-7948571D01*
X13804099Y-7948570D01*
X13801086Y-7937327D01*
X13776807Y-7846713D01*
X13724080Y-7755387D01*
X13649513Y-7680820D01*
X13618473Y-7662899D01*
X13558191Y-7628095D01*
X13558182Y-7628091D01*
X13456329Y-7600800D01*
X13456327Y-7600800D01*
X13350873Y-7600800D01*
X13350871Y-7600800D01*
X13249017Y-7628091D01*
X13249008Y-7628095D01*
X13157686Y-7680820D01*
X13083120Y-7755386D01*
X13030395Y-7846708D01*
X13030391Y-7846717D01*
X13003100Y-7948570D01*
X3464963Y-7948570D01*
X3445913Y-7929520D01*
X3354591Y-7876795D01*
X3354582Y-7876791D01*
X3252729Y-7849500D01*
X3252727Y-7849500D01*
X3147273Y-7849500D01*
X3147271Y-7849500D01*
X3045417Y-7876791D01*
X3045408Y-7876795D01*
X2954086Y-7929520D01*
X2879520Y-8004086D01*
X2826795Y-8095408D01*
X2826791Y-8095417D01*
X2799500Y-8197270D01*
X100500Y-8197270D01*
X100500Y-6986070D01*
X4781900Y-6986070D01*
X4781900Y-7091529D01*
X4809191Y-7193382D01*
X4809195Y-7193391D01*
X4861920Y-7284713D01*
X4936487Y-7359280D01*
X5027813Y-7412007D01*
X5129670Y-7439299D01*
X5129671Y-7439300D01*
X5129673Y-7439300D01*
X5235129Y-7439300D01*
X5235129Y-7439299D01*
X5336987Y-7412007D01*
X5428313Y-7359280D01*
X5502880Y-7284713D01*
X5555607Y-7193387D01*
X5582899Y-7091529D01*
X5582900Y-7091529D01*
X5582900Y-6986071D01*
X5582899Y-6986070D01*
X5555608Y-6884217D01*
X5555607Y-6884213D01*
X5502880Y-6792887D01*
X5428313Y-6718320D01*
X5371467Y-6685500D01*
X5336991Y-6665595D01*
X5336982Y-6665591D01*
X5235129Y-6638300D01*
X5235127Y-6638300D01*
X5129673Y-6638300D01*
X5129671Y-6638300D01*
X5027817Y-6665591D01*
X5027808Y-6665595D01*
X4936486Y-6718320D01*
X4861920Y-6792886D01*
X4809195Y-6884208D01*
X4809191Y-6884217D01*
X4781900Y-6986070D01*
X100500Y-6986070D01*
X100500Y-6034231D01*
X1519500Y-6034231D01*
X1519500Y-6185768D01*
X1558717Y-6332130D01*
X1558718Y-6332133D01*
X1558719Y-6332135D01*
X1634485Y-6463365D01*
X1741635Y-6570515D01*
X1872865Y-6646281D01*
X2019231Y-6685499D01*
X2019232Y-6685500D01*
X2019234Y-6685500D01*
X2170768Y-6685500D01*
X2170768Y-6685499D01*
X2317135Y-6646281D01*
X2448365Y-6570515D01*
X2555515Y-6463365D01*
X2631281Y-6332135D01*
X2670499Y-6185768D01*
X2670500Y-6185768D01*
X2670500Y-6073870D01*
X11653500Y-6073870D01*
X11653500Y-6179329D01*
X11680791Y-6281182D01*
X11680792Y-6281185D01*
X11680793Y-6281187D01*
X11733520Y-6372513D01*
X11808087Y-6447080D01*
X11899413Y-6499807D01*
X12001270Y-6527099D01*
X12001271Y-6527100D01*
X12001273Y-6527100D01*
X12106729Y-6527100D01*
X12106729Y-6527099D01*
X12208587Y-6499807D01*
X12299913Y-6447080D01*
X12373219Y-6373774D01*
X12425545Y-6352100D01*
X16843443Y-6352100D01*
X16895769Y-6373774D01*
X18577826Y-8055831D01*
X18599500Y-8108157D01*
X18599500Y-8211829D01*
X18626791Y-8313682D01*
X18626795Y-8313691D01*
X18661906Y-8374504D01*
X18679520Y-8405013D01*
X18754087Y-8479580D01*
X18845413Y-8532307D01*
X18947270Y-8559599D01*
X18947271Y-8559600D01*
X18947273Y-8559600D01*
X19052729Y-8559600D01*
X19052729Y-8559599D01*
X19154587Y-8532307D01*
X19245913Y-8479580D01*
X19320480Y-8405013D01*
X19373207Y-8313687D01*
X19400499Y-8211829D01*
X19400500Y-8211829D01*
X19400500Y-8188058D01*
X19422174Y-8135732D01*
X19474500Y-8114058D01*
X19526826Y-8135732D01*
X22037268Y-10646174D01*
X22058942Y-10698500D01*
X22037268Y-10750826D01*
X21984942Y-10772500D01*
X18655358Y-10772500D01*
X18603032Y-10750826D01*
X17599674Y-9747468D01*
X17578000Y-9695142D01*
X17578000Y-9591471D01*
X17577999Y-9591470D01*
X17552196Y-9495172D01*
X17550707Y-9489613D01*
X17497980Y-9398287D01*
X17423413Y-9323720D01*
X17368507Y-9292020D01*
X17332091Y-9270995D01*
X17332082Y-9270991D01*
X17230229Y-9243700D01*
X17230227Y-9243700D01*
X17124773Y-9243700D01*
X17124771Y-9243700D01*
X17022917Y-9270991D01*
X17022908Y-9270995D01*
X16931586Y-9323720D01*
X16857020Y-9398286D01*
X16804295Y-9489608D01*
X16804291Y-9489617D01*
X16777000Y-9591470D01*
X16777000Y-9696929D01*
X16804291Y-9798782D01*
X16804295Y-9798791D01*
X16838718Y-9858413D01*
X16857020Y-9890113D01*
X16931587Y-9964680D01*
X17022913Y-10017407D01*
X17124770Y-10044699D01*
X17124771Y-10044700D01*
X17228443Y-10044700D01*
X17280768Y-10066373D01*
X18340129Y-11125735D01*
X18340130Y-11125736D01*
X18403564Y-11189170D01*
X18486445Y-11223500D01*
X22352855Y-11223500D01*
X22405181Y-11245174D01*
X22426855Y-11297500D01*
X22405181Y-11349826D01*
X22385220Y-11369786D01*
X22332495Y-11461108D01*
X22332491Y-11461117D01*
X22305200Y-11562970D01*
X22305200Y-11668429D01*
X22332491Y-11770282D01*
X22332495Y-11770291D01*
X22357866Y-11814234D01*
X22385220Y-11861613D01*
X22459787Y-11936180D01*
X22467746Y-11940775D01*
X22489810Y-11953514D01*
X22524289Y-11998448D01*
X22516896Y-12054600D01*
X22471962Y-12089079D01*
X22452810Y-12091600D01*
X18594057Y-12091600D01*
X18541731Y-12069926D01*
X18331074Y-11859269D01*
X18309400Y-11806943D01*
X18309400Y-11703271D01*
X18309399Y-11703270D01*
X18299913Y-11667869D01*
X18282107Y-11601413D01*
X18229380Y-11510087D01*
X18154813Y-11435520D01*
X18112974Y-11411364D01*
X18063491Y-11382795D01*
X18063482Y-11382791D01*
X17961629Y-11355500D01*
X17961627Y-11355500D01*
X17856173Y-11355500D01*
X17856171Y-11355500D01*
X17754317Y-11382791D01*
X17754308Y-11382795D01*
X17662986Y-11435520D01*
X17588419Y-11510087D01*
X17536373Y-11600232D01*
X17491440Y-11634710D01*
X17435287Y-11627316D01*
X17419962Y-11615557D01*
X15246747Y-9442342D01*
X15225073Y-9390016D01*
X15227595Y-9370863D01*
X15254355Y-9270993D01*
X15255899Y-9265229D01*
X15255900Y-9265229D01*
X15255900Y-9159771D01*
X15255899Y-9159770D01*
X15254511Y-9154591D01*
X15228607Y-9057913D01*
X15175880Y-8966587D01*
X15101313Y-8892020D01*
X15009991Y-8839295D01*
X15009982Y-8839291D01*
X14908129Y-8812000D01*
X14908127Y-8812000D01*
X14802673Y-8812000D01*
X14802671Y-8812000D01*
X14700817Y-8839291D01*
X14700808Y-8839295D01*
X14609486Y-8892020D01*
X14534920Y-8966586D01*
X14482195Y-9057908D01*
X14482191Y-9057917D01*
X14454900Y-9159770D01*
X14454900Y-9265229D01*
X14482191Y-9367082D01*
X14482195Y-9367091D01*
X14513510Y-9421330D01*
X14534920Y-9458413D01*
X14609487Y-9532980D01*
X14700813Y-9585707D01*
X14751994Y-9599420D01*
X14785168Y-9618573D01*
X18130429Y-12963834D01*
X18130430Y-12963836D01*
X18193864Y-13027270D01*
X18218139Y-13037325D01*
X18276745Y-13061601D01*
X18276746Y-13061601D01*
X18375067Y-13061601D01*
X18375075Y-13061600D01*
X23394679Y-13061600D01*
X23447005Y-13083274D01*
X23468679Y-13135600D01*
X23466157Y-13154753D01*
X23444100Y-13237070D01*
X23444100Y-13342529D01*
X23471391Y-13444382D01*
X23471392Y-13444385D01*
X23471393Y-13444387D01*
X23524120Y-13535713D01*
X23598687Y-13610280D01*
X23690013Y-13663007D01*
X23791870Y-13690299D01*
X23791871Y-13690300D01*
X23791873Y-13690300D01*
X23897329Y-13690300D01*
X23897329Y-13690299D01*
X23999187Y-13663007D01*
X24090513Y-13610280D01*
X24165080Y-13535713D01*
X24217807Y-13444387D01*
X24245099Y-13342529D01*
X24245100Y-13342529D01*
X24245100Y-13237071D01*
X24245099Y-13237070D01*
X24223043Y-13154753D01*
X24230435Y-13098600D01*
X24275368Y-13064122D01*
X24294521Y-13061600D01*
X25594043Y-13061600D01*
X25646368Y-13083273D01*
X26834042Y-14270948D01*
X26855716Y-14323273D01*
X26834042Y-14375599D01*
X26781716Y-14397273D01*
X26762565Y-14394752D01*
X26744828Y-14390000D01*
X26744827Y-14390000D01*
X26639373Y-14390000D01*
X26639371Y-14390000D01*
X26537517Y-14417291D01*
X26537508Y-14417295D01*
X26446186Y-14470020D01*
X26371620Y-14544586D01*
X26318895Y-14635908D01*
X26318891Y-14635917D01*
X26291600Y-14737770D01*
X26291600Y-14843229D01*
X26318891Y-14945082D01*
X26318895Y-14945091D01*
X26339350Y-14980520D01*
X26371620Y-15036413D01*
X26446187Y-15110980D01*
X26537513Y-15163707D01*
X26639370Y-15190999D01*
X26639371Y-15191000D01*
X26639373Y-15191000D01*
X26744829Y-15191000D01*
X26744829Y-15190999D01*
X26846687Y-15163707D01*
X26938013Y-15110980D01*
X27012580Y-15036413D01*
X27065307Y-14945087D01*
X27092599Y-14843229D01*
X27092600Y-14843229D01*
X27092600Y-14737771D01*
X27087848Y-14720038D01*
X27089153Y-14710123D01*
X27085326Y-14700885D01*
X27092718Y-14683037D01*
X27095240Y-14663885D01*
X27103173Y-14657797D01*
X27107000Y-14648559D01*
X27124846Y-14641166D01*
X27140172Y-14629406D01*
X27150086Y-14630711D01*
X27159325Y-14626884D01*
X27177172Y-14634276D01*
X27196325Y-14636798D01*
X27211651Y-14648558D01*
X27265825Y-14702731D01*
X27287500Y-14755056D01*
X27287500Y-14858729D01*
X27314791Y-14960582D01*
X27314795Y-14960591D01*
X27326301Y-14980520D01*
X27367520Y-15051913D01*
X27442087Y-15126480D01*
X27533413Y-15179207D01*
X27533417Y-15179208D01*
X27624530Y-15203622D01*
X27669463Y-15238100D01*
X27676855Y-15294253D01*
X27642377Y-15339186D01*
X27605377Y-15349100D01*
X21943745Y-15349100D01*
X21891419Y-15327426D01*
X21869745Y-15275100D01*
X21891419Y-15222774D01*
X21910571Y-15203622D01*
X21936580Y-15177613D01*
X21989307Y-15086287D01*
X22007794Y-15017291D01*
X22016600Y-14984429D01*
X22016600Y-14878971D01*
X22016599Y-14878970D01*
X22013851Y-14868716D01*
X21989307Y-14777113D01*
X21936580Y-14685787D01*
X21862013Y-14611220D01*
X21811352Y-14581971D01*
X21770691Y-14558495D01*
X21770682Y-14558491D01*
X21668829Y-14531200D01*
X21668827Y-14531200D01*
X21563373Y-14531200D01*
X21563371Y-14531200D01*
X21461517Y-14558491D01*
X21461508Y-14558495D01*
X21370186Y-14611220D01*
X21295620Y-14685786D01*
X21242895Y-14777108D01*
X21242891Y-14777117D01*
X21215600Y-14878970D01*
X21215600Y-14984429D01*
X21242891Y-15086282D01*
X21242895Y-15086291D01*
X21295620Y-15177613D01*
X21340781Y-15222774D01*
X21362455Y-15275100D01*
X21340781Y-15327426D01*
X21288455Y-15349100D01*
X19841303Y-15349100D01*
X19788977Y-15327426D01*
X19767303Y-15275100D01*
X19788977Y-15222774D01*
X19804303Y-15211014D01*
X19809560Y-15207979D01*
X19852513Y-15183180D01*
X19927080Y-15108613D01*
X19979807Y-15017287D01*
X20007099Y-14915429D01*
X20007100Y-14915429D01*
X20007100Y-14809971D01*
X20007099Y-14809970D01*
X20003409Y-14796200D01*
X19979807Y-14708113D01*
X19927080Y-14616787D01*
X19852513Y-14542220D01*
X19809177Y-14517200D01*
X19761191Y-14489495D01*
X19761182Y-14489491D01*
X19659329Y-14462200D01*
X19659327Y-14462200D01*
X19553873Y-14462200D01*
X19553871Y-14462200D01*
X19452017Y-14489491D01*
X19452008Y-14489495D01*
X19360686Y-14542220D01*
X19286120Y-14616786D01*
X19233395Y-14708108D01*
X19233391Y-14708117D01*
X19208964Y-14799282D01*
X19174486Y-14844215D01*
X19118333Y-14851607D01*
X19085160Y-14832455D01*
X18472674Y-14219969D01*
X18451000Y-14167643D01*
X18451000Y-14152370D01*
X22999500Y-14152370D01*
X22999500Y-14257829D01*
X23026791Y-14359682D01*
X23026795Y-14359691D01*
X23078027Y-14448427D01*
X23079520Y-14451013D01*
X23154087Y-14525580D01*
X23245413Y-14578307D01*
X23347270Y-14605599D01*
X23347271Y-14605600D01*
X23347273Y-14605600D01*
X23452729Y-14605600D01*
X23452729Y-14605599D01*
X23554587Y-14578307D01*
X23645913Y-14525580D01*
X23720480Y-14451013D01*
X23773207Y-14359687D01*
X23800499Y-14257829D01*
X23800500Y-14257829D01*
X23800500Y-14152371D01*
X23800499Y-14152370D01*
X23792255Y-14121604D01*
X23773207Y-14050513D01*
X23720480Y-13959187D01*
X23645913Y-13884620D01*
X23554591Y-13831895D01*
X23554582Y-13831891D01*
X23452729Y-13804600D01*
X23452727Y-13804600D01*
X23347273Y-13804600D01*
X23347271Y-13804600D01*
X23245417Y-13831891D01*
X23245408Y-13831895D01*
X23154086Y-13884620D01*
X23079520Y-13959186D01*
X23026795Y-14050508D01*
X23026791Y-14050517D01*
X22999500Y-14152370D01*
X18451000Y-14152370D01*
X18451000Y-14063971D01*
X18450999Y-14063970D01*
X18447394Y-14050517D01*
X18423707Y-13962113D01*
X18370980Y-13870787D01*
X18296413Y-13796220D01*
X18205091Y-13743495D01*
X18205082Y-13743491D01*
X18103229Y-13716200D01*
X18103227Y-13716200D01*
X17997773Y-13716200D01*
X17997771Y-13716200D01*
X17895917Y-13743491D01*
X17895908Y-13743495D01*
X17804586Y-13796220D01*
X17730020Y-13870786D01*
X17677295Y-13962108D01*
X17677291Y-13962117D01*
X17650000Y-14063970D01*
X17650000Y-14169429D01*
X17677291Y-14271282D01*
X17677292Y-14271285D01*
X17677293Y-14271287D01*
X17730020Y-14362613D01*
X17804587Y-14437180D01*
X17895913Y-14489907D01*
X17997770Y-14517199D01*
X17997771Y-14517200D01*
X18101443Y-14517200D01*
X18153769Y-14538874D01*
X19317229Y-15702334D01*
X19317230Y-15702336D01*
X19380664Y-15765770D01*
X19404939Y-15775825D01*
X19454492Y-15796351D01*
X19494540Y-15836398D01*
X19494540Y-15893035D01*
X19463174Y-15928802D01*
X19392686Y-15969499D01*
X19299500Y-16062685D01*
X19233610Y-16176809D01*
X19233606Y-16176818D01*
X19199500Y-16304105D01*
X19199500Y-16435894D01*
X19233606Y-16563181D01*
X19233607Y-16563184D01*
X19233608Y-16563186D01*
X19299500Y-16677314D01*
X19392686Y-16770500D01*
X19506814Y-16836392D01*
X19634105Y-16870499D01*
X19634106Y-16870500D01*
X19634108Y-16870500D01*
X19765894Y-16870500D01*
X19765894Y-16870499D01*
X19893186Y-16836392D01*
X20007314Y-16770500D01*
X20100500Y-16677314D01*
X20166392Y-16563186D01*
X20200499Y-16435894D01*
X20200500Y-16435894D01*
X20200500Y-16304106D01*
X20200499Y-16304105D01*
X20166393Y-16176818D01*
X20166392Y-16176814D01*
X20100500Y-16062686D01*
X20007314Y-15969500D01*
X19953077Y-15938186D01*
X19918598Y-15893252D01*
X19925991Y-15837100D01*
X19970925Y-15802621D01*
X19990077Y-15800100D01*
X23109923Y-15800100D01*
X23162249Y-15821774D01*
X23183923Y-15874100D01*
X23162249Y-15926426D01*
X23146923Y-15938186D01*
X23092685Y-15969500D01*
X22999500Y-16062685D01*
X22933610Y-16176809D01*
X22933606Y-16176818D01*
X22899500Y-16304105D01*
X22899500Y-16435894D01*
X22933606Y-16563181D01*
X22933607Y-16563184D01*
X22933608Y-16563186D01*
X22999500Y-16677314D01*
X23092686Y-16770500D01*
X23206814Y-16836392D01*
X23334105Y-16870499D01*
X23334106Y-16870500D01*
X23334108Y-16870500D01*
X23465894Y-16870500D01*
X23465894Y-16870499D01*
X23477945Y-16867270D01*
X25584700Y-16867270D01*
X25584700Y-16972729D01*
X25611991Y-17074582D01*
X25611992Y-17074585D01*
X25611993Y-17074587D01*
X25664720Y-17165913D01*
X25739287Y-17240480D01*
X25830613Y-17293207D01*
X25932470Y-17320499D01*
X25932471Y-17320500D01*
X25932473Y-17320500D01*
X26037929Y-17320500D01*
X26037929Y-17320499D01*
X26139787Y-17293207D01*
X26231113Y-17240480D01*
X26305680Y-17165913D01*
X26358407Y-17074587D01*
X26385699Y-16972729D01*
X26385700Y-16972729D01*
X26385700Y-16867271D01*
X26385699Y-16867270D01*
X26377425Y-16836392D01*
X26358407Y-16765413D01*
X26305680Y-16674087D01*
X26231113Y-16599520D01*
X26139791Y-16546795D01*
X26139782Y-16546791D01*
X26037929Y-16519500D01*
X26037927Y-16519500D01*
X25932473Y-16519500D01*
X25932471Y-16519500D01*
X25830617Y-16546791D01*
X25830608Y-16546795D01*
X25739286Y-16599520D01*
X25664720Y-16674086D01*
X25611995Y-16765408D01*
X25611991Y-16765417D01*
X25584700Y-16867270D01*
X23477945Y-16867270D01*
X23593186Y-16836392D01*
X23707314Y-16770500D01*
X23800500Y-16677314D01*
X23866392Y-16563186D01*
X23900499Y-16435894D01*
X23900500Y-16435894D01*
X23900500Y-16304106D01*
X23900499Y-16304105D01*
X23866393Y-16176818D01*
X23866392Y-16176814D01*
X23800500Y-16062686D01*
X23707314Y-15969500D01*
X23653077Y-15938186D01*
X23618598Y-15893252D01*
X23625991Y-15837100D01*
X23670925Y-15802621D01*
X23690077Y-15800100D01*
X33773825Y-15800100D01*
X33773833Y-15800101D01*
X33782445Y-15800101D01*
X33872154Y-15800101D01*
X33872155Y-15800101D01*
X33930760Y-15775825D01*
X33955036Y-15765770D01*
X34018470Y-15702336D01*
X34018470Y-15702335D01*
X34028875Y-15691930D01*
X34028877Y-15691927D01*
X34215627Y-15505177D01*
X34215630Y-15505175D01*
X34226035Y-15494770D01*
X34226036Y-15494770D01*
X34289470Y-15431336D01*
X34309313Y-15383430D01*
X34323801Y-15348455D01*
X34323801Y-15258745D01*
X34323801Y-15252787D01*
X34323800Y-15252773D01*
X34323800Y-14834770D01*
X35464600Y-14834770D01*
X35464600Y-14940229D01*
X35491891Y-15042082D01*
X35491895Y-15042091D01*
X35537124Y-15120429D01*
X35544620Y-15133413D01*
X35619187Y-15207980D01*
X35710513Y-15260707D01*
X35812370Y-15287999D01*
X35812371Y-15288000D01*
X35812373Y-15288000D01*
X35917829Y-15288000D01*
X35917829Y-15287999D01*
X36019687Y-15260707D01*
X36111013Y-15207980D01*
X36140174Y-15178819D01*
X36192500Y-15157145D01*
X36244826Y-15178819D01*
X36266500Y-15231145D01*
X36266500Y-15255529D01*
X36293791Y-15357382D01*
X36293792Y-15357385D01*
X36293793Y-15357387D01*
X36346520Y-15448713D01*
X36421087Y-15523280D01*
X36512413Y-15576007D01*
X36614270Y-15603299D01*
X36614271Y-15603300D01*
X36614273Y-15603300D01*
X36719729Y-15603300D01*
X36719729Y-15603299D01*
X36821587Y-15576007D01*
X36912913Y-15523280D01*
X36987480Y-15448713D01*
X37040207Y-15357387D01*
X37067499Y-15255529D01*
X37067500Y-15255529D01*
X37067500Y-15200000D01*
X37500000Y-15200000D01*
X41250000Y-15200000D01*
X41250000Y-2800000D01*
X37500000Y-2800000D01*
X37500000Y-15200000D01*
X37067500Y-15200000D01*
X37067500Y-15150071D01*
X37067499Y-15150070D01*
X37040208Y-15048217D01*
X37040207Y-15048213D01*
X36987480Y-14956887D01*
X36912913Y-14882320D01*
X36864222Y-14854208D01*
X36821591Y-14829595D01*
X36821582Y-14829591D01*
X36719729Y-14802300D01*
X36719727Y-14802300D01*
X36614273Y-14802300D01*
X36614271Y-14802300D01*
X36512417Y-14829591D01*
X36512408Y-14829595D01*
X36421086Y-14882320D01*
X36391926Y-14911481D01*
X36339600Y-14933155D01*
X36287274Y-14911481D01*
X36265600Y-14859155D01*
X36265600Y-14834771D01*
X36265599Y-14834770D01*
X36265178Y-14833200D01*
X36238307Y-14732913D01*
X36185580Y-14641587D01*
X36111013Y-14567020D01*
X36039235Y-14525579D01*
X36019691Y-14514295D01*
X36019682Y-14514291D01*
X35917829Y-14487000D01*
X35917827Y-14487000D01*
X35812373Y-14487000D01*
X35812371Y-14487000D01*
X35710517Y-14514291D01*
X35710508Y-14514295D01*
X35619186Y-14567020D01*
X35544620Y-14641586D01*
X35491895Y-14732908D01*
X35491891Y-14732917D01*
X35464600Y-14834770D01*
X34323800Y-14834770D01*
X34323800Y-12842945D01*
X34323799Y-12842943D01*
X34289471Y-12760066D01*
X34289469Y-12760063D01*
X34221821Y-12692415D01*
X34221814Y-12692409D01*
X33495174Y-11965769D01*
X33473500Y-11913443D01*
X33473500Y-11809771D01*
X33473499Y-11809770D01*
X33462918Y-11770282D01*
X33446207Y-11707913D01*
X33393480Y-11616587D01*
X33318913Y-11542020D01*
X33267698Y-11512451D01*
X33227591Y-11489295D01*
X33227582Y-11489291D01*
X33125729Y-11462000D01*
X33125727Y-11462000D01*
X33020273Y-11462000D01*
X33020271Y-11462000D01*
X32918417Y-11489291D01*
X32918408Y-11489295D01*
X32827086Y-11542020D01*
X32752520Y-11616586D01*
X32699795Y-11707908D01*
X32699791Y-11707917D01*
X32672500Y-11809770D01*
X32672500Y-11915229D01*
X32699791Y-12017082D01*
X32699795Y-12017091D01*
X32742813Y-12091600D01*
X32752520Y-12108413D01*
X32827087Y-12182980D01*
X32918413Y-12235707D01*
X33020270Y-12262999D01*
X33020271Y-12263000D01*
X33123943Y-12263000D01*
X33176269Y-12284674D01*
X33851126Y-12959531D01*
X33872800Y-13011857D01*
X33872800Y-13856143D01*
X33851126Y-13908469D01*
X33798800Y-13930143D01*
X33746474Y-13908469D01*
X30904550Y-11066545D01*
X34554200Y-11066545D01*
X34554200Y-11213454D01*
X34582858Y-11357535D01*
X34582861Y-11357546D01*
X34639078Y-11493266D01*
X34711339Y-11601413D01*
X34720699Y-11615420D01*
X34824580Y-11719301D01*
X34946731Y-11800920D01*
X34946732Y-11800920D01*
X34946733Y-11800921D01*
X35082453Y-11857138D01*
X35082458Y-11857140D01*
X35226545Y-11885800D01*
X35373455Y-11885800D01*
X35517542Y-11857140D01*
X35653269Y-11800920D01*
X35775420Y-11719301D01*
X35879301Y-11615420D01*
X35960920Y-11493269D01*
X36017140Y-11357542D01*
X36045800Y-11213455D01*
X36045800Y-11066545D01*
X36017140Y-10922458D01*
X35984559Y-10843800D01*
X35960921Y-10786733D01*
X35922096Y-10728628D01*
X35879301Y-10664580D01*
X35775420Y-10560699D01*
X35759318Y-10549940D01*
X35653266Y-10479078D01*
X35517546Y-10422861D01*
X35517535Y-10422858D01*
X35373455Y-10394200D01*
X35226545Y-10394200D01*
X35082464Y-10422858D01*
X35082453Y-10422861D01*
X34946733Y-10479078D01*
X34824583Y-10560696D01*
X34720696Y-10664583D01*
X34639078Y-10786733D01*
X34582861Y-10922453D01*
X34582858Y-10922464D01*
X34554200Y-11066545D01*
X30904550Y-11066545D01*
X30264978Y-10426973D01*
X30264978Y-10426972D01*
X30191137Y-10353131D01*
X30191133Y-10353128D01*
X30159087Y-10339855D01*
X30108255Y-10318799D01*
X30018545Y-10318799D01*
X30009933Y-10318799D01*
X30009925Y-10318800D01*
X22378358Y-10318800D01*
X22326032Y-10297126D01*
X21812476Y-9783570D01*
X30095300Y-9783570D01*
X30095300Y-9889029D01*
X30122591Y-9990882D01*
X30122595Y-9990891D01*
X30137904Y-10017407D01*
X30175320Y-10082213D01*
X30249887Y-10156780D01*
X30341213Y-10209507D01*
X30443070Y-10236799D01*
X30443071Y-10236800D01*
X30443073Y-10236800D01*
X30548529Y-10236800D01*
X30548529Y-10236799D01*
X30650387Y-10209507D01*
X30741713Y-10156780D01*
X30816280Y-10082213D01*
X30869007Y-9990887D01*
X30896299Y-9889029D01*
X30896300Y-9889029D01*
X30896300Y-9783571D01*
X30896299Y-9783570D01*
X30891882Y-9767087D01*
X30869007Y-9681713D01*
X30816280Y-9590387D01*
X30741713Y-9515820D01*
X30696321Y-9489613D01*
X30650391Y-9463095D01*
X30650382Y-9463091D01*
X30548529Y-9435800D01*
X30548527Y-9435800D01*
X30443073Y-9435800D01*
X30443071Y-9435800D01*
X30341217Y-9463091D01*
X30341208Y-9463095D01*
X30249886Y-9515820D01*
X30175320Y-9590386D01*
X30122595Y-9681708D01*
X30122591Y-9681717D01*
X30095300Y-9783570D01*
X21812476Y-9783570D01*
X20480976Y-8452070D01*
X29665100Y-8452070D01*
X29665100Y-8557529D01*
X29692391Y-8659382D01*
X29692395Y-8659391D01*
X29731915Y-8727842D01*
X29745120Y-8750713D01*
X29819687Y-8825280D01*
X29911013Y-8878007D01*
X30012870Y-8905299D01*
X30012871Y-8905300D01*
X30012873Y-8905300D01*
X30118329Y-8905300D01*
X30118329Y-8905299D01*
X30220187Y-8878007D01*
X30311513Y-8825280D01*
X30386080Y-8750713D01*
X30438807Y-8659387D01*
X30466099Y-8557529D01*
X30466100Y-8557529D01*
X30466100Y-8452071D01*
X30466099Y-8452070D01*
X30452629Y-8401800D01*
X30438807Y-8350213D01*
X30386080Y-8258887D01*
X30311513Y-8184320D01*
X30220191Y-8131595D01*
X30220182Y-8131591D01*
X30118329Y-8104300D01*
X30118327Y-8104300D01*
X30012873Y-8104300D01*
X30012871Y-8104300D01*
X29911017Y-8131591D01*
X29911008Y-8131595D01*
X29819686Y-8184320D01*
X29745120Y-8258886D01*
X29692395Y-8350208D01*
X29692391Y-8350217D01*
X29665100Y-8452070D01*
X20480976Y-8452070D01*
X19860776Y-7831870D01*
X22615100Y-7831870D01*
X22615100Y-7937329D01*
X22642391Y-8039182D01*
X22642395Y-8039191D01*
X22668038Y-8083605D01*
X22695120Y-8130513D01*
X22769687Y-8205080D01*
X22861013Y-8257807D01*
X22962870Y-8285099D01*
X22962871Y-8285100D01*
X22962873Y-8285100D01*
X23068329Y-8285100D01*
X23068329Y-8285099D01*
X23170187Y-8257807D01*
X23261513Y-8205080D01*
X23336080Y-8130513D01*
X23388807Y-8039187D01*
X23416099Y-7937329D01*
X23416100Y-7937329D01*
X23416100Y-7831871D01*
X23416099Y-7831870D01*
X23395605Y-7755386D01*
X23388807Y-7730013D01*
X23336080Y-7638687D01*
X23261513Y-7564120D01*
X23206586Y-7532408D01*
X23170191Y-7511395D01*
X23170182Y-7511391D01*
X23068329Y-7484100D01*
X23068327Y-7484100D01*
X22962873Y-7484100D01*
X22962871Y-7484100D01*
X22861017Y-7511391D01*
X22861008Y-7511395D01*
X22769686Y-7564120D01*
X22695120Y-7638686D01*
X22642395Y-7730008D01*
X22642391Y-7730017D01*
X22615100Y-7831870D01*
X19860776Y-7831870D01*
X19477174Y-7448268D01*
X19455500Y-7395942D01*
X19455500Y-7292271D01*
X19455499Y-7292270D01*
X19437200Y-7223976D01*
X19433367Y-7209670D01*
X21184700Y-7209670D01*
X21184700Y-7315129D01*
X21211991Y-7416982D01*
X21211995Y-7416991D01*
X21224875Y-7439299D01*
X21264720Y-7508313D01*
X21339287Y-7582880D01*
X21430613Y-7635607D01*
X21532470Y-7662899D01*
X21532471Y-7662900D01*
X21532473Y-7662900D01*
X21637929Y-7662900D01*
X21637929Y-7662899D01*
X21739787Y-7635607D01*
X21831113Y-7582880D01*
X21905680Y-7508313D01*
X21958407Y-7416987D01*
X21985699Y-7315129D01*
X21985700Y-7315129D01*
X21985700Y-7209673D01*
X21961880Y-7120775D01*
X21961880Y-7120774D01*
X21958407Y-7107814D01*
X21958404Y-7107808D01*
X21957631Y-7106470D01*
X27545500Y-7106470D01*
X27545500Y-7211929D01*
X27572791Y-7313782D01*
X27572795Y-7313791D01*
X27574095Y-7316043D01*
X27625520Y-7405113D01*
X27700087Y-7479680D01*
X27791413Y-7532407D01*
X27893270Y-7559699D01*
X27893271Y-7559700D01*
X27893273Y-7559700D01*
X27998729Y-7559700D01*
X27998729Y-7559699D01*
X28100587Y-7532407D01*
X28191913Y-7479680D01*
X28266480Y-7405113D01*
X28319207Y-7313787D01*
X28346499Y-7211929D01*
X28346500Y-7211929D01*
X28346500Y-7106471D01*
X28346499Y-7106470D01*
X28344520Y-7099086D01*
X28319207Y-7004613D01*
X28266480Y-6913287D01*
X28191913Y-6838720D01*
X28112528Y-6792887D01*
X28100591Y-6785995D01*
X28100582Y-6785991D01*
X27998729Y-6758700D01*
X27998727Y-6758700D01*
X27893273Y-6758700D01*
X27893271Y-6758700D01*
X27791417Y-6785991D01*
X27791408Y-6785995D01*
X27700086Y-6838720D01*
X27625520Y-6913286D01*
X27572795Y-7004608D01*
X27572791Y-7004617D01*
X27545500Y-7106470D01*
X21957631Y-7106470D01*
X21949004Y-7091527D01*
X21905680Y-7016487D01*
X21831113Y-6941920D01*
X21781519Y-6913287D01*
X21739791Y-6889195D01*
X21739782Y-6889191D01*
X21637929Y-6861900D01*
X21637927Y-6861900D01*
X21532473Y-6861900D01*
X21532471Y-6861900D01*
X21430617Y-6889191D01*
X21430608Y-6889195D01*
X21339286Y-6941920D01*
X21264720Y-7016486D01*
X21211995Y-7107808D01*
X21211991Y-7107817D01*
X21184700Y-7209670D01*
X19433367Y-7209670D01*
X19428207Y-7190413D01*
X19375480Y-7099087D01*
X19300913Y-7024520D01*
X19266433Y-7004613D01*
X19209591Y-6971795D01*
X19209582Y-6971791D01*
X19107729Y-6944500D01*
X19107727Y-6944500D01*
X19002273Y-6944500D01*
X19002271Y-6944500D01*
X18900417Y-6971791D01*
X18900408Y-6971795D01*
X18809086Y-7024520D01*
X18734520Y-7099086D01*
X18681795Y-7190408D01*
X18681791Y-7190417D01*
X18654500Y-7292270D01*
X18654500Y-7316043D01*
X18632826Y-7368369D01*
X18580500Y-7390043D01*
X18528174Y-7368369D01*
X17169078Y-6009273D01*
X17169078Y-6009272D01*
X17095235Y-5935429D01*
X17055836Y-5919110D01*
X17012355Y-5901099D01*
X16922645Y-5901099D01*
X16914033Y-5901099D01*
X16914025Y-5901100D01*
X12425545Y-5901100D01*
X12373219Y-5879426D01*
X12299913Y-5806120D01*
X12208591Y-5753395D01*
X12208582Y-5753391D01*
X12106729Y-5726100D01*
X12106727Y-5726100D01*
X12001273Y-5726100D01*
X12001271Y-5726100D01*
X11899417Y-5753391D01*
X11899408Y-5753395D01*
X11808086Y-5806120D01*
X11733520Y-5880686D01*
X11680795Y-5972008D01*
X11680791Y-5972017D01*
X11653500Y-6073870D01*
X2670500Y-6073870D01*
X2670500Y-6034232D01*
X2670499Y-6034231D01*
X2663811Y-6009272D01*
X2631281Y-5887865D01*
X2555515Y-5756635D01*
X2448365Y-5649485D01*
X2443680Y-5646780D01*
X2317139Y-5573721D01*
X2317130Y-5573717D01*
X2170768Y-5534500D01*
X2170766Y-5534500D01*
X2019234Y-5534500D01*
X2019232Y-5534500D01*
X1872869Y-5573717D01*
X1872860Y-5573721D01*
X1741637Y-5649483D01*
X1634483Y-5756637D01*
X1558721Y-5887860D01*
X1558717Y-5887869D01*
X1519500Y-6034231D01*
X100500Y-6034231D01*
X100500Y-5273570D01*
X10248200Y-5273570D01*
X10248200Y-5379029D01*
X10275491Y-5480882D01*
X10275495Y-5480891D01*
X10300280Y-5523820D01*
X10328220Y-5572213D01*
X10402787Y-5646780D01*
X10494113Y-5699507D01*
X10595970Y-5726799D01*
X10595971Y-5726800D01*
X10595973Y-5726800D01*
X10701429Y-5726800D01*
X10701429Y-5726799D01*
X10803287Y-5699507D01*
X10894613Y-5646780D01*
X10969180Y-5572213D01*
X11021907Y-5480887D01*
X11049199Y-5379029D01*
X11049200Y-5379029D01*
X11049200Y-5273575D01*
X11049198Y-5273565D01*
X11047270Y-5266370D01*
X16641100Y-5266370D01*
X16641100Y-5371829D01*
X16668391Y-5473682D01*
X16668395Y-5473691D01*
X16711602Y-5548527D01*
X16721120Y-5565013D01*
X16795687Y-5639580D01*
X16887013Y-5692307D01*
X16988870Y-5719599D01*
X16988871Y-5719600D01*
X16988873Y-5719600D01*
X17094329Y-5719600D01*
X17094329Y-5719599D01*
X17196187Y-5692307D01*
X17287513Y-5639580D01*
X17360819Y-5566274D01*
X17413145Y-5544600D01*
X18986755Y-5544600D01*
X19039081Y-5566274D01*
X19051587Y-5578780D01*
X19142913Y-5631507D01*
X19244770Y-5658799D01*
X19244771Y-5658800D01*
X19244773Y-5658800D01*
X19350229Y-5658800D01*
X19350229Y-5658799D01*
X19452087Y-5631507D01*
X19543413Y-5578780D01*
X19617980Y-5504213D01*
X19670707Y-5412887D01*
X19697999Y-5311029D01*
X19698000Y-5311029D01*
X19698000Y-5246170D01*
X21597500Y-5246170D01*
X21597500Y-5351629D01*
X21624791Y-5453482D01*
X21624795Y-5453491D01*
X21661156Y-5516470D01*
X21677520Y-5544813D01*
X21752087Y-5619380D01*
X21843413Y-5672107D01*
X21945270Y-5699399D01*
X21945271Y-5699400D01*
X21945273Y-5699400D01*
X22050729Y-5699400D01*
X22050729Y-5699399D01*
X22152587Y-5672107D01*
X22243913Y-5619380D01*
X22318480Y-5544813D01*
X22371207Y-5453487D01*
X22398499Y-5351629D01*
X22398500Y-5351629D01*
X22398500Y-5246171D01*
X22398499Y-5246170D01*
X22387620Y-5205570D01*
X22371207Y-5144313D01*
X22318480Y-5052987D01*
X22316263Y-5050770D01*
X24763400Y-5050770D01*
X24763400Y-5156229D01*
X24790691Y-5258082D01*
X24790695Y-5258091D01*
X24799629Y-5273565D01*
X24843420Y-5349413D01*
X24917987Y-5423980D01*
X24958625Y-5447442D01*
X24993104Y-5492374D01*
X24985712Y-5548527D01*
X24973953Y-5563853D01*
X24939420Y-5598386D01*
X24886695Y-5689708D01*
X24886691Y-5689717D01*
X24859400Y-5791570D01*
X24859400Y-5897029D01*
X24886691Y-5998882D01*
X24886695Y-5998891D01*
X24929984Y-6073870D01*
X24939420Y-6090213D01*
X25013987Y-6164780D01*
X25105313Y-6217507D01*
X25207170Y-6244799D01*
X25207171Y-6244800D01*
X25207173Y-6244800D01*
X25312629Y-6244800D01*
X25312629Y-6244799D01*
X25414487Y-6217507D01*
X25505813Y-6164780D01*
X25580380Y-6090213D01*
X25633107Y-5998887D01*
X25636414Y-5986545D01*
X33538200Y-5986545D01*
X33538200Y-6133454D01*
X33566858Y-6277535D01*
X33566861Y-6277546D01*
X33623078Y-6413266D01*
X33699139Y-6527100D01*
X33704699Y-6535420D01*
X33808580Y-6639301D01*
X33930731Y-6720920D01*
X34066458Y-6777140D01*
X34210545Y-6805800D01*
X34357455Y-6805800D01*
X34501542Y-6777140D01*
X34637269Y-6720920D01*
X34759420Y-6639301D01*
X34863301Y-6535420D01*
X34944920Y-6413269D01*
X35001140Y-6277542D01*
X35029800Y-6133455D01*
X35029800Y-5986545D01*
X35570200Y-5986545D01*
X35570200Y-6133454D01*
X35598858Y-6277535D01*
X35598861Y-6277546D01*
X35655078Y-6413266D01*
X35731139Y-6527100D01*
X35736699Y-6535420D01*
X35840580Y-6639301D01*
X35962731Y-6720920D01*
X36098458Y-6777140D01*
X36242545Y-6805800D01*
X36389455Y-6805800D01*
X36533542Y-6777140D01*
X36669269Y-6720920D01*
X36791420Y-6639301D01*
X36895301Y-6535420D01*
X36976920Y-6413269D01*
X37033140Y-6277542D01*
X37061800Y-6133455D01*
X37061800Y-5986545D01*
X37033140Y-5842458D01*
X37012063Y-5791573D01*
X36976921Y-5706733D01*
X36972093Y-5699508D01*
X36895301Y-5584580D01*
X36791420Y-5480699D01*
X36780918Y-5473682D01*
X36669266Y-5399078D01*
X36533546Y-5342861D01*
X36533535Y-5342858D01*
X36389455Y-5314200D01*
X36242545Y-5314200D01*
X36098464Y-5342858D01*
X36098453Y-5342861D01*
X35962733Y-5399078D01*
X35840583Y-5480696D01*
X35736696Y-5584583D01*
X35655078Y-5706733D01*
X35598861Y-5842453D01*
X35598858Y-5842464D01*
X35570200Y-5986545D01*
X35029800Y-5986545D01*
X35001140Y-5842458D01*
X34980063Y-5791573D01*
X34944921Y-5706733D01*
X34940093Y-5699508D01*
X34863301Y-5584580D01*
X34759420Y-5480699D01*
X34748918Y-5473682D01*
X34637266Y-5399078D01*
X34501546Y-5342861D01*
X34501535Y-5342858D01*
X34357455Y-5314200D01*
X34210545Y-5314200D01*
X34066464Y-5342858D01*
X34066453Y-5342861D01*
X33930733Y-5399078D01*
X33808583Y-5480696D01*
X33704696Y-5584583D01*
X33623078Y-5706733D01*
X33566861Y-5842453D01*
X33566858Y-5842464D01*
X33538200Y-5986545D01*
X25636414Y-5986545D01*
X25660399Y-5897029D01*
X25660400Y-5897029D01*
X25660400Y-5868700D01*
X25682074Y-5816374D01*
X25734400Y-5794700D01*
X28847755Y-5794700D01*
X28900081Y-5816374D01*
X28973387Y-5889680D01*
X29064713Y-5942407D01*
X29166570Y-5969699D01*
X29166571Y-5969700D01*
X29166573Y-5969700D01*
X29272029Y-5969700D01*
X29272029Y-5969699D01*
X29373887Y-5942407D01*
X29465213Y-5889680D01*
X29539780Y-5815113D01*
X29592507Y-5723787D01*
X29619799Y-5621929D01*
X29619800Y-5621929D01*
X29619800Y-5516471D01*
X29619799Y-5516470D01*
X29610263Y-5480882D01*
X29592507Y-5414613D01*
X29539780Y-5323287D01*
X29465213Y-5248720D01*
X29460796Y-5246170D01*
X29373891Y-5195995D01*
X29373882Y-5195991D01*
X29272029Y-5168700D01*
X29272027Y-5168700D01*
X29166573Y-5168700D01*
X29166571Y-5168700D01*
X29064717Y-5195991D01*
X29064708Y-5195995D01*
X28973386Y-5248720D01*
X28900081Y-5322026D01*
X28847755Y-5343700D01*
X25610605Y-5343700D01*
X25558279Y-5322026D01*
X25536605Y-5269700D01*
X25539127Y-5250547D01*
X25551178Y-5205571D01*
X25564399Y-5156229D01*
X25564400Y-5156229D01*
X25564400Y-5050771D01*
X25564399Y-5050770D01*
X25554114Y-5012387D01*
X25537107Y-4948913D01*
X25484380Y-4857587D01*
X25409813Y-4783020D01*
X25318491Y-4730295D01*
X25318482Y-4730291D01*
X25216629Y-4703000D01*
X25216627Y-4703000D01*
X25111173Y-4703000D01*
X25111171Y-4703000D01*
X25009317Y-4730291D01*
X25009308Y-4730295D01*
X24917986Y-4783020D01*
X24843420Y-4857586D01*
X24790695Y-4948908D01*
X24790691Y-4948917D01*
X24763400Y-5050770D01*
X22316263Y-5050770D01*
X22243913Y-4978420D01*
X22200049Y-4953095D01*
X22152591Y-4925695D01*
X22152582Y-4925691D01*
X22050729Y-4898400D01*
X22050727Y-4898400D01*
X21945273Y-4898400D01*
X21945271Y-4898400D01*
X21843417Y-4925691D01*
X21843408Y-4925695D01*
X21752086Y-4978420D01*
X21677520Y-5052986D01*
X21624795Y-5144308D01*
X21624791Y-5144317D01*
X21597500Y-5246170D01*
X19698000Y-5246170D01*
X19698000Y-5205571D01*
X19697999Y-5205570D01*
X19695433Y-5195995D01*
X19670707Y-5103713D01*
X19617980Y-5012387D01*
X19543413Y-4937820D01*
X19522412Y-4925695D01*
X19452091Y-4885095D01*
X19452082Y-4885091D01*
X19350229Y-4857800D01*
X19350227Y-4857800D01*
X19244773Y-4857800D01*
X19244771Y-4857800D01*
X19142917Y-4885091D01*
X19142908Y-4885095D01*
X19051586Y-4937820D01*
X18977020Y-5012386D01*
X18951494Y-5056600D01*
X18906561Y-5091078D01*
X18887408Y-5093600D01*
X17413145Y-5093600D01*
X17360819Y-5071926D01*
X17287513Y-4998620D01*
X17196191Y-4945895D01*
X17196182Y-4945891D01*
X17094329Y-4918600D01*
X17094327Y-4918600D01*
X16988873Y-4918600D01*
X16988871Y-4918600D01*
X16887017Y-4945891D01*
X16887008Y-4945895D01*
X16795686Y-4998620D01*
X16721120Y-5073186D01*
X16668395Y-5164508D01*
X16668391Y-5164517D01*
X16641100Y-5266370D01*
X11047270Y-5266370D01*
X11021908Y-5171717D01*
X11021907Y-5171713D01*
X10969180Y-5080387D01*
X10894613Y-5005820D01*
X10847155Y-4978420D01*
X10803291Y-4953095D01*
X10803282Y-4953091D01*
X10701429Y-4925800D01*
X10701427Y-4925800D01*
X10595973Y-4925800D01*
X10595971Y-4925800D01*
X10494117Y-4953091D01*
X10494108Y-4953095D01*
X10402786Y-5005820D01*
X10328220Y-5080386D01*
X10275495Y-5171708D01*
X10275491Y-5171717D01*
X10248200Y-5273570D01*
X100500Y-5273570D01*
X100500Y-4278970D01*
X18111500Y-4278970D01*
X18111500Y-4384429D01*
X18138791Y-4486282D01*
X18138792Y-4486285D01*
X18138793Y-4486287D01*
X18191520Y-4577613D01*
X18266087Y-4652180D01*
X18357413Y-4704907D01*
X18459270Y-4732199D01*
X18459271Y-4732200D01*
X18459273Y-4732200D01*
X18564729Y-4732200D01*
X18564729Y-4732199D01*
X18666587Y-4704907D01*
X18757913Y-4652180D01*
X18832480Y-4577613D01*
X18885207Y-4486287D01*
X18912499Y-4384429D01*
X18912500Y-4384429D01*
X18912500Y-4278971D01*
X18912499Y-4278970D01*
X18885208Y-4177117D01*
X18885207Y-4177113D01*
X18832480Y-4085787D01*
X18757913Y-4011220D01*
X18666591Y-3958495D01*
X18666582Y-3958491D01*
X18660905Y-3956970D01*
X27432900Y-3956970D01*
X27432900Y-4062429D01*
X27460191Y-4164282D01*
X27460192Y-4164285D01*
X27460193Y-4164287D01*
X27512920Y-4255613D01*
X27587487Y-4330180D01*
X27678813Y-4382907D01*
X27780670Y-4410199D01*
X27780671Y-4410200D01*
X27780673Y-4410200D01*
X27886129Y-4410200D01*
X27886129Y-4410199D01*
X27987987Y-4382907D01*
X28079313Y-4330180D01*
X28153880Y-4255613D01*
X28206607Y-4164287D01*
X28233899Y-4062429D01*
X28233900Y-4062429D01*
X28233900Y-3956971D01*
X28233899Y-3956970D01*
X28206608Y-3855117D01*
X28206607Y-3855113D01*
X28153880Y-3763787D01*
X28079313Y-3689220D01*
X28053478Y-3674304D01*
X27987991Y-3636495D01*
X27987982Y-3636491D01*
X27886129Y-3609200D01*
X27886127Y-3609200D01*
X27780673Y-3609200D01*
X27780671Y-3609200D01*
X27678817Y-3636491D01*
X27678808Y-3636495D01*
X27587486Y-3689220D01*
X27512920Y-3763786D01*
X27460195Y-3855108D01*
X27460191Y-3855117D01*
X27432900Y-3956970D01*
X18660905Y-3956970D01*
X18564729Y-3931200D01*
X18564727Y-3931200D01*
X18459273Y-3931200D01*
X18459271Y-3931200D01*
X18357417Y-3958491D01*
X18357408Y-3958495D01*
X18266086Y-4011220D01*
X18191520Y-4085786D01*
X18138795Y-4177108D01*
X18138791Y-4177117D01*
X18111500Y-4278970D01*
X100500Y-4278970D01*
X100500Y-3248370D01*
X18769200Y-3248370D01*
X18769200Y-3353829D01*
X18796491Y-3455682D01*
X18796495Y-3455691D01*
X18829582Y-3512999D01*
X18849220Y-3547013D01*
X18923787Y-3621580D01*
X19015113Y-3674307D01*
X19116970Y-3701599D01*
X19116971Y-3701600D01*
X19116973Y-3701600D01*
X19222429Y-3701600D01*
X19222429Y-3701599D01*
X19324287Y-3674307D01*
X19415613Y-3621580D01*
X19490180Y-3547013D01*
X19542907Y-3455687D01*
X19570199Y-3353829D01*
X19570200Y-3353829D01*
X19570200Y-3248371D01*
X19570199Y-3248370D01*
X19542908Y-3146517D01*
X19542907Y-3146513D01*
X19492826Y-3059770D01*
X32599500Y-3059770D01*
X32599500Y-3165229D01*
X32626791Y-3267082D01*
X32626792Y-3267085D01*
X32626793Y-3267087D01*
X32679520Y-3358413D01*
X32754087Y-3432980D01*
X32845413Y-3485707D01*
X32947270Y-3512999D01*
X32947271Y-3513000D01*
X32947273Y-3513000D01*
X33052729Y-3513000D01*
X33052729Y-3512999D01*
X33154587Y-3485707D01*
X33245913Y-3432980D01*
X33320480Y-3358413D01*
X33373207Y-3267087D01*
X33400499Y-3165229D01*
X33400500Y-3165229D01*
X33400500Y-3059771D01*
X33400499Y-3059770D01*
X33379127Y-2980009D01*
X33373207Y-2957913D01*
X33320480Y-2866587D01*
X33245913Y-2792020D01*
X33217495Y-2775613D01*
X33154591Y-2739295D01*
X33154582Y-2739291D01*
X33052729Y-2712000D01*
X33052727Y-2712000D01*
X32947273Y-2712000D01*
X32947271Y-2712000D01*
X32845417Y-2739291D01*
X32845408Y-2739295D01*
X32754086Y-2792020D01*
X32679520Y-2866586D01*
X32626795Y-2957908D01*
X32626791Y-2957917D01*
X32599500Y-3059770D01*
X19492826Y-3059770D01*
X19490180Y-3055187D01*
X19415613Y-2980620D01*
X19328283Y-2930200D01*
X19324291Y-2927895D01*
X19324282Y-2927891D01*
X19222429Y-2900600D01*
X19222427Y-2900600D01*
X19116973Y-2900600D01*
X19116971Y-2900600D01*
X19015117Y-2927891D01*
X19015108Y-2927895D01*
X18923786Y-2980620D01*
X18849220Y-3055186D01*
X18796495Y-3146508D01*
X18796491Y-3146517D01*
X18769200Y-3248370D01*
X100500Y-3248370D01*
X100500Y-3002083D01*
X100616Y-2997934D01*
X104549Y-2927895D01*
X118499Y-2679492D01*
X119429Y-2671254D01*
X134521Y-2582429D01*
X152439Y-2476970D01*
X30931600Y-2476970D01*
X30931600Y-2582429D01*
X30958891Y-2684282D01*
X30958895Y-2684291D01*
X30990651Y-2739293D01*
X31011620Y-2775613D01*
X31086187Y-2850180D01*
X31177513Y-2902907D01*
X31279370Y-2930199D01*
X31279371Y-2930200D01*
X31279373Y-2930200D01*
X31384829Y-2930200D01*
X31384829Y-2930199D01*
X31486687Y-2902907D01*
X31578013Y-2850180D01*
X31652580Y-2775613D01*
X31705307Y-2684287D01*
X31732599Y-2582429D01*
X31732600Y-2582429D01*
X31732600Y-2476971D01*
X31732599Y-2476970D01*
X31705308Y-2375117D01*
X31705307Y-2375113D01*
X31652580Y-2283787D01*
X31578013Y-2209220D01*
X31555860Y-2196430D01*
X31486691Y-2156495D01*
X31486682Y-2156491D01*
X31384829Y-2129200D01*
X31384827Y-2129200D01*
X31279373Y-2129200D01*
X31279371Y-2129200D01*
X31177517Y-2156491D01*
X31177508Y-2156495D01*
X31086186Y-2209220D01*
X31011620Y-2283786D01*
X30958895Y-2375108D01*
X30958891Y-2375117D01*
X30931600Y-2476970D01*
X152439Y-2476970D01*
X172503Y-2358885D01*
X174341Y-2350828D01*
X262065Y-2046332D01*
X264797Y-2038525D01*
X386055Y-1745781D01*
X389646Y-1738324D01*
X542918Y-1461001D01*
X547319Y-1453996D01*
X730678Y-1195576D01*
X735844Y-1189099D01*
X863622Y-1046115D01*
X946979Y-952837D01*
X952837Y-946979D01*
X1189099Y-735843D01*
X1195576Y-730678D01*
X1453996Y-547319D01*
X1461001Y-542918D01*
X1738324Y-389646D01*
X1745781Y-386055D01*
X2038525Y-264797D01*
X2046332Y-262065D01*
X2350828Y-174341D01*
X2358889Y-172502D01*
X2671262Y-119428D01*
X2679492Y-118499D01*
X2997934Y-100615D01*
X3002083Y-100500D01*
X3026929Y-100500D01*
X41426000Y-100500D01*
X41478326Y-122174D01*
G37*
%TD.AperFunction*%
%TD*%
M02*
