%TF.GenerationSoftware,KiCad,Pcbnew,9.0.9-9.0.9~ubuntu22.04.1*%
%TF.CreationDate,2026-08-30T16:40:41+00:00*%
%TF.ProjectId,anticipy_r1,616e7469-6369-4707-995f-72312e6b6963,rev?*%
%TF.SameCoordinates,Original*%
%TF.FileFunction,Copper,L4,Bot*%
%TF.FilePolarity,Positive*%
%FSLAX46Y46*%
G04 Gerber Fmt 4.6, Leading zero omitted, Abs format (unit mm)*
G04 Created by KiCad (PCBNEW 9.0.9-9.0.9~ubuntu22.04.1) date 2026-08-30 16:40:41*
%MOMM*%
%LPD*%
G01*
G04 APERTURE LIST*
G04 Aperture macros list*
%AMRoundRect*
0 Rectangle with rounded corners*
0 $1 Rounding radius*
0 $2 $3 $4 $5 $6 $7 $8 $9 X,Y pos of 4 corners*
0 Add a 4 corners polygon primitive as box body*
4,1,4,$2,$3,$4,$5,$6,$7,$8,$9,$2,$3,0*
0 Add four circle primitives for the rounded corners*
1,1,$1+$1,$2,$3*
1,1,$1+$1,$4,$5*
1,1,$1+$1,$6,$7*
1,1,$1+$1,$8,$9*
0 Add four rect primitives between the rounded corners*
20,1,$1+$1,$2,$3,$4,$5,0*
20,1,$1+$1,$4,$5,$6,$7,0*
20,1,$1+$1,$6,$7,$8,$9,0*
20,1,$1+$1,$8,$9,$2,$3,0*%
G04 Aperture macros list end*
%TA.AperFunction,HeatsinkPad*%
%ADD10O,2.100000X1.000000*%
%TD*%
%TA.AperFunction,HeatsinkPad*%
%ADD11O,1.800000X1.000000*%
%TD*%
%TA.AperFunction,SMDPad,CuDef*%
%ADD12RoundRect,0.135000X-0.135000X-0.185000X0.135000X-0.185000X0.135000X0.185000X-0.135000X0.185000X0*%
%TD*%
%TA.AperFunction,SMDPad,CuDef*%
%ADD13RoundRect,0.250000X-0.250000X-0.475000X0.250000X-0.475000X0.250000X0.475000X-0.250000X0.475000X0*%
%TD*%
%TA.AperFunction,SMDPad,CuDef*%
%ADD14RoundRect,0.112500X-0.187500X-0.112500X0.187500X-0.112500X0.187500X0.112500X-0.187500X0.112500X0*%
%TD*%
%TA.AperFunction,SMDPad,CuDef*%
%ADD15RoundRect,0.162500X-0.650000X-0.162500X0.650000X-0.162500X0.650000X0.162500X-0.650000X0.162500X0*%
%TD*%
%TA.AperFunction,SMDPad,CuDef*%
%ADD16RoundRect,0.140000X-0.140000X-0.170000X0.140000X-0.170000X0.140000X0.170000X-0.140000X0.170000X0*%
%TD*%
%TA.AperFunction,SMDPad,CuDef*%
%ADD17RoundRect,0.140000X0.170000X-0.140000X0.170000X0.140000X-0.170000X0.140000X-0.170000X-0.140000X0*%
%TD*%
%TA.AperFunction,SMDPad,CuDef*%
%ADD18RoundRect,0.050000X-0.112500X-0.050000X0.112500X-0.050000X0.112500X0.050000X-0.112500X0.050000X0*%
%TD*%
%TA.AperFunction,SMDPad,CuDef*%
%ADD19RoundRect,0.050000X-0.050000X-0.112500X0.050000X-0.112500X0.050000X0.112500X-0.050000X0.112500X0*%
%TD*%
%TA.AperFunction,SMDPad,CuDef*%
%ADD20RoundRect,0.150000X0.150000X0.625000X-0.150000X0.625000X-0.150000X-0.625000X0.150000X-0.625000X0*%
%TD*%
%TA.AperFunction,SMDPad,CuDef*%
%ADD21RoundRect,0.250000X0.350000X0.650000X-0.350000X0.650000X-0.350000X-0.650000X0.350000X-0.650000X0*%
%TD*%
%TA.AperFunction,ConnectorPad*%
%ADD22C,0.787400*%
%TD*%
%TA.AperFunction,SMDPad,CuDef*%
%ADD23RoundRect,0.150000X-0.587500X-0.150000X0.587500X-0.150000X0.587500X0.150000X-0.587500X0.150000X0*%
%TD*%
%TA.AperFunction,SMDPad,CuDef*%
%ADD24RoundRect,0.150000X-0.625000X0.150000X-0.625000X-0.150000X0.625000X-0.150000X0.625000X0.150000X0*%
%TD*%
%TA.AperFunction,SMDPad,CuDef*%
%ADD25RoundRect,0.250000X-0.650000X0.350000X-0.650000X-0.350000X0.650000X-0.350000X0.650000X0.350000X0*%
%TD*%
%TA.AperFunction,ViaPad*%
%ADD26C,0.500000*%
%TD*%
%TA.AperFunction,Conductor*%
%ADD27C,0.150000*%
%TD*%
G04 APERTURE END LIST*
D10*
%TO.P,J1,S1*%
%TO.N,GND*%
X1595000Y-13320000D03*
D11*
X5775000Y-13320000D03*
D10*
X1595000Y-4680000D03*
D11*
X5775000Y-4680000D03*
%TD*%
D12*
%TO.P,R14,1*%
%TO.N,VBAT*%
X3990000Y-14500000D03*
%TO.P,R14,2*%
%TO.N,VBAT_SENSE*%
X5010000Y-14500000D03*
%TD*%
D13*
%TO.P,C6,1*%
%TO.N,+3V3*%
X32050000Y-3500000D03*
%TO.P,C6,2*%
%TO.N,GND*%
X33950000Y-3500000D03*
%TD*%
D14*
%TO.P,D3,1*%
%TO.N,VSYS*%
X19450000Y-13500000D03*
%TO.P,D3,2*%
%TO.N,MOTOR_N*%
X21550000Y-13500000D03*
%TD*%
D15*
%TO.P,U5,1*%
%TO.N,FLASH_CS*%
X24912500Y-10905000D03*
%TO.P,U5,2*%
%TO.N,FLASH_MISO*%
X24912500Y-9635000D03*
%TO.P,U5,3*%
%TO.N,+3V3*%
X24912500Y-8365000D03*
%TO.P,U5,4*%
%TO.N,GND*%
X24912500Y-7095000D03*
%TO.P,U5,5*%
%TO.N,FLASH_MOSI*%
X32087500Y-7095000D03*
%TO.P,U5,6*%
%TO.N,FLASH_SCK*%
X32087500Y-8365000D03*
%TO.P,U5,7*%
%TO.N,+3V3*%
X32087500Y-9635000D03*
%TO.P,U5,8*%
X32087500Y-10905000D03*
%TD*%
D12*
%TO.P,R12,1*%
%TO.N,HAPTIC_EN*%
X15090000Y-6800000D03*
%TO.P,R12,2*%
%TO.N,HAPTIC_G*%
X16110000Y-6800000D03*
%TD*%
%TO.P,R15,1*%
%TO.N,VBAT_SENSE*%
X3990000Y-16300000D03*
%TO.P,R15,2*%
%TO.N,GND*%
X5010000Y-16300000D03*
%TD*%
D16*
%TO.P,C9,1*%
%TO.N,+3V3*%
X19220000Y-15600000D03*
%TO.P,C9,2*%
%TO.N,GND*%
X20180000Y-15600000D03*
%TD*%
D13*
%TO.P,C8,1*%
%TO.N,+3V3*%
X25550000Y-13500000D03*
%TO.P,C8,2*%
%TO.N,GND*%
X27450000Y-13500000D03*
%TD*%
D16*
%TO.P,C11,1*%
%TO.N,+3V3*%
X28720000Y-4500000D03*
%TO.P,C11,2*%
%TO.N,GND*%
X29680000Y-4500000D03*
%TD*%
%TO.P,C7,1*%
%TO.N,+3V3*%
X32520000Y-14000000D03*
%TO.P,C7,2*%
%TO.N,GND*%
X33480000Y-14000000D03*
%TD*%
D17*
%TO.P,C13,1*%
%TO.N,VBAT_SENSE*%
X7000000Y-15980000D03*
%TO.P,C13,2*%
%TO.N,GND*%
X7000000Y-15020000D03*
%TD*%
D18*
%TO.P,U6,1*%
%TO.N,I2C_SCL*%
X21437500Y-9525000D03*
%TO.P,U6,2*%
%TO.N,I2C_SDA*%
X21437500Y-9175000D03*
%TO.P,U6,3*%
%TO.N,GND*%
X21437500Y-8825000D03*
%TO.P,U6,4*%
%TO.N,+3V3*%
X21437500Y-8475000D03*
D19*
%TO.P,U6,5*%
%TO.N,N/C*%
X21850000Y-8237500D03*
%TO.P,U6,6*%
%TO.N,ACC_INT1*%
X22200000Y-8237500D03*
%TO.P,U6,7*%
%TO.N,+3V3*%
X22550000Y-8237500D03*
D18*
%TO.P,U6,8*%
X22962500Y-8475000D03*
%TO.P,U6,9*%
%TO.N,GND*%
X22962500Y-8825000D03*
%TO.P,U6,10*%
X22962500Y-9175000D03*
%TO.P,U6,11*%
X22962500Y-9525000D03*
D19*
%TO.P,U6,12*%
X22550000Y-9762500D03*
%TO.P,U6,13*%
X22200000Y-9762500D03*
%TO.P,U6,14*%
X21850000Y-9762500D03*
%TD*%
D16*
%TO.P,C10,1*%
%TO.N,+3V3*%
X22920000Y-15600000D03*
%TO.P,C10,2*%
%TO.N,GND*%
X23880000Y-15600000D03*
%TD*%
D20*
%TO.P,J3,1*%
%TO.N,VSYS*%
X12500000Y-12900000D03*
%TO.P,J3,2*%
%TO.N,MOTOR_N*%
X11500000Y-12900000D03*
D21*
%TO.P,J3,MP*%
%TO.N,N/C*%
X13800000Y-16775000D03*
X10200000Y-16775000D03*
%TD*%
D22*
%TO.P,J4,1*%
%TO.N,+3V3*%
X34665000Y-9870000D03*
%TO.P,J4,2*%
%TO.N,SWDIO*%
X35935000Y-9870000D03*
%TO.P,J4,3*%
%TO.N,nRESET*%
X34665000Y-8600000D03*
%TO.P,J4,4*%
%TO.N,SWDCLK*%
X35935000Y-8600000D03*
%TO.P,J4,5*%
%TO.N,GND*%
X34665000Y-7330000D03*
%TO.P,J4,6*%
%TO.N,N/C*%
X35935000Y-7330000D03*
%TD*%
D16*
%TO.P,C12,1*%
%TO.N,+3V3*%
X23120000Y-5400000D03*
%TO.P,C12,2*%
%TO.N,GND*%
X24080000Y-5400000D03*
%TD*%
D23*
%TO.P,Q1,1*%
%TO.N,HAPTIC_G*%
X16562500Y-10450000D03*
%TO.P,Q1,2*%
%TO.N,GND*%
X16562500Y-8550000D03*
%TO.P,Q1,3*%
%TO.N,MOTOR_N*%
X18437500Y-9500000D03*
%TD*%
D12*
%TO.P,R13,1*%
%TO.N,HAPTIC_G*%
X15990000Y-13500000D03*
%TO.P,R13,2*%
%TO.N,GND*%
X17010000Y-13500000D03*
%TD*%
D24*
%TO.P,J2,1*%
%TO.N,VBAT*%
X9300000Y-6500000D03*
%TO.P,J2,2*%
%TO.N,BAT_TS*%
X9300000Y-7500000D03*
%TO.P,J2,3*%
%TO.N,GND*%
X9300000Y-8500000D03*
D25*
%TO.P,J2,MP*%
%TO.N,N/C*%
X13175000Y-5200000D03*
X13175000Y-9800000D03*
%TD*%
D12*
%TO.P,R8,1*%
%TO.N,I2C_SCL*%
X20990000Y-6500000D03*
%TO.P,R8,2*%
%TO.N,+3V3*%
X22010000Y-6500000D03*
%TD*%
%TO.P,R9,1*%
%TO.N,I2C_SDA*%
X20990000Y-11500000D03*
%TO.P,R9,2*%
%TO.N,+3V3*%
X22010000Y-11500000D03*
%TD*%
D26*
%TO.N,GND*%
X20000000Y-6000000D03*
X19680077Y-8686914D03*
X35000000Y-15500000D03*
X9000000Y-9500000D03*
X22880000Y-16930000D03*
X25265640Y-16399999D03*
X14963059Y-8225549D03*
X27465585Y-12842856D03*
X3000000Y-13000000D03*
X23874087Y-5349050D03*
X33000000Y-6000000D03*
X11000000Y-15500000D03*
X11011957Y-7209671D03*
X12000000Y-2500000D03*
X22448031Y-9595488D03*
X23757522Y-7814378D03*
X19231797Y-10391857D03*
X18000000Y-15500000D03*
X28000000Y-9500000D03*
X18196491Y-16485267D03*
X3000000Y-2500000D03*
%TO.N,VBAT_SENSE*%
X31332100Y-2529700D03*
%TO.N,ACC_INT1*%
X29219300Y-5569200D03*
X25259900Y-5844300D03*
%TO.N,I2C_SCL*%
X25163900Y-5103500D03*
%TO.N,I2C_SDA*%
X27946000Y-7159200D03*
%TO.N,+3V3*%
X21585200Y-7262400D03*
X27833400Y-4009700D03*
X19606600Y-14862700D03*
X23400000Y-14205100D03*
X30495800Y-9836300D03*
X31914100Y-14634700D03*
X21616100Y-14931700D03*
X21998000Y-5298900D03*
X22705700Y-11615700D03*
X25396500Y-11807700D03*
X33000000Y-3112500D03*
X19169700Y-3301100D03*
X18512000Y-4331700D03*
X23015600Y-7884600D03*
%TO.N,USB_DP*%
X27688000Y-14806000D03*
X14855400Y-9212500D03*
%TO.N,FLASH_SCK*%
X30065600Y-8504800D03*
%TO.N,FLASH_CS*%
X26692100Y-14790500D03*
%TO.N,FLASH_MISO*%
X28951200Y-11863400D03*
%TO.N,FLASH_MOSI*%
X30420300Y-15008800D03*
%TO.N,nRESET*%
X29977100Y-11099700D03*
%TO.N,LED_RED*%
X17177500Y-9644200D03*
X30887100Y-14395700D03*
X29028800Y-10998000D03*
%TO.N,LED_BLUE*%
X17908900Y-11756000D03*
X30632400Y-11862500D03*
%TO.N,HAPTIC_EN*%
X31207100Y-13748400D03*
%TO.N,nPGOOD*%
X33637000Y-15067700D03*
X19055000Y-7345000D03*
%TO.N,PDM_DATA*%
X23844600Y-13289800D03*
X25985200Y-16920000D03*
%TO.N,SWDIO*%
X35865100Y-14887500D03*
%TO.N,SWDCLK*%
X36667000Y-15202800D03*
%TO.N,BTN*%
X18050500Y-14116700D03*
X33073000Y-11862500D03*
%TO.N,USB_DP_CON*%
X8199999Y-9000000D03*
X3200000Y-8250000D03*
%TO.N,USB_DN_CON*%
X2282200Y-9612500D03*
X6236000Y-10295000D03*
%TO.N,USB_CC2*%
X5182400Y-7038800D03*
X6926700Y-10887700D03*
%TO.N,BAT_TS*%
X10648700Y-5326300D03*
%TO.N,VBAT*%
X19000000Y-8159100D03*
X12054000Y-6126600D03*
%TO.N,VSYS*%
X10350400Y-13150500D03*
X19297500Y-5258300D03*
X13403600Y-8001300D03*
X17041600Y-5319100D03*
%TD*%
D27*
%TO.N,GND*%
X23880000Y-15600000D02*
X25265640Y-16399999D01*
X20180000Y-15600000D02*
X20385212Y-16163815D01*
%TO.N,VBAT_SENSE*%
X5400000Y-14890000D02*
X6490000Y-15980000D01*
X4638700Y-13032400D02*
X4638700Y-14128700D01*
X17733100Y-2529700D02*
X7728700Y-12534100D01*
X5137000Y-12534100D02*
X4638700Y-13032400D01*
X7728700Y-12534100D02*
X5137000Y-12534100D01*
X5400000Y-14890000D02*
X5010000Y-14500000D01*
X4638700Y-14128700D02*
X5010000Y-14500000D01*
X5400000Y-14890000D02*
X3990000Y-16300000D01*
X6490000Y-15980000D02*
X7000000Y-15980000D01*
X31332100Y-2529700D02*
X17733100Y-2529700D01*
%TO.N,ACC_INT1*%
X25259900Y-5844300D02*
X25190000Y-5914200D01*
X24341100Y-5914200D02*
X22200000Y-8055300D01*
X25190000Y-5914200D02*
X24341100Y-5914200D01*
X22200000Y-8055300D02*
X22200000Y-8237500D01*
%TO.N,I2C_SCL*%
X25957800Y-8662000D02*
X25957800Y-5897400D01*
X22056800Y-5900000D02*
X22532000Y-5424800D01*
X21590000Y-5900000D02*
X22056800Y-5900000D01*
X22782500Y-4868400D02*
X24928800Y-4868400D01*
X25957800Y-5897400D02*
X25163900Y-5103500D01*
X22973600Y-10146700D02*
X24120300Y-9000000D01*
X24120300Y-9000000D02*
X25619800Y-9000000D01*
X21687400Y-10146700D02*
X22973600Y-10146700D01*
X22532000Y-5424800D02*
X22532000Y-5118900D01*
X20990000Y-6500000D02*
X21590000Y-5900000D01*
X21437500Y-9525000D02*
X21437500Y-9896800D01*
X21437500Y-9896800D02*
X21687400Y-10146700D01*
X25619800Y-9000000D02*
X25957800Y-8662000D01*
X22532000Y-5118900D02*
X22782500Y-4868400D01*
X24928800Y-4868400D02*
X25163900Y-5103500D01*
%TO.N,I2C_SDA*%
X25334400Y-4547600D02*
X27946000Y-7159200D01*
X20990000Y-9451000D02*
X20990000Y-11500000D01*
X21437500Y-9175000D02*
X21266000Y-9175000D01*
X20498800Y-6144600D02*
X22095800Y-4547600D01*
X21266000Y-9175000D02*
X20498800Y-8407800D01*
X22095800Y-4547600D02*
X25334400Y-4547600D01*
X20498800Y-8407800D02*
X20498800Y-6144600D01*
X21266000Y-9175000D02*
X20990000Y-9451000D01*
%TO.N,+3V3*%
X34531200Y-9736200D02*
X34665000Y-9870000D01*
X22705700Y-11615700D02*
X22590000Y-11500000D01*
X22251700Y-14931700D02*
X22920000Y-15600000D01*
X24844900Y-14205100D02*
X25550000Y-13500000D01*
X32087500Y-9736200D02*
X32087500Y-9635000D01*
X23015600Y-7884600D02*
X22725000Y-8175200D01*
X19606600Y-14862700D02*
X19606600Y-15213400D01*
X31986200Y-9837500D02*
X32087500Y-9938800D01*
X22725000Y-8175200D02*
X22725000Y-8237500D01*
X23072500Y-8365000D02*
X24912500Y-8365000D01*
X23110000Y-5400000D02*
X23120000Y-5400000D01*
X30495800Y-9836300D02*
X30497000Y-9837500D01*
X31914100Y-14605900D02*
X32520000Y-14000000D01*
X22962500Y-8475000D02*
X23072500Y-8365000D01*
X27833400Y-4009700D02*
X28323700Y-4500000D01*
X22590000Y-11500000D02*
X22010000Y-11500000D01*
X19606600Y-15213400D02*
X19220000Y-15600000D01*
X28323700Y-4500000D02*
X28720000Y-4500000D01*
X33000000Y-3112500D02*
X32437500Y-3112500D01*
X31986200Y-9837500D02*
X32087500Y-9736200D01*
X21616100Y-14931700D02*
X22251700Y-14931700D01*
X21585200Y-7262400D02*
X22010000Y-6837600D01*
X22725000Y-8237500D02*
X22962500Y-8475000D01*
X21437500Y-8475000D02*
X21437500Y-7410100D01*
X22010000Y-6500000D02*
X23110000Y-5400000D01*
X32437500Y-3112500D02*
X32050000Y-3500000D01*
X23400000Y-14205100D02*
X24844900Y-14205100D01*
X30497000Y-9837500D02*
X31986200Y-9837500D01*
X32087500Y-9736200D02*
X34531200Y-9736200D01*
X22550000Y-8237500D02*
X22725000Y-8237500D01*
X31914100Y-14634700D02*
X31914100Y-14605900D01*
X21437500Y-7410100D02*
X21585200Y-7262400D01*
X32087500Y-9938800D02*
X32087500Y-10905000D01*
X22010000Y-6837600D02*
X22010000Y-6500000D01*
%TO.N,FLASH_SCK*%
X31947700Y-8504800D02*
X30065600Y-8504800D01*
X32087500Y-8365000D02*
X31947700Y-8504800D01*
%TO.N,FLASH_CS*%
X26692100Y-12423200D02*
X25173900Y-10905000D01*
X26692100Y-14790500D02*
X26692100Y-12423200D01*
X25173900Y-10905000D02*
X24912500Y-10905000D01*
%TO.N,FLASH_MISO*%
X26722800Y-9635000D02*
X28951200Y-11863400D01*
X24912500Y-9635000D02*
X26722800Y-9635000D01*
%TO.N,FLASH_MOSI*%
X32087500Y-7095000D02*
X30825800Y-7095000D01*
X30825800Y-7095000D02*
X29523400Y-8397400D01*
X29523400Y-14111900D02*
X30420300Y-15008800D01*
X29523400Y-8397400D02*
X29523400Y-14111900D01*
%TO.N,nRESET*%
X30767100Y-8894300D02*
X29977100Y-9684300D01*
X34370700Y-8894300D02*
X30767100Y-8894300D01*
X29977100Y-9684300D02*
X29977100Y-11099700D01*
X34665000Y-8600000D02*
X34370700Y-8894300D01*
%TO.N,HAPTIC_EN*%
X20515800Y-11831500D02*
X21746900Y-13062600D01*
X26605500Y-15464200D02*
X30610900Y-15464200D01*
X15090000Y-6800000D02*
X15899500Y-7609500D01*
X21927400Y-13062600D02*
X22864900Y-14000100D01*
X31340800Y-13882100D02*
X31207100Y-13748400D01*
X30610900Y-15464200D02*
X31340800Y-14734300D01*
X17783500Y-7609500D02*
X18986300Y-8812300D01*
X25997200Y-14855900D02*
X26605500Y-15464200D01*
X18986300Y-8812300D02*
X19084200Y-8812300D01*
X22864900Y-14327900D02*
X23392900Y-14855900D01*
X21746900Y-13062600D02*
X21927400Y-13062600D01*
X15899500Y-7609500D02*
X17783500Y-7609500D01*
X22864900Y-14000100D02*
X22864900Y-14327900D01*
X19084200Y-8812300D02*
X20515800Y-10243900D01*
X20515800Y-10243900D02*
X20515800Y-11831500D01*
X31340800Y-14734300D02*
X31340800Y-13882100D01*
X23392900Y-14855900D02*
X25997200Y-14855900D01*
%TO.N,SWDIO*%
X36257500Y-14495100D02*
X36257500Y-10192500D01*
X35865100Y-14887500D02*
X36257500Y-14495100D01*
X36257500Y-10192500D02*
X35935000Y-9870000D01*
%TO.N,SWDCLK*%
X36667000Y-9332000D02*
X36667000Y-15202800D01*
X35935000Y-8600000D02*
X36667000Y-9332000D01*
%TO.N,BAT_TS*%
X9666700Y-7500000D02*
X10648700Y-6518000D01*
X10648700Y-6518000D02*
X10648700Y-5326300D01*
X9300000Y-7500000D02*
X9666700Y-7500000D01*
%TO.N,VBAT*%
X3990000Y-10525400D02*
X3990000Y-14500000D01*
X9300000Y-6500000D02*
X8015400Y-6500000D01*
X8015400Y-6500000D02*
X3990000Y-10525400D01*
X12054000Y-6083400D02*
X10843100Y-4872500D01*
X9300000Y-5983100D02*
X9300000Y-6500000D01*
X10410600Y-4872500D02*
X9300000Y-5983100D01*
X10843100Y-4872500D02*
X10410600Y-4872500D01*
X12054000Y-6126600D02*
X12054000Y-6083400D01*
%TO.N,VSYS*%
X11085200Y-13885300D02*
X10350400Y-13150500D01*
X11815100Y-13885300D02*
X11085200Y-13885300D01*
X12500000Y-12900000D02*
X12500000Y-13200400D01*
X15338500Y-5319100D02*
X17041600Y-5319100D01*
X12500000Y-12900000D02*
X18850000Y-12900000D01*
X18850000Y-12900000D02*
X19450000Y-13500000D01*
X12500000Y-13200400D02*
X11815100Y-13885300D01*
X13403600Y-7254000D02*
X15338500Y-5319100D01*
X13403600Y-8001300D02*
X13403600Y-7254000D01*
%TO.N,HAPTIC_G*%
X14815400Y-9814100D02*
X15926600Y-9814100D01*
X15990000Y-13500000D02*
X13842200Y-13500000D01*
X14401700Y-9400400D02*
X14401700Y-6650100D01*
X13181600Y-11447900D02*
X14815400Y-9814100D01*
X14786500Y-6265300D02*
X15575300Y-6265300D01*
X13143300Y-14198900D02*
X10688200Y-14198900D01*
X14401700Y-6650100D02*
X14786500Y-6265300D01*
X11362100Y-11447900D02*
X13181600Y-11447900D01*
X13842200Y-13500000D02*
X13143300Y-14198900D01*
X9880400Y-12929600D02*
X11362100Y-11447900D01*
X9880400Y-13391100D02*
X9880400Y-12929600D01*
X15926600Y-9814100D02*
X16562500Y-10450000D01*
X14815400Y-9814100D02*
X14401700Y-9400400D01*
X15575300Y-6265300D02*
X16110000Y-6800000D01*
X10688200Y-14198900D02*
X9880400Y-13391100D01*
%TO.N,MOTOR_N*%
X18860100Y-10810100D02*
X18437500Y-10810100D01*
X12336600Y-11726600D02*
X11500000Y-12563200D01*
X17008400Y-11726600D02*
X12336600Y-11726600D01*
X17924900Y-10810100D02*
X17008400Y-11726600D01*
X11500000Y-12563200D02*
X11500000Y-12900000D01*
X18437500Y-10810100D02*
X17924900Y-10810100D01*
X21550000Y-13500000D02*
X18860100Y-10810100D01*
X18437500Y-10810100D02*
X18437500Y-9500000D01*
%TD*%
%TA.AperFunction,Conductor*%
%TO.N,GND*%
G36*
X23927826Y-9616029D02*
G01*
X23949500Y-9668355D01*
X23949500Y-9834177D01*
X23955500Y-9879758D01*
X23955501Y-9879760D01*
X24002150Y-9979799D01*
X24080201Y-10057850D01*
X24180240Y-10104499D01*
X24225821Y-10110500D01*
X25599178Y-10110499D01*
X25644760Y-10104499D01*
X25744799Y-10057850D01*
X25822850Y-9979799D01*
X25858556Y-9903226D01*
X25900313Y-9864963D01*
X25925623Y-9860500D01*
X26598743Y-9860500D01*
X26651069Y-9882174D01*
X28529026Y-11760131D01*
X28550700Y-11812457D01*
X28550700Y-11916129D01*
X28577991Y-12017982D01*
X28577995Y-12017991D01*
X28630200Y-12108413D01*
X28630720Y-12109313D01*
X28705287Y-12183880D01*
X28796613Y-12236607D01*
X28898470Y-12263899D01*
X28898471Y-12263900D01*
X28898473Y-12263900D01*
X29003929Y-12263900D01*
X29003929Y-12263899D01*
X29105787Y-12236607D01*
X29186901Y-12189775D01*
X29243052Y-12182383D01*
X29287986Y-12216862D01*
X29297900Y-12253862D01*
X29297900Y-14061073D01*
X29297899Y-14061087D01*
X29297899Y-14156755D01*
X29312196Y-14191270D01*
X29332229Y-14239634D01*
X29332231Y-14239637D01*
X29406071Y-14313477D01*
X29406073Y-14313478D01*
X29998126Y-14905531D01*
X30019800Y-14957857D01*
X30019800Y-15061529D01*
X30033051Y-15110980D01*
X30041447Y-15142317D01*
X30042313Y-15145547D01*
X30034921Y-15201700D01*
X29989988Y-15236178D01*
X29970835Y-15238700D01*
X28000345Y-15238700D01*
X27948019Y-15217026D01*
X27926345Y-15164700D01*
X27948019Y-15112374D01*
X27975741Y-15084652D01*
X28008480Y-15051913D01*
X28061207Y-14960587D01*
X28088499Y-14858729D01*
X28088500Y-14858729D01*
X28088500Y-14753271D01*
X28088499Y-14753270D01*
X28088023Y-14751495D01*
X28061207Y-14651413D01*
X28008480Y-14560087D01*
X27933913Y-14485520D01*
X27893522Y-14462200D01*
X27842591Y-14432795D01*
X27842582Y-14432791D01*
X27740729Y-14405500D01*
X27740727Y-14405500D01*
X27635273Y-14405500D01*
X27635271Y-14405500D01*
X27533417Y-14432791D01*
X27533408Y-14432795D01*
X27442086Y-14485520D01*
X27367520Y-14560086D01*
X27314795Y-14651408D01*
X27314791Y-14651417D01*
X27287500Y-14753270D01*
X27287500Y-14858729D01*
X27314791Y-14960582D01*
X27314795Y-14960591D01*
X27367520Y-15051913D01*
X27427981Y-15112374D01*
X27449655Y-15164700D01*
X27427981Y-15217026D01*
X27375655Y-15238700D01*
X26988945Y-15238700D01*
X26936619Y-15217026D01*
X26914945Y-15164700D01*
X26936619Y-15112374D01*
X26967593Y-15081400D01*
X27012580Y-15036413D01*
X27065307Y-14945087D01*
X27092599Y-14843229D01*
X27092600Y-14843229D01*
X27092600Y-14737771D01*
X27092599Y-14737770D01*
X27090995Y-14731785D01*
X27065307Y-14635913D01*
X27012580Y-14544587D01*
X26939274Y-14471281D01*
X26917600Y-14418955D01*
X26917600Y-12476675D01*
X26917601Y-12476666D01*
X26917601Y-12378346D01*
X26917601Y-12378345D01*
X26888711Y-12308600D01*
X26883270Y-12295464D01*
X26819836Y-12232030D01*
X26819834Y-12232029D01*
X25864180Y-11276375D01*
X25842506Y-11224049D01*
X25849439Y-11192776D01*
X25869499Y-11149760D01*
X25875500Y-11104179D01*
X25875499Y-10705822D01*
X25869499Y-10660240D01*
X25822850Y-10560201D01*
X25744799Y-10482150D01*
X25644760Y-10435501D01*
X25644758Y-10435500D01*
X25611179Y-10431079D01*
X25599179Y-10429500D01*
X25599177Y-10429500D01*
X24225822Y-10429500D01*
X24180241Y-10435500D01*
X24180239Y-10435501D01*
X24080200Y-10482150D01*
X24002150Y-10560200D01*
X23955500Y-10660241D01*
X23949500Y-10705822D01*
X23949500Y-11104177D01*
X23955500Y-11149758D01*
X23955501Y-11149760D01*
X24002150Y-11249799D01*
X24080201Y-11327850D01*
X24180240Y-11374499D01*
X24225821Y-11380500D01*
X25078655Y-11380499D01*
X25130981Y-11402173D01*
X25152655Y-11454499D01*
X25130981Y-11506824D01*
X25076021Y-11561784D01*
X25023295Y-11653108D01*
X25023291Y-11653117D01*
X24996000Y-11754970D01*
X24996000Y-11860429D01*
X25023291Y-11962282D01*
X25023295Y-11962291D01*
X25046171Y-12001913D01*
X25076020Y-12053613D01*
X25150587Y-12128180D01*
X25241913Y-12180907D01*
X25343770Y-12208199D01*
X25343771Y-12208200D01*
X25343773Y-12208200D01*
X25449229Y-12208200D01*
X25449229Y-12208199D01*
X25551087Y-12180907D01*
X25642413Y-12128180D01*
X25716980Y-12053613D01*
X25765656Y-11969303D01*
X25772132Y-11958087D01*
X25773819Y-11959061D01*
X25809114Y-11923749D01*
X25865751Y-11923733D01*
X25889777Y-11939782D01*
X26444926Y-12494931D01*
X26466600Y-12547257D01*
X26466600Y-14418955D01*
X26444926Y-14471281D01*
X26371620Y-14544586D01*
X26318895Y-14635908D01*
X26318891Y-14635917D01*
X26304988Y-14687805D01*
X26296173Y-14699291D01*
X26292519Y-14713306D01*
X26279613Y-14720872D01*
X26270509Y-14732738D01*
X26256153Y-14734627D01*
X26243660Y-14741953D01*
X26231505Y-14737872D01*
X26214357Y-14740130D01*
X26188856Y-14727661D01*
X26184790Y-14724584D01*
X26124936Y-14664730D01*
X26091197Y-14650755D01*
X26082428Y-14647122D01*
X26082426Y-14647121D01*
X26042055Y-14630399D01*
X25952345Y-14630399D01*
X25943733Y-14630399D01*
X25943725Y-14630400D01*
X23719745Y-14630400D01*
X23667419Y-14608726D01*
X23645745Y-14556400D01*
X23667419Y-14504074D01*
X23719219Y-14452274D01*
X23771545Y-14430600D01*
X24791425Y-14430600D01*
X24791433Y-14430601D01*
X24800045Y-14430601D01*
X24889754Y-14430601D01*
X24889755Y-14430601D01*
X24948360Y-14406325D01*
X24972636Y-14396270D01*
X25029603Y-14339302D01*
X25033141Y-14336534D01*
X25056423Y-14330056D01*
X25078747Y-14320809D01*
X25084605Y-14322215D01*
X25087705Y-14321353D01*
X25092654Y-14324147D01*
X25112341Y-14328874D01*
X25174696Y-14360646D01*
X25268481Y-14375500D01*
X25831518Y-14375499D01*
X25831519Y-14375499D01*
X25925304Y-14360646D01*
X25925306Y-14360645D01*
X25954578Y-14345730D01*
X26038342Y-14303050D01*
X26128050Y-14213342D01*
X26185646Y-14100304D01*
X26200500Y-14006519D01*
X26200499Y-12993482D01*
X26198849Y-12983066D01*
X26185646Y-12899695D01*
X26185645Y-12899693D01*
X26128049Y-12786657D01*
X26038343Y-12696951D01*
X26038342Y-12696950D01*
X25925304Y-12639354D01*
X25925302Y-12639353D01*
X25925301Y-12639353D01*
X25831519Y-12624500D01*
X25268480Y-12624500D01*
X25174695Y-12639353D01*
X25174693Y-12639354D01*
X25061657Y-12696950D01*
X24971951Y-12786656D01*
X24914353Y-12899698D01*
X24899500Y-12993480D01*
X24899500Y-13800942D01*
X24877826Y-13853268D01*
X24773169Y-13957926D01*
X24720843Y-13979600D01*
X23771545Y-13979600D01*
X23719219Y-13957926D01*
X23645913Y-13884620D01*
X23554591Y-13831895D01*
X23554582Y-13831891D01*
X23452729Y-13804600D01*
X23452727Y-13804600D01*
X23347273Y-13804600D01*
X23347271Y-13804600D01*
X23245417Y-13831891D01*
X23245408Y-13831895D01*
X23149887Y-13887045D01*
X23148505Y-13884652D01*
X23133997Y-13888527D01*
X23111999Y-13897640D01*
X23107247Y-13895671D01*
X23102279Y-13896999D01*
X23059672Y-13875966D01*
X23030780Y-13847074D01*
X22992636Y-13808930D01*
X22992634Y-13808929D01*
X22420775Y-13237070D01*
X23444100Y-13237070D01*
X23444100Y-13342529D01*
X23471391Y-13444382D01*
X23471392Y-13444385D01*
X23471393Y-13444387D01*
X23524120Y-13535713D01*
X23598687Y-13610280D01*
X23690013Y-13663007D01*
X23791870Y-13690299D01*
X23791871Y-13690300D01*
X23791873Y-13690300D01*
X23897329Y-13690300D01*
X23897329Y-13690299D01*
X23999187Y-13663007D01*
X24090513Y-13610280D01*
X24165080Y-13535713D01*
X24217807Y-13444387D01*
X24245099Y-13342529D01*
X24245100Y-13342529D01*
X24245100Y-13237071D01*
X24245099Y-13237070D01*
X24234600Y-13197888D01*
X24217807Y-13135213D01*
X24165080Y-13043887D01*
X24090513Y-12969320D01*
X23999191Y-12916595D01*
X23999182Y-12916591D01*
X23897329Y-12889300D01*
X23897327Y-12889300D01*
X23791873Y-12889300D01*
X23791871Y-12889300D01*
X23690017Y-12916591D01*
X23690008Y-12916595D01*
X23598686Y-12969320D01*
X23524120Y-13043886D01*
X23471395Y-13135208D01*
X23471391Y-13135217D01*
X23444100Y-13237070D01*
X22420775Y-13237070D01*
X22128978Y-12945273D01*
X22128978Y-12945272D01*
X22055138Y-12871432D01*
X22055136Y-12871430D01*
X22030860Y-12861374D01*
X22030858Y-12861373D01*
X22030858Y-12861372D01*
X21972255Y-12837099D01*
X21882545Y-12837099D01*
X21873933Y-12837099D01*
X21873925Y-12837100D01*
X21870958Y-12837100D01*
X21818632Y-12815426D01*
X21468705Y-12465499D01*
X21100029Y-12096824D01*
X21078356Y-12044499D01*
X21100030Y-11992173D01*
X21152356Y-11970499D01*
X21167622Y-11970499D01*
X21191498Y-11967730D01*
X21289141Y-11924616D01*
X21364616Y-11849141D01*
X21407730Y-11751498D01*
X21410500Y-11727623D01*
X21410499Y-11272380D01*
X21589500Y-11272380D01*
X21589500Y-11727622D01*
X21592269Y-11751495D01*
X21592269Y-11751497D01*
X21592270Y-11751498D01*
X21635384Y-11849141D01*
X21710859Y-11924616D01*
X21808502Y-11967730D01*
X21832377Y-11970500D01*
X22187622Y-11970499D01*
X22211498Y-11967730D01*
X22309141Y-11924616D01*
X22326356Y-11907400D01*
X22378678Y-11885726D01*
X22431005Y-11907398D01*
X22459787Y-11936180D01*
X22551113Y-11988907D01*
X22652970Y-12016199D01*
X22652971Y-12016200D01*
X22652973Y-12016200D01*
X22758429Y-12016200D01*
X22758429Y-12016199D01*
X22860287Y-11988907D01*
X22951613Y-11936180D01*
X23026180Y-11861613D01*
X23078907Y-11770287D01*
X23106199Y-11668429D01*
X23106200Y-11668429D01*
X23106200Y-11562971D01*
X23106199Y-11562970D01*
X23085551Y-11485911D01*
X23078907Y-11461113D01*
X23026180Y-11369787D01*
X22951613Y-11295220D01*
X22927849Y-11281500D01*
X22860291Y-11242495D01*
X22860282Y-11242491D01*
X22758429Y-11215200D01*
X22758427Y-11215200D01*
X22652973Y-11215200D01*
X22652971Y-11215200D01*
X22551117Y-11242491D01*
X22551110Y-11242494D01*
X22522072Y-11259259D01*
X22465920Y-11266650D01*
X22420987Y-11232170D01*
X22417387Y-11225079D01*
X22384616Y-11150859D01*
X22309141Y-11075384D01*
X22211498Y-11032270D01*
X22187623Y-11029500D01*
X22187619Y-11029500D01*
X21832377Y-11029500D01*
X21808504Y-11032269D01*
X21710858Y-11075384D01*
X21635385Y-11150857D01*
X21592270Y-11248501D01*
X21591599Y-11254282D01*
X21590165Y-11266650D01*
X21589500Y-11272380D01*
X21410499Y-11272380D01*
X21410499Y-11272378D01*
X21407730Y-11248502D01*
X21364616Y-11150859D01*
X21289141Y-11075384D01*
X21289140Y-11075383D01*
X21259608Y-11062343D01*
X21220496Y-11021379D01*
X21215500Y-10994649D01*
X21215500Y-10172357D01*
X21237174Y-10120031D01*
X21289500Y-10098357D01*
X21341826Y-10120031D01*
X21496229Y-10274434D01*
X21496230Y-10274436D01*
X21559664Y-10337870D01*
X21575514Y-10344435D01*
X21642545Y-10372201D01*
X21642546Y-10372201D01*
X21740867Y-10372201D01*
X21740875Y-10372200D01*
X22920125Y-10372200D01*
X22920133Y-10372201D01*
X22928745Y-10372201D01*
X23018454Y-10372201D01*
X23018455Y-10372201D01*
X23085486Y-10344435D01*
X23101336Y-10337870D01*
X23164770Y-10274436D01*
X23164770Y-10274434D01*
X23823175Y-9616028D01*
X23875500Y-9594355D01*
X23927826Y-9616029D01*
G37*
%TD.AperFunction*%
%TA.AperFunction,Conductor*%
G36*
X11115283Y-5467154D02*
G01*
X11130609Y-5478914D01*
X11638519Y-5986824D01*
X11660193Y-6039150D01*
X11657672Y-6058301D01*
X11653500Y-6073872D01*
X11653500Y-6179329D01*
X11680791Y-6281182D01*
X11680795Y-6281191D01*
X11696753Y-6308831D01*
X11733520Y-6372513D01*
X11808087Y-6447080D01*
X11899413Y-6499807D01*
X12001270Y-6527099D01*
X12001271Y-6527100D01*
X12001273Y-6527100D01*
X12106729Y-6527100D01*
X12106729Y-6527099D01*
X12208587Y-6499807D01*
X12299913Y-6447080D01*
X12374480Y-6372513D01*
X12427207Y-6281187D01*
X12454499Y-6179329D01*
X12454500Y-6179329D01*
X12454500Y-6073874D01*
X12454500Y-6073873D01*
X12446402Y-6043651D01*
X12453795Y-5987499D01*
X12498728Y-5953020D01*
X12517873Y-5950499D01*
X13814743Y-5950499D01*
X13867069Y-5972173D01*
X13888743Y-6024499D01*
X13867069Y-6076825D01*
X7656969Y-12286926D01*
X7604643Y-12308600D01*
X5190475Y-12308600D01*
X5190467Y-12308599D01*
X5181855Y-12308599D01*
X5092146Y-12308599D01*
X5043594Y-12328708D01*
X5043595Y-12328709D01*
X5009267Y-12342928D01*
X5009265Y-12342929D01*
X4447531Y-12904663D01*
X4447529Y-12904664D01*
X4439107Y-12924999D01*
X4413199Y-12987545D01*
X4413199Y-13085866D01*
X4413200Y-13085875D01*
X4413200Y-14020791D01*
X4391526Y-14073117D01*
X4339200Y-14094791D01*
X4304751Y-14086284D01*
X4294814Y-14081057D01*
X4289141Y-14075384D01*
X4257296Y-14061323D01*
X4255051Y-14060142D01*
X4238437Y-14040170D01*
X4220496Y-14021379D01*
X4219826Y-14017796D01*
X4218831Y-14016600D01*
X4219085Y-14013830D01*
X4215500Y-13994649D01*
X4215500Y-10649457D01*
X4237174Y-10597131D01*
X4592035Y-10242270D01*
X5835500Y-10242270D01*
X5835500Y-10347729D01*
X5862791Y-10449582D01*
X5862795Y-10449591D01*
X5905094Y-10522854D01*
X5915520Y-10540913D01*
X5990087Y-10615480D01*
X6081413Y-10668207D01*
X6183270Y-10695499D01*
X6183271Y-10695500D01*
X6183273Y-10695500D01*
X6288729Y-10695500D01*
X6288729Y-10695499D01*
X6390587Y-10668207D01*
X6451983Y-10632759D01*
X6508135Y-10625366D01*
X6553068Y-10659844D01*
X6560462Y-10715997D01*
X6555249Y-10728585D01*
X6555351Y-10728628D01*
X6553491Y-10733117D01*
X6526200Y-10834970D01*
X6526200Y-10940429D01*
X6553491Y-11042282D01*
X6553495Y-11042291D01*
X6572602Y-11075385D01*
X6606220Y-11133613D01*
X6680787Y-11208180D01*
X6772113Y-11260907D01*
X6873970Y-11288199D01*
X6873971Y-11288200D01*
X6873973Y-11288200D01*
X6979429Y-11288200D01*
X6979429Y-11288199D01*
X7081287Y-11260907D01*
X7172613Y-11208180D01*
X7247180Y-11133613D01*
X7299907Y-11042287D01*
X7327199Y-10940429D01*
X7327200Y-10940429D01*
X7327200Y-10834971D01*
X7327199Y-10834970D01*
X7310531Y-10772765D01*
X7299907Y-10733113D01*
X7247180Y-10641787D01*
X7172613Y-10567220D01*
X7160454Y-10560200D01*
X7081291Y-10514495D01*
X7081282Y-10514491D01*
X6979429Y-10487200D01*
X6979427Y-10487200D01*
X6873973Y-10487200D01*
X6873971Y-10487200D01*
X6772117Y-10514491D01*
X6772108Y-10514495D01*
X6710716Y-10549940D01*
X6654563Y-10557332D01*
X6609630Y-10522854D01*
X6602238Y-10466701D01*
X6607451Y-10454114D01*
X6607349Y-10454072D01*
X6609203Y-10449593D01*
X6609207Y-10449587D01*
X6636499Y-10347729D01*
X6636500Y-10347729D01*
X6636500Y-10242271D01*
X6636499Y-10242270D01*
X6635033Y-10236800D01*
X6609207Y-10140413D01*
X6556480Y-10049087D01*
X6481913Y-9974520D01*
X6459708Y-9961700D01*
X6390591Y-9921795D01*
X6390582Y-9921791D01*
X6288729Y-9894500D01*
X6288727Y-9894500D01*
X6183273Y-9894500D01*
X6183271Y-9894500D01*
X6081417Y-9921791D01*
X6081408Y-9921795D01*
X5990086Y-9974520D01*
X5915520Y-10049086D01*
X5862795Y-10140408D01*
X5862791Y-10140417D01*
X5835500Y-10242270D01*
X4592035Y-10242270D01*
X5887035Y-8947270D01*
X7799499Y-8947270D01*
X7799499Y-9052729D01*
X7826790Y-9154582D01*
X7826794Y-9154591D01*
X7855472Y-9204263D01*
X7879519Y-9245913D01*
X7954086Y-9320480D01*
X8045412Y-9373207D01*
X8147269Y-9400499D01*
X8147270Y-9400500D01*
X8147272Y-9400500D01*
X8252728Y-9400500D01*
X8252728Y-9400499D01*
X8354586Y-9373207D01*
X8445912Y-9320480D01*
X8520479Y-9245913D01*
X8573206Y-9154587D01*
X8600498Y-9052729D01*
X8600499Y-9052729D01*
X8600499Y-8947271D01*
X8600498Y-8947270D01*
X8588589Y-8902826D01*
X8573206Y-8845413D01*
X8520479Y-8754087D01*
X8445912Y-8679520D01*
X8428647Y-8669552D01*
X8354590Y-8626795D01*
X8354581Y-8626791D01*
X8252728Y-8599500D01*
X8252726Y-8599500D01*
X8147272Y-8599500D01*
X8147270Y-8599500D01*
X8045416Y-8626791D01*
X8045407Y-8626795D01*
X7954085Y-8679520D01*
X7879519Y-8754086D01*
X7826794Y-8845408D01*
X7826790Y-8845417D01*
X7799499Y-8947270D01*
X5887035Y-8947270D01*
X8087131Y-6747174D01*
X8139457Y-6725500D01*
X8331629Y-6725500D01*
X8383955Y-6747174D01*
X8399322Y-6769608D01*
X8422794Y-6822765D01*
X8502235Y-6902206D01*
X8552989Y-6924616D01*
X8570403Y-6932305D01*
X8609516Y-6973268D01*
X8608208Y-7029890D01*
X8570403Y-7067695D01*
X8502234Y-7097794D01*
X8422794Y-7177234D01*
X8377414Y-7280011D01*
X8374500Y-7305135D01*
X8374500Y-7694863D01*
X8377414Y-7719986D01*
X8377415Y-7719992D01*
X8412856Y-7800257D01*
X8422794Y-7822765D01*
X8502235Y-7902206D01*
X8605009Y-7947585D01*
X8630135Y-7950500D01*
X9969864Y-7950499D01*
X9994991Y-7947585D01*
X10097765Y-7902206D01*
X10177206Y-7822765D01*
X10222585Y-7719991D01*
X10225500Y-7694865D01*
X10225499Y-7305136D01*
X10224942Y-7300334D01*
X10240438Y-7245863D01*
X10246113Y-7239490D01*
X10766027Y-6719577D01*
X10766030Y-6719575D01*
X10776435Y-6709170D01*
X10776436Y-6709170D01*
X10839870Y-6645736D01*
X10869377Y-6574499D01*
X10874201Y-6562854D01*
X10874201Y-6473145D01*
X10874200Y-6473142D01*
X10874200Y-5697845D01*
X10895874Y-5645519D01*
X10928024Y-5613369D01*
X10969180Y-5572213D01*
X11014198Y-5494239D01*
X11059130Y-5459762D01*
X11115283Y-5467154D01*
G37*
%TD.AperFunction*%
%TA.AperFunction,Conductor*%
G36*
X19451825Y-9498830D02*
G01*
X20268626Y-10315631D01*
X20290300Y-10367957D01*
X20290300Y-11742743D01*
X20268626Y-11795069D01*
X20216300Y-11816743D01*
X20163974Y-11795069D01*
X19061678Y-10692773D01*
X19061678Y-10692772D01*
X18987838Y-10618932D01*
X18987837Y-10618931D01*
X18987836Y-10618930D01*
X18987535Y-10618805D01*
X18963558Y-10608873D01*
X18963558Y-10608872D01*
X18904955Y-10584599D01*
X18815245Y-10584599D01*
X18806633Y-10584599D01*
X18806625Y-10584600D01*
X18737000Y-10584600D01*
X18684674Y-10562926D01*
X18663000Y-10510600D01*
X18663000Y-10024499D01*
X18684674Y-9972173D01*
X18737000Y-9950499D01*
X19069863Y-9950499D01*
X19069864Y-9950499D01*
X19094991Y-9947585D01*
X19197765Y-9902206D01*
X19277206Y-9822765D01*
X19322585Y-9719991D01*
X19325500Y-9694865D01*
X19325499Y-9551155D01*
X19347173Y-9498830D01*
X19399498Y-9477156D01*
X19451825Y-9498830D01*
G37*
%TD.AperFunction*%
%TA.AperFunction,Conductor*%
G36*
X14753526Y-7187283D02*
G01*
X14790859Y-7224616D01*
X14888502Y-7267730D01*
X14912377Y-7270500D01*
X15210942Y-7270499D01*
X15263268Y-7292173D01*
X15708329Y-7737234D01*
X15708330Y-7737236D01*
X15771764Y-7800670D01*
X15796039Y-7810725D01*
X15854645Y-7835001D01*
X15854646Y-7835001D01*
X15952967Y-7835001D01*
X15952975Y-7835000D01*
X17659443Y-7835000D01*
X17711769Y-7856674D01*
X18778269Y-8923174D01*
X18799943Y-8975500D01*
X18778269Y-9027826D01*
X18725943Y-9049500D01*
X17805136Y-9049500D01*
X17780013Y-9052414D01*
X17780007Y-9052415D01*
X17677234Y-9097794D01*
X17597794Y-9177234D01*
X17552414Y-9280011D01*
X17552094Y-9282772D01*
X17551250Y-9284286D01*
X17550952Y-9285383D01*
X17550680Y-9285309D01*
X17524533Y-9332251D01*
X17470057Y-9347749D01*
X17426261Y-9326568D01*
X17423413Y-9323720D01*
X17332091Y-9270995D01*
X17332082Y-9270991D01*
X17230229Y-9243700D01*
X17230227Y-9243700D01*
X17124773Y-9243700D01*
X17124771Y-9243700D01*
X17022917Y-9270991D01*
X17022908Y-9270995D01*
X16931586Y-9323720D01*
X16857020Y-9398286D01*
X16804295Y-9489608D01*
X16804291Y-9489617D01*
X16777000Y-9591470D01*
X16777000Y-9696929D01*
X16804291Y-9798782D01*
X16804295Y-9798791D01*
X16824147Y-9833176D01*
X16852436Y-9882174D01*
X16856089Y-9888500D01*
X16863482Y-9944652D01*
X16829003Y-9989586D01*
X16792003Y-9999500D01*
X16461558Y-9999500D01*
X16409232Y-9977826D01*
X16128178Y-9696773D01*
X16128178Y-9696772D01*
X16054335Y-9622929D01*
X16019412Y-9608464D01*
X15971455Y-9588599D01*
X15881745Y-9588599D01*
X15873133Y-9588599D01*
X15873125Y-9588600D01*
X15224345Y-9588600D01*
X15172019Y-9566926D01*
X15150345Y-9514600D01*
X15172019Y-9462274D01*
X15175880Y-9458413D01*
X15228607Y-9367087D01*
X15255899Y-9265229D01*
X15255900Y-9265229D01*
X15255900Y-9159771D01*
X15255899Y-9159770D01*
X15254511Y-9154591D01*
X15228607Y-9057913D01*
X15175880Y-8966587D01*
X15101313Y-8892020D01*
X15083599Y-8881793D01*
X15009991Y-8839295D01*
X15009982Y-8839291D01*
X14908129Y-8812000D01*
X14908127Y-8812000D01*
X14802673Y-8812000D01*
X14802671Y-8812000D01*
X14720353Y-8834057D01*
X14664200Y-8826665D01*
X14629722Y-8781732D01*
X14627200Y-8762579D01*
X14627200Y-7239609D01*
X14648874Y-7187283D01*
X14701200Y-7165609D01*
X14753526Y-7187283D01*
G37*
%TD.AperFunction*%
%TA.AperFunction,Conductor*%
G36*
X22416114Y-8535089D02*
G01*
X22421766Y-8538866D01*
X22421768Y-8538866D01*
X22421769Y-8538867D01*
X22480252Y-8550500D01*
X22480254Y-8550500D01*
X22589914Y-8550500D01*
X22642240Y-8572174D01*
X22655810Y-8597549D01*
X22658345Y-8596500D01*
X22661133Y-8603232D01*
X22676877Y-8626793D01*
X22705448Y-8669552D01*
X22743900Y-8695245D01*
X22771767Y-8713866D01*
X22771768Y-8713866D01*
X22771769Y-8713867D01*
X22830252Y-8725500D01*
X22830254Y-8725500D01*
X23094746Y-8725500D01*
X23094748Y-8725500D01*
X23153231Y-8713867D01*
X23219552Y-8669552D01*
X23250399Y-8623387D01*
X23297491Y-8591922D01*
X23311927Y-8590500D01*
X23899376Y-8590500D01*
X23911037Y-8595330D01*
X23923638Y-8594590D01*
X23935840Y-8605603D01*
X23951702Y-8612174D01*
X23965965Y-8632222D01*
X23966233Y-8632776D01*
X24002150Y-8709799D01*
X24004904Y-8712553D01*
X24009343Y-8721710D01*
X24010682Y-8744522D01*
X24015630Y-8766838D01*
X24012362Y-8773115D01*
X24012664Y-8778250D01*
X24005487Y-8786322D01*
X23995080Y-8806314D01*
X23992564Y-8808830D01*
X23929130Y-8872264D01*
X23929129Y-8872265D01*
X23410281Y-9391114D01*
X22901869Y-9899526D01*
X22849543Y-9921200D01*
X21811457Y-9921200D01*
X21759131Y-9899526D01*
X21689137Y-9829532D01*
X21667463Y-9777206D01*
X21689137Y-9724880D01*
X21689619Y-9724484D01*
X21694548Y-9719554D01*
X21694552Y-9719552D01*
X21738867Y-9653231D01*
X21750500Y-9594748D01*
X21750500Y-9455252D01*
X21738867Y-9396769D01*
X21738866Y-9396768D01*
X21738866Y-9396766D01*
X21735089Y-9391114D01*
X21724037Y-9335566D01*
X21735089Y-9308886D01*
X21738866Y-9303233D01*
X21738866Y-9303232D01*
X21738867Y-9303231D01*
X21750500Y-9244748D01*
X21750500Y-9105252D01*
X21738867Y-9046769D01*
X21726209Y-9027826D01*
X21709935Y-9003470D01*
X21694552Y-8980448D01*
X21672343Y-8965608D01*
X21628232Y-8936133D01*
X21628233Y-8936133D01*
X21598989Y-8930316D01*
X21569748Y-8924500D01*
X21569746Y-8924500D01*
X21365057Y-8924500D01*
X21312731Y-8902826D01*
X21261731Y-8851826D01*
X21240057Y-8799500D01*
X21261731Y-8747174D01*
X21314057Y-8725500D01*
X21569746Y-8725500D01*
X21569748Y-8725500D01*
X21628231Y-8713867D01*
X21694552Y-8669552D01*
X21738867Y-8603231D01*
X21738867Y-8603228D01*
X21741655Y-8596500D01*
X21745499Y-8598092D01*
X21769001Y-8562953D01*
X21810086Y-8550500D01*
X21919746Y-8550500D01*
X21919748Y-8550500D01*
X21978231Y-8538867D01*
X21978232Y-8538866D01*
X21978233Y-8538866D01*
X21983886Y-8535089D01*
X22039434Y-8524037D01*
X22066114Y-8535089D01*
X22071766Y-8538866D01*
X22071768Y-8538866D01*
X22071769Y-8538867D01*
X22130252Y-8550500D01*
X22130254Y-8550500D01*
X22269746Y-8550500D01*
X22269748Y-8550500D01*
X22328231Y-8538867D01*
X22328232Y-8538866D01*
X22328233Y-8538866D01*
X22333886Y-8535089D01*
X22389434Y-8524037D01*
X22416114Y-8535089D01*
G37*
%TD.AperFunction*%
%TA.AperFunction,Conductor*%
G36*
X25695299Y-6039165D02*
G01*
X25729778Y-6084098D01*
X25732300Y-6103251D01*
X25732300Y-7822644D01*
X25710626Y-7874970D01*
X25658300Y-7896644D01*
X25648642Y-7896011D01*
X25603258Y-7890037D01*
X25599179Y-7889500D01*
X25599178Y-7889500D01*
X24225822Y-7889500D01*
X24180241Y-7895500D01*
X24180239Y-7895501D01*
X24080200Y-7942150D01*
X24002148Y-8020202D01*
X23969564Y-8090080D01*
X23968256Y-8092888D01*
X23966444Y-8096773D01*
X23924687Y-8135037D01*
X23899377Y-8139500D01*
X23458005Y-8139500D01*
X23405679Y-8117826D01*
X23384005Y-8065500D01*
X23388266Y-8044062D01*
X23387552Y-8043871D01*
X23398499Y-8003015D01*
X23416099Y-7937329D01*
X23416100Y-7937329D01*
X23416100Y-7831871D01*
X23416099Y-7831870D01*
X23413659Y-7822765D01*
X23388807Y-7730013D01*
X23336080Y-7638687D01*
X23261513Y-7564120D01*
X23185630Y-7520309D01*
X23151153Y-7475377D01*
X23158545Y-7419224D01*
X23170301Y-7403902D01*
X24412831Y-6161374D01*
X24465157Y-6139700D01*
X24958255Y-6139700D01*
X25010581Y-6161374D01*
X25013987Y-6164780D01*
X25105313Y-6217507D01*
X25207170Y-6244799D01*
X25207171Y-6244800D01*
X25207173Y-6244800D01*
X25312629Y-6244800D01*
X25312629Y-6244799D01*
X25414487Y-6217507D01*
X25505813Y-6164780D01*
X25580380Y-6090213D01*
X25594214Y-6066252D01*
X25639147Y-6031773D01*
X25695299Y-6039165D01*
G37*
%TD.AperFunction*%
%TA.AperFunction,Conductor*%
G36*
X24742624Y-5115574D02*
G01*
X24760569Y-5151963D01*
X24762144Y-5151542D01*
X24790691Y-5258082D01*
X24790692Y-5258085D01*
X24790693Y-5258087D01*
X24843420Y-5349413D01*
X24917987Y-5423980D01*
X24958625Y-5447442D01*
X24993104Y-5492374D01*
X24985712Y-5548527D01*
X24980911Y-5555815D01*
X24977718Y-5560088D01*
X24939420Y-5598387D01*
X24906452Y-5655487D01*
X24903839Y-5658987D01*
X24882968Y-5671398D01*
X24863707Y-5686178D01*
X24856524Y-5687123D01*
X24855159Y-5687936D01*
X24853519Y-5687519D01*
X24844554Y-5688700D01*
X24394575Y-5688700D01*
X24394567Y-5688699D01*
X24385955Y-5688699D01*
X24296246Y-5688699D01*
X24270154Y-5699507D01*
X24270153Y-5699507D01*
X24213366Y-5723028D01*
X22072264Y-7864130D01*
X22072263Y-7864130D01*
X22024573Y-7911819D01*
X21972247Y-7933493D01*
X21957812Y-7932071D01*
X21919748Y-7924500D01*
X21780252Y-7924500D01*
X21751435Y-7930232D01*
X21744001Y-7928753D01*
X21737000Y-7931653D01*
X21717058Y-7923393D01*
X21695886Y-7919181D01*
X21691675Y-7912879D01*
X21684674Y-7909979D01*
X21676414Y-7890037D01*
X21664421Y-7872088D01*
X21663000Y-7857653D01*
X21663000Y-7712963D01*
X21684674Y-7660637D01*
X21717847Y-7641485D01*
X21739787Y-7635607D01*
X21831113Y-7582880D01*
X21905680Y-7508313D01*
X21958407Y-7416987D01*
X21985699Y-7315129D01*
X21985700Y-7315129D01*
X21985700Y-7211456D01*
X22007374Y-7159130D01*
X22060034Y-7106470D01*
X22137734Y-7028770D01*
X22137736Y-7028770D01*
X22180109Y-6986395D01*
X22180113Y-6986394D01*
X22206816Y-6970913D01*
X22206404Y-6969979D01*
X22211497Y-6967730D01*
X22211498Y-6967730D01*
X22309141Y-6924616D01*
X22384616Y-6849141D01*
X22427730Y-6751498D01*
X22430500Y-6727623D01*
X22430499Y-6429055D01*
X22452172Y-6376731D01*
X22946731Y-5882173D01*
X22999057Y-5860499D01*
X23303372Y-5860499D01*
X23327662Y-5857682D01*
X23427016Y-5813813D01*
X23503813Y-5737016D01*
X23547682Y-5637662D01*
X23550500Y-5613373D01*
X23550499Y-5186628D01*
X23549315Y-5176421D01*
X23564819Y-5121949D01*
X23614300Y-5094392D01*
X23622823Y-5093900D01*
X24690298Y-5093900D01*
X24742624Y-5115574D01*
G37*
%TD.AperFunction*%
%TA.AperFunction,Conductor*%
G36*
X41478326Y-122174D02*
G01*
X41500000Y-174500D01*
X41500000Y-17825500D01*
X41478326Y-17877826D01*
X41426000Y-17899500D01*
X14409150Y-17899500D01*
X14356824Y-17877826D01*
X14335150Y-17825500D01*
X14356824Y-17773174D01*
X14375554Y-17759566D01*
X14378593Y-17758017D01*
X14388342Y-17753050D01*
X14478050Y-17663342D01*
X14535646Y-17550304D01*
X14550500Y-17456519D01*
X14550499Y-16778386D01*
X14572173Y-16726061D01*
X14624499Y-16704387D01*
X14676825Y-16726061D01*
X14731284Y-16780520D01*
X14868216Y-16859577D01*
X15020940Y-16900499D01*
X15020941Y-16900500D01*
X15020943Y-16900500D01*
X15179059Y-16900500D01*
X15179059Y-16900499D01*
X15331784Y-16859577D01*
X15468716Y-16780520D01*
X15580520Y-16668716D01*
X15659577Y-16531784D01*
X15700499Y-16379059D01*
X15700500Y-16379059D01*
X15700500Y-16220941D01*
X15700499Y-16220940D01*
X15699934Y-16218833D01*
X15659577Y-16068216D01*
X15580520Y-15931284D01*
X15468716Y-15819480D01*
X15331784Y-15740423D01*
X15331781Y-15740422D01*
X15331779Y-15740421D01*
X15179059Y-15699500D01*
X15179057Y-15699500D01*
X15020943Y-15699500D01*
X15020941Y-15699500D01*
X14868220Y-15740421D01*
X14868214Y-15740424D01*
X14731283Y-15819480D01*
X14681264Y-15869500D01*
X14619480Y-15931284D01*
X14619478Y-15931286D01*
X14616051Y-15934714D01*
X14615102Y-15933765D01*
X14570486Y-15959514D01*
X14515781Y-15944844D01*
X14494907Y-15919741D01*
X14488605Y-15907373D01*
X14478050Y-15886658D01*
X14388342Y-15796950D01*
X14275304Y-15739354D01*
X14275302Y-15739353D01*
X14275301Y-15739353D01*
X14181519Y-15724500D01*
X13418480Y-15724500D01*
X13324695Y-15739353D01*
X13324693Y-15739354D01*
X13211657Y-15796950D01*
X13121951Y-15886656D01*
X13064353Y-15999698D01*
X13049500Y-16093480D01*
X13049500Y-17456519D01*
X13064353Y-17550304D01*
X13064354Y-17550306D01*
X13096782Y-17613948D01*
X13121950Y-17663342D01*
X13211658Y-17753050D01*
X13224447Y-17759566D01*
X13261229Y-17802632D01*
X13256786Y-17859095D01*
X13213719Y-17895878D01*
X13190851Y-17899500D01*
X10809150Y-17899500D01*
X10756824Y-17877826D01*
X10735150Y-17825500D01*
X10756824Y-17773174D01*
X10775554Y-17759566D01*
X10778593Y-17758017D01*
X10788342Y-17753050D01*
X10878050Y-17663342D01*
X10935646Y-17550304D01*
X10950500Y-17456519D01*
X10950499Y-16093482D01*
X10946498Y-16068220D01*
X10935646Y-15999695D01*
X10935645Y-15999693D01*
X10894907Y-15919741D01*
X10878050Y-15886658D01*
X10788342Y-15796950D01*
X10675304Y-15739354D01*
X10675302Y-15739353D01*
X10675301Y-15739353D01*
X10581519Y-15724500D01*
X9818480Y-15724500D01*
X9724695Y-15739353D01*
X9724693Y-15739354D01*
X9611657Y-15796950D01*
X9521951Y-15886656D01*
X9464353Y-15999698D01*
X9449500Y-16093480D01*
X9449500Y-17456519D01*
X9464353Y-17550304D01*
X9464354Y-17550306D01*
X9496782Y-17613948D01*
X9521950Y-17663342D01*
X9611658Y-17753050D01*
X9624447Y-17759566D01*
X9661229Y-17802632D01*
X9656786Y-17859095D01*
X9613719Y-17895878D01*
X9590851Y-17899500D01*
X3002083Y-17899500D01*
X2997934Y-17899384D01*
X2679500Y-17881500D01*
X2671254Y-17880570D01*
X2358904Y-17827500D01*
X2350813Y-17825654D01*
X2046345Y-17737938D01*
X2038513Y-17735197D01*
X1745791Y-17613948D01*
X1738314Y-17610347D01*
X1461012Y-17457087D01*
X1453985Y-17452672D01*
X1195586Y-17269328D01*
X1189099Y-17264155D01*
X952843Y-17053025D01*
X946974Y-17047156D01*
X735844Y-16810900D01*
X730671Y-16804413D01*
X712205Y-16778387D01*
X547325Y-16546011D01*
X542912Y-16538987D01*
X536631Y-16527623D01*
X389650Y-16261682D01*
X386051Y-16254208D01*
X264799Y-15961479D01*
X262061Y-15953654D01*
X261256Y-15950859D01*
X174342Y-15649175D01*
X172501Y-15641107D01*
X119428Y-15328739D01*
X118499Y-15320499D01*
X118112Y-15313613D01*
X100616Y-15002065D01*
X100500Y-14997916D01*
X100500Y-14272380D01*
X3569500Y-14272380D01*
X3569500Y-14727622D01*
X3572269Y-14751495D01*
X3572269Y-14751497D01*
X3572270Y-14751498D01*
X3615384Y-14849141D01*
X3690859Y-14924616D01*
X3788502Y-14967730D01*
X3812377Y-14970500D01*
X4167622Y-14970499D01*
X4191498Y-14967730D01*
X4289141Y-14924616D01*
X4364616Y-14849141D01*
X4407730Y-14751498D01*
X4410500Y-14727623D01*
X4410499Y-14398055D01*
X4432173Y-14345730D01*
X4484499Y-14324056D01*
X4536825Y-14345730D01*
X4567826Y-14376731D01*
X4589500Y-14429057D01*
X4589500Y-14727622D01*
X4592269Y-14751495D01*
X4592269Y-14751497D01*
X4592270Y-14751498D01*
X4635384Y-14849141D01*
X4710859Y-14924616D01*
X4808502Y-14967730D01*
X4831111Y-14970353D01*
X4880589Y-14997911D01*
X4896089Y-15052386D01*
X4874908Y-15096185D01*
X4163267Y-15807826D01*
X4110941Y-15829500D01*
X3812377Y-15829500D01*
X3788504Y-15832269D01*
X3690858Y-15875384D01*
X3615385Y-15950857D01*
X3593821Y-15999695D01*
X3572270Y-16048502D01*
X3569983Y-16068220D01*
X3569500Y-16072380D01*
X3569500Y-16527622D01*
X3572269Y-16551495D01*
X3572269Y-16551497D01*
X3572270Y-16551498D01*
X3615384Y-16649141D01*
X3690859Y-16724616D01*
X3788502Y-16767730D01*
X3812377Y-16770500D01*
X4167622Y-16770499D01*
X4191498Y-16767730D01*
X4289141Y-16724616D01*
X4364616Y-16649141D01*
X4407730Y-16551498D01*
X4410500Y-16527623D01*
X4410499Y-16229055D01*
X4432172Y-16176731D01*
X5347676Y-15261228D01*
X5399999Y-15239556D01*
X5452325Y-15261230D01*
X6294609Y-16103514D01*
X6294612Y-16103518D01*
X6298830Y-16107736D01*
X6362264Y-16171170D01*
X6396595Y-16185390D01*
X6445146Y-16205501D01*
X6509035Y-16205501D01*
X6515968Y-16206836D01*
X6534163Y-16218833D01*
X6554302Y-16227175D01*
X6560469Y-16236178D01*
X6563252Y-16238013D01*
X6563904Y-16241192D01*
X6569669Y-16249608D01*
X6586187Y-16287016D01*
X6662984Y-16363813D01*
X6762338Y-16407682D01*
X6786627Y-16410500D01*
X7213372Y-16410499D01*
X7237662Y-16407682D01*
X7337016Y-16363813D01*
X7413813Y-16287016D01*
X7457682Y-16187662D01*
X7460500Y-16163373D01*
X7460499Y-15796628D01*
X7457682Y-15772338D01*
X7413813Y-15672984D01*
X7337016Y-15596187D01*
X7237662Y-15552318D01*
X7237663Y-15552318D01*
X7232804Y-15551754D01*
X7213373Y-15549500D01*
X7213369Y-15549500D01*
X6786627Y-15549500D01*
X6762340Y-15552317D01*
X6662983Y-15596187D01*
X6596364Y-15662807D01*
X6544038Y-15684481D01*
X6491712Y-15662807D01*
X6215535Y-15386630D01*
X18789500Y-15386630D01*
X18789500Y-15813372D01*
X18792317Y-15837659D01*
X18792317Y-15837661D01*
X18792318Y-15837662D01*
X18836187Y-15937016D01*
X18912984Y-16013813D01*
X19012338Y-16057682D01*
X19036627Y-16060500D01*
X19172590Y-16060499D01*
X19224916Y-16082173D01*
X19246590Y-16134498D01*
X19236677Y-16171497D01*
X19233611Y-16176807D01*
X19233606Y-16176818D01*
X19199500Y-16304105D01*
X19199500Y-16435894D01*
X19233606Y-16563181D01*
X19233607Y-16563184D01*
X19233608Y-16563186D01*
X19299500Y-16677314D01*
X19392686Y-16770500D01*
X19506814Y-16836392D01*
X19634105Y-16870499D01*
X19634106Y-16870500D01*
X19634108Y-16870500D01*
X19765894Y-16870500D01*
X19765894Y-16870499D01*
X19893186Y-16836392D01*
X20007314Y-16770500D01*
X20100500Y-16677314D01*
X20166392Y-16563186D01*
X20200499Y-16435894D01*
X20200500Y-16435894D01*
X20200500Y-16304106D01*
X20200499Y-16304105D01*
X20195920Y-16287017D01*
X20166392Y-16176814D01*
X20100500Y-16062686D01*
X20007314Y-15969500D01*
X19975027Y-15950859D01*
X19893190Y-15903610D01*
X19893181Y-15903606D01*
X19765894Y-15869500D01*
X19765892Y-15869500D01*
X19724500Y-15869500D01*
X19672174Y-15847826D01*
X19650500Y-15795500D01*
X19650500Y-15662807D01*
X19650499Y-15519055D01*
X19672172Y-15466731D01*
X19723926Y-15414978D01*
X19723930Y-15414975D01*
X19734335Y-15404570D01*
X19734336Y-15404570D01*
X19797770Y-15341136D01*
X19811827Y-15307200D01*
X19832101Y-15258255D01*
X19832101Y-15234244D01*
X19853775Y-15181918D01*
X19890146Y-15145547D01*
X19927080Y-15108613D01*
X19979807Y-15017287D01*
X20007099Y-14915429D01*
X20007100Y-14915429D01*
X20007100Y-14878970D01*
X21215600Y-14878970D01*
X21215600Y-14984429D01*
X21242891Y-15086282D01*
X21242895Y-15086291D01*
X21251098Y-15100499D01*
X21295620Y-15177613D01*
X21370187Y-15252180D01*
X21461513Y-15304907D01*
X21563370Y-15332199D01*
X21563371Y-15332200D01*
X21563373Y-15332200D01*
X21668829Y-15332200D01*
X21668829Y-15332199D01*
X21770687Y-15304907D01*
X21862013Y-15252180D01*
X21935319Y-15178874D01*
X21987645Y-15157200D01*
X22127643Y-15157200D01*
X22179969Y-15178874D01*
X22467826Y-15466731D01*
X22489500Y-15519057D01*
X22489500Y-15813372D01*
X22492317Y-15837659D01*
X22492317Y-15837661D01*
X22492318Y-15837662D01*
X22536187Y-15937016D01*
X22612984Y-16013813D01*
X22712338Y-16057682D01*
X22736627Y-16060500D01*
X22872590Y-16060499D01*
X22924916Y-16082173D01*
X22946590Y-16134498D01*
X22936677Y-16171497D01*
X22933611Y-16176807D01*
X22933606Y-16176818D01*
X22899500Y-16304105D01*
X22899500Y-16435894D01*
X22933606Y-16563181D01*
X22933607Y-16563184D01*
X22933608Y-16563186D01*
X22999500Y-16677314D01*
X23092686Y-16770500D01*
X23206814Y-16836392D01*
X23334105Y-16870499D01*
X23334106Y-16870500D01*
X23334108Y-16870500D01*
X23465894Y-16870500D01*
X23465894Y-16870499D01*
X23477945Y-16867270D01*
X25584700Y-16867270D01*
X25584700Y-16972729D01*
X25611991Y-17074582D01*
X25611992Y-17074585D01*
X25611993Y-17074587D01*
X25664720Y-17165913D01*
X25739287Y-17240480D01*
X25830613Y-17293207D01*
X25932470Y-17320499D01*
X25932471Y-17320500D01*
X25932473Y-17320500D01*
X26037929Y-17320500D01*
X26037929Y-17320499D01*
X26139787Y-17293207D01*
X26231113Y-17240480D01*
X26305680Y-17165913D01*
X26358407Y-17074587D01*
X26385699Y-16972729D01*
X26385700Y-16972729D01*
X26385700Y-16867271D01*
X26385699Y-16867270D01*
X26377425Y-16836392D01*
X26358407Y-16765413D01*
X26305680Y-16674087D01*
X26231113Y-16599520D01*
X26139791Y-16546795D01*
X26139782Y-16546791D01*
X26037929Y-16519500D01*
X26037927Y-16519500D01*
X25932473Y-16519500D01*
X25932471Y-16519500D01*
X25830617Y-16546791D01*
X25830608Y-16546795D01*
X25739286Y-16599520D01*
X25664720Y-16674086D01*
X25611995Y-16765408D01*
X25611991Y-16765417D01*
X25584700Y-16867270D01*
X23477945Y-16867270D01*
X23593186Y-16836392D01*
X23707314Y-16770500D01*
X23800500Y-16677314D01*
X23866392Y-16563186D01*
X23900499Y-16435894D01*
X23900500Y-16435894D01*
X23900500Y-16304106D01*
X23900499Y-16304105D01*
X23895920Y-16287017D01*
X23866392Y-16176814D01*
X23800500Y-16062686D01*
X23707314Y-15969500D01*
X23675027Y-15950859D01*
X23593190Y-15903610D01*
X23593181Y-15903606D01*
X23465894Y-15869500D01*
X23465892Y-15869500D01*
X23424500Y-15869500D01*
X23372174Y-15847826D01*
X23350500Y-15795500D01*
X23350499Y-15386627D01*
X23347682Y-15362340D01*
X23347682Y-15362338D01*
X23303813Y-15262984D01*
X23227016Y-15186187D01*
X23225613Y-15184784D01*
X23219391Y-15169764D01*
X23212190Y-15172748D01*
X23212189Y-15172747D01*
X23212189Y-15172748D01*
X23212187Y-15172747D01*
X23182300Y-15166443D01*
X23127662Y-15142318D01*
X23127663Y-15142318D01*
X23122804Y-15141754D01*
X23103373Y-15139500D01*
X23103369Y-15139500D01*
X22809057Y-15139500D01*
X22756731Y-15117826D01*
X22453278Y-14814373D01*
X22453278Y-14814372D01*
X22379437Y-14740531D01*
X22379433Y-14740528D01*
X22349584Y-14728165D01*
X22296555Y-14706199D01*
X22206845Y-14706199D01*
X22198233Y-14706199D01*
X22198225Y-14706200D01*
X21987645Y-14706200D01*
X21935319Y-14684526D01*
X21862013Y-14611220D01*
X21770691Y-14558495D01*
X21770682Y-14558491D01*
X21668829Y-14531200D01*
X21668827Y-14531200D01*
X21563373Y-14531200D01*
X21563371Y-14531200D01*
X21461517Y-14558491D01*
X21461508Y-14558495D01*
X21370186Y-14611220D01*
X21295620Y-14685786D01*
X21242895Y-14777108D01*
X21242891Y-14777117D01*
X21215600Y-14878970D01*
X20007100Y-14878970D01*
X20007100Y-14809971D01*
X20007099Y-14809970D01*
X20003409Y-14796200D01*
X19979807Y-14708113D01*
X19927080Y-14616787D01*
X19852513Y-14542220D01*
X19830443Y-14529478D01*
X19761191Y-14489495D01*
X19761182Y-14489491D01*
X19659329Y-14462200D01*
X19659327Y-14462200D01*
X19553873Y-14462200D01*
X19553871Y-14462200D01*
X19452017Y-14489491D01*
X19452008Y-14489495D01*
X19360686Y-14542220D01*
X19286120Y-14616786D01*
X19233395Y-14708108D01*
X19233391Y-14708117D01*
X19206100Y-14809970D01*
X19206100Y-14915429D01*
X19233391Y-15017282D01*
X19233396Y-15017293D01*
X19239866Y-15028499D01*
X19247260Y-15084652D01*
X19212782Y-15129585D01*
X19175782Y-15139500D01*
X19036627Y-15139500D01*
X19012340Y-15142317D01*
X18912983Y-15186187D01*
X18836187Y-15262983D01*
X18792318Y-15362337D01*
X18789500Y-15386630D01*
X6215535Y-15386630D01*
X5601578Y-14772673D01*
X5601578Y-14772672D01*
X5452173Y-14623267D01*
X5430499Y-14570941D01*
X5430499Y-14272377D01*
X5427730Y-14248504D01*
X5427730Y-14248502D01*
X5384616Y-14150859D01*
X5309141Y-14075384D01*
X5211498Y-14032270D01*
X5187623Y-14029500D01*
X5187619Y-14029500D01*
X4938200Y-14029500D01*
X4885874Y-14007826D01*
X4864200Y-13955500D01*
X4864200Y-13156457D01*
X4885874Y-13104131D01*
X5208731Y-12781274D01*
X5261057Y-12759600D01*
X7675225Y-12759600D01*
X7675233Y-12759601D01*
X7683845Y-12759601D01*
X7773554Y-12759601D01*
X7773555Y-12759601D01*
X7832160Y-12735325D01*
X7856436Y-12725270D01*
X7919870Y-12661836D01*
X7919870Y-12661835D01*
X7930275Y-12651430D01*
X7930276Y-12651427D01*
X13051775Y-7529929D01*
X13104100Y-7508256D01*
X13156426Y-7529930D01*
X13178100Y-7582256D01*
X13178100Y-7629755D01*
X13156426Y-7682081D01*
X13083120Y-7755386D01*
X13030395Y-7846708D01*
X13030391Y-7846717D01*
X13003100Y-7948570D01*
X13003100Y-8054029D01*
X13030391Y-8155882D01*
X13030395Y-8155891D01*
X13059458Y-8206229D01*
X13083120Y-8247213D01*
X13157687Y-8321780D01*
X13249013Y-8374507D01*
X13350870Y-8401799D01*
X13350871Y-8401800D01*
X13350873Y-8401800D01*
X13456329Y-8401800D01*
X13456329Y-8401799D01*
X13558187Y-8374507D01*
X13649513Y-8321780D01*
X13724080Y-8247213D01*
X13776807Y-8155887D01*
X13804099Y-8054029D01*
X13804100Y-8054029D01*
X13804100Y-7948571D01*
X13804099Y-7948570D01*
X13801086Y-7937327D01*
X13776807Y-7846713D01*
X13724080Y-7755387D01*
X13650774Y-7682081D01*
X13629100Y-7629755D01*
X13629100Y-7378057D01*
X13650774Y-7325731D01*
X14049874Y-6926631D01*
X14102200Y-6904957D01*
X14154526Y-6926631D01*
X14176200Y-6978957D01*
X14176200Y-9058713D01*
X14154526Y-9111039D01*
X14102200Y-9132713D01*
X14069762Y-9122179D01*
X14068532Y-9124595D01*
X14063343Y-9121951D01*
X14063342Y-9121950D01*
X13950304Y-9064354D01*
X13950302Y-9064353D01*
X13950301Y-9064353D01*
X13856519Y-9049500D01*
X12493480Y-9049500D01*
X12399695Y-9064353D01*
X12399693Y-9064354D01*
X12286657Y-9121950D01*
X12196951Y-9211656D01*
X12139353Y-9324698D01*
X12124500Y-9418480D01*
X12124500Y-10181519D01*
X12139353Y-10275304D01*
X12139354Y-10275306D01*
X12193896Y-10382349D01*
X12196950Y-10388342D01*
X12286658Y-10478050D01*
X12399696Y-10535646D01*
X12493481Y-10550500D01*
X13581443Y-10550499D01*
X13633769Y-10572173D01*
X13655443Y-10624499D01*
X13633769Y-10676825D01*
X13109869Y-11200726D01*
X13057543Y-11222400D01*
X11317245Y-11222400D01*
X11234366Y-11256728D01*
X11234363Y-11256731D01*
X9689229Y-12801864D01*
X9685417Y-12811069D01*
X9654899Y-12884744D01*
X9654899Y-12983066D01*
X9654900Y-12983075D01*
X9654900Y-13340273D01*
X9654899Y-13340287D01*
X9654899Y-13435956D01*
X9679173Y-13494558D01*
X9689229Y-13518834D01*
X9689232Y-13518838D01*
X9763071Y-13592677D01*
X9763073Y-13592678D01*
X10492809Y-14322414D01*
X10492812Y-14322418D01*
X10497030Y-14326636D01*
X10560464Y-14390070D01*
X10594428Y-14404138D01*
X10643346Y-14424401D01*
X10643347Y-14424401D01*
X10741667Y-14424401D01*
X10741675Y-14424400D01*
X13089825Y-14424400D01*
X13089833Y-14424401D01*
X13098445Y-14424401D01*
X13188154Y-14424401D01*
X13188155Y-14424401D01*
X13196510Y-14420940D01*
X14499500Y-14420940D01*
X14499500Y-14579059D01*
X14540421Y-14731779D01*
X14540422Y-14731781D01*
X14540423Y-14731784D01*
X14619480Y-14868716D01*
X14731284Y-14980520D01*
X14868216Y-15059577D01*
X15020940Y-15100499D01*
X15020941Y-15100500D01*
X15020943Y-15100500D01*
X15179059Y-15100500D01*
X15179059Y-15100499D01*
X15331784Y-15059577D01*
X15468716Y-14980520D01*
X15580520Y-14868716D01*
X15659577Y-14731784D01*
X15700499Y-14579059D01*
X15700500Y-14579059D01*
X15700500Y-14420941D01*
X15700499Y-14420940D01*
X15698589Y-14413813D01*
X15659577Y-14268216D01*
X15580520Y-14131284D01*
X15513206Y-14063970D01*
X17650000Y-14063970D01*
X17650000Y-14169429D01*
X17677291Y-14271282D01*
X17677295Y-14271291D01*
X17709249Y-14326636D01*
X17730020Y-14362613D01*
X17804587Y-14437180D01*
X17895913Y-14489907D01*
X17997770Y-14517199D01*
X17997771Y-14517200D01*
X17997773Y-14517200D01*
X18103229Y-14517200D01*
X18103229Y-14517199D01*
X18205087Y-14489907D01*
X18296413Y-14437180D01*
X18370980Y-14362613D01*
X18423707Y-14271287D01*
X18450999Y-14169429D01*
X18451000Y-14169429D01*
X18451000Y-14063971D01*
X18450999Y-14063970D01*
X18439885Y-14022493D01*
X18423707Y-13962113D01*
X18370980Y-13870787D01*
X18296413Y-13796220D01*
X18279799Y-13786628D01*
X18205091Y-13743495D01*
X18205082Y-13743491D01*
X18103229Y-13716200D01*
X18103227Y-13716200D01*
X17997773Y-13716200D01*
X17997771Y-13716200D01*
X17895917Y-13743491D01*
X17895908Y-13743495D01*
X17804586Y-13796220D01*
X17730020Y-13870786D01*
X17677295Y-13962108D01*
X17677291Y-13962117D01*
X17650000Y-14063970D01*
X15513206Y-14063970D01*
X15468716Y-14019480D01*
X15331784Y-13940423D01*
X15331781Y-13940422D01*
X15331779Y-13940421D01*
X15179059Y-13899500D01*
X15179057Y-13899500D01*
X15020943Y-13899500D01*
X15020941Y-13899500D01*
X14868220Y-13940421D01*
X14868214Y-13940424D01*
X14731283Y-14019480D01*
X14619480Y-14131283D01*
X14540424Y-14268214D01*
X14540421Y-14268220D01*
X14499500Y-14420940D01*
X13196510Y-14420940D01*
X13246760Y-14400125D01*
X13271036Y-14390070D01*
X13334470Y-14326636D01*
X13334470Y-14326635D01*
X13344875Y-14316230D01*
X13344876Y-14316227D01*
X13913931Y-13747174D01*
X13966257Y-13725500D01*
X15512573Y-13725500D01*
X15564899Y-13747174D01*
X15580266Y-13769607D01*
X15615384Y-13849141D01*
X15690859Y-13924616D01*
X15788502Y-13967730D01*
X15812377Y-13970500D01*
X16167622Y-13970499D01*
X16191498Y-13967730D01*
X16289141Y-13924616D01*
X16364616Y-13849141D01*
X16407730Y-13751498D01*
X16410500Y-13727623D01*
X16410499Y-13272378D01*
X16407730Y-13248502D01*
X16399290Y-13229389D01*
X16397983Y-13172768D01*
X16437096Y-13131805D01*
X16466986Y-13125500D01*
X18725943Y-13125500D01*
X18778269Y-13147174D01*
X18977826Y-13346731D01*
X18999500Y-13399057D01*
X18999500Y-13638399D01*
X19014760Y-13715117D01*
X19072228Y-13801125D01*
X19072888Y-13802112D01*
X19159883Y-13860240D01*
X19236599Y-13875500D01*
X19663400Y-13875499D01*
X19740117Y-13860240D01*
X19827112Y-13802112D01*
X19885240Y-13715117D01*
X19900500Y-13638401D01*
X19900499Y-13361600D01*
X19885240Y-13284883D01*
X19827112Y-13197888D01*
X19740117Y-13139760D01*
X19663401Y-13124500D01*
X19663399Y-13124500D01*
X19424057Y-13124500D01*
X19371731Y-13102826D01*
X19051578Y-12782673D01*
X19051578Y-12782672D01*
X18977737Y-12708831D01*
X18977733Y-12708828D01*
X18949055Y-12696950D01*
X18894855Y-12674499D01*
X18805145Y-12674499D01*
X18796533Y-12674499D01*
X18796525Y-12674500D01*
X13024499Y-12674500D01*
X12972173Y-12652826D01*
X12950499Y-12600500D01*
X12950499Y-12230136D01*
X12949984Y-12225696D01*
X12947585Y-12205009D01*
X12902206Y-12102235D01*
X12878397Y-12078426D01*
X12856723Y-12026100D01*
X12878397Y-11973774D01*
X12930723Y-11952100D01*
X16954925Y-11952100D01*
X16954933Y-11952101D01*
X16963545Y-11952101D01*
X17053254Y-11952101D01*
X17053255Y-11952101D01*
X17119608Y-11924616D01*
X17136136Y-11917770D01*
X17199570Y-11854336D01*
X17199570Y-11854334D01*
X17382074Y-11671829D01*
X17434400Y-11650156D01*
X17486726Y-11671830D01*
X17508400Y-11724156D01*
X17508400Y-11808729D01*
X17535691Y-11910582D01*
X17535695Y-11910591D01*
X17580909Y-11988904D01*
X17588420Y-12001913D01*
X17662987Y-12076480D01*
X17754313Y-12129207D01*
X17856170Y-12156499D01*
X17856171Y-12156500D01*
X17856173Y-12156500D01*
X17961629Y-12156500D01*
X17961629Y-12156499D01*
X18063487Y-12129207D01*
X18154813Y-12076480D01*
X18229380Y-12001913D01*
X18282107Y-11910587D01*
X18309399Y-11808729D01*
X18309400Y-11808729D01*
X18309400Y-11703271D01*
X18309399Y-11703270D01*
X18301395Y-11673400D01*
X18282107Y-11601413D01*
X18229380Y-11510087D01*
X18154813Y-11435520D01*
X18128242Y-11420179D01*
X18063491Y-11382795D01*
X18063482Y-11382791D01*
X17961629Y-11355500D01*
X17961627Y-11355500D01*
X17877057Y-11355500D01*
X17824731Y-11333826D01*
X17803057Y-11281500D01*
X17824731Y-11229174D01*
X17996631Y-11057274D01*
X18048957Y-11035600D01*
X18392645Y-11035600D01*
X18482355Y-11035600D01*
X18736043Y-11035600D01*
X18788369Y-11057274D01*
X21077826Y-13346731D01*
X21099500Y-13399057D01*
X21099500Y-13638399D01*
X21114760Y-13715117D01*
X21172228Y-13801125D01*
X21172888Y-13802112D01*
X21259883Y-13860240D01*
X21336599Y-13875500D01*
X21763400Y-13875499D01*
X21840117Y-13860240D01*
X21927112Y-13802112D01*
X21985240Y-13715117D01*
X22000500Y-13638401D01*
X22000499Y-13633261D01*
X22022167Y-13580936D01*
X22074491Y-13559256D01*
X22126819Y-13580924D01*
X22617726Y-14071831D01*
X22639400Y-14124157D01*
X22639400Y-14277073D01*
X22639399Y-14277087D01*
X22639399Y-14283045D01*
X22639399Y-14372755D01*
X22654906Y-14410192D01*
X22656786Y-14414730D01*
X22673729Y-14455634D01*
X22673731Y-14455637D01*
X22747571Y-14529477D01*
X22747573Y-14529478D01*
X23201729Y-14983634D01*
X23201730Y-14983636D01*
X23216005Y-14997911D01*
X23231180Y-15013086D01*
X23264516Y-15046422D01*
X23270737Y-15061441D01*
X23277939Y-15058458D01*
X23306255Y-15064090D01*
X23348046Y-15081401D01*
X23348047Y-15081401D01*
X23446367Y-15081401D01*
X23446375Y-15081400D01*
X25873143Y-15081400D01*
X25925469Y-15103074D01*
X26414329Y-15591934D01*
X26414330Y-15591936D01*
X26477764Y-15655370D01*
X26502039Y-15665425D01*
X26560645Y-15689701D01*
X26560646Y-15689701D01*
X26658967Y-15689701D01*
X26658975Y-15689700D01*
X30557425Y-15689700D01*
X30557433Y-15689701D01*
X30566045Y-15689701D01*
X30655754Y-15689701D01*
X30655755Y-15689701D01*
X30714360Y-15665425D01*
X30738636Y-15655370D01*
X30802070Y-15591936D01*
X30802070Y-15591935D01*
X30812475Y-15581530D01*
X30812476Y-15581527D01*
X31501181Y-14892824D01*
X31553506Y-14871151D01*
X31605832Y-14892825D01*
X31668187Y-14955180D01*
X31759513Y-15007907D01*
X31861370Y-15035199D01*
X31861371Y-15035200D01*
X31861373Y-15035200D01*
X31966829Y-15035200D01*
X31966829Y-15035199D01*
X32042327Y-15014970D01*
X33236500Y-15014970D01*
X33236500Y-15120429D01*
X33263791Y-15222282D01*
X33263795Y-15222291D01*
X33284559Y-15258255D01*
X33316520Y-15313613D01*
X33391087Y-15388180D01*
X33482413Y-15440907D01*
X33584270Y-15468199D01*
X33584271Y-15468200D01*
X33584273Y-15468200D01*
X33689729Y-15468200D01*
X33689729Y-15468199D01*
X33791587Y-15440907D01*
X33882913Y-15388180D01*
X33957480Y-15313613D01*
X34010207Y-15222287D01*
X34037499Y-15120429D01*
X34037500Y-15120429D01*
X34037500Y-15014971D01*
X34037499Y-15014970D01*
X34032929Y-14997916D01*
X34010207Y-14913113D01*
X33957480Y-14821787D01*
X33882913Y-14747220D01*
X33861101Y-14734627D01*
X33791591Y-14694495D01*
X33791582Y-14694491D01*
X33689729Y-14667200D01*
X33689727Y-14667200D01*
X33584273Y-14667200D01*
X33584271Y-14667200D01*
X33482417Y-14694491D01*
X33482408Y-14694495D01*
X33391086Y-14747220D01*
X33316520Y-14821786D01*
X33263795Y-14913108D01*
X33263791Y-14913117D01*
X33236500Y-15014970D01*
X32042327Y-15014970D01*
X32068687Y-15007907D01*
X32160013Y-14955180D01*
X32234580Y-14880613D01*
X32287307Y-14789287D01*
X32314599Y-14687429D01*
X32314600Y-14687429D01*
X32314600Y-14581971D01*
X32313472Y-14577763D01*
X32314776Y-14567846D01*
X32310949Y-14558604D01*
X32318341Y-14540758D01*
X32320861Y-14521609D01*
X32332620Y-14506283D01*
X32356732Y-14482172D01*
X32365023Y-14478738D01*
X32409057Y-14460499D01*
X32703372Y-14460499D01*
X32727662Y-14457682D01*
X32827016Y-14413813D01*
X32903813Y-14337016D01*
X32947682Y-14237662D01*
X32950500Y-14213373D01*
X32950499Y-13786628D01*
X32947682Y-13762338D01*
X32903813Y-13662984D01*
X32827016Y-13586187D01*
X32727662Y-13542318D01*
X32727663Y-13542318D01*
X32722804Y-13541754D01*
X32703373Y-13539500D01*
X32703369Y-13539500D01*
X32336627Y-13539500D01*
X32312340Y-13542317D01*
X32212983Y-13586187D01*
X32136187Y-13662983D01*
X32092318Y-13762337D01*
X32089500Y-13786630D01*
X32089500Y-14080942D01*
X32067826Y-14133268D01*
X31988568Y-14212526D01*
X31936242Y-14234200D01*
X31861371Y-14234200D01*
X31759517Y-14261491D01*
X31759508Y-14261495D01*
X31677300Y-14308958D01*
X31621147Y-14316350D01*
X31576214Y-14281872D01*
X31566300Y-14244872D01*
X31566300Y-13947075D01*
X31576215Y-13910073D01*
X31580307Y-13902987D01*
X31607600Y-13801127D01*
X31607600Y-13695673D01*
X31607600Y-13695671D01*
X31607599Y-13695670D01*
X31598847Y-13663008D01*
X31580307Y-13593813D01*
X31527580Y-13502487D01*
X31453013Y-13427920D01*
X31449762Y-13426043D01*
X31361691Y-13375195D01*
X31361682Y-13375191D01*
X31259829Y-13347900D01*
X31259827Y-13347900D01*
X31154373Y-13347900D01*
X31154371Y-13347900D01*
X31052517Y-13375191D01*
X31052508Y-13375195D01*
X30961186Y-13427920D01*
X30886620Y-13502486D01*
X30833895Y-13593808D01*
X30833891Y-13593817D01*
X30806600Y-13695670D01*
X30806600Y-13801129D01*
X30833891Y-13902982D01*
X30835751Y-13907472D01*
X30833046Y-13908592D01*
X30839240Y-13955579D01*
X30804769Y-14000518D01*
X30786912Y-14007916D01*
X30732515Y-14022492D01*
X30732508Y-14022495D01*
X30641186Y-14075220D01*
X30566620Y-14149786D01*
X30513895Y-14241108D01*
X30513891Y-14241117D01*
X30486600Y-14342970D01*
X30486600Y-14448429D01*
X30504477Y-14515147D01*
X30503171Y-14525060D01*
X30506999Y-14534300D01*
X30499606Y-14552147D01*
X30497085Y-14571300D01*
X30489151Y-14577387D01*
X30485325Y-14586626D01*
X30467476Y-14594018D01*
X30452152Y-14605778D01*
X30432999Y-14608300D01*
X30369357Y-14608300D01*
X30317031Y-14586626D01*
X29770574Y-14040169D01*
X29748900Y-13987843D01*
X29748900Y-11809770D01*
X30231900Y-11809770D01*
X30231900Y-11915229D01*
X30259191Y-12017082D01*
X30259195Y-12017091D01*
X30294607Y-12078426D01*
X30311920Y-12108413D01*
X30386487Y-12182980D01*
X30477813Y-12235707D01*
X30579670Y-12262999D01*
X30579671Y-12263000D01*
X30579673Y-12263000D01*
X30685129Y-12263000D01*
X30685129Y-12262999D01*
X30786987Y-12235707D01*
X30878313Y-12182980D01*
X30952880Y-12108413D01*
X31005607Y-12017087D01*
X31032899Y-11915229D01*
X31032900Y-11915229D01*
X31032900Y-11809771D01*
X31032899Y-11809770D01*
X32672500Y-11809770D01*
X32672500Y-11915229D01*
X32699791Y-12017082D01*
X32699795Y-12017091D01*
X32735207Y-12078426D01*
X32752520Y-12108413D01*
X32827087Y-12182980D01*
X32918413Y-12235707D01*
X33020270Y-12262999D01*
X33020271Y-12263000D01*
X33020273Y-12263000D01*
X33125729Y-12263000D01*
X33125729Y-12262999D01*
X33227587Y-12235707D01*
X33318913Y-12182980D01*
X33393480Y-12108413D01*
X33446207Y-12017087D01*
X33473499Y-11915229D01*
X33473500Y-11915229D01*
X33473500Y-11809771D01*
X33473499Y-11809770D01*
X33467640Y-11787905D01*
X33446207Y-11707913D01*
X33393480Y-11616587D01*
X33318913Y-11542020D01*
X33309586Y-11536635D01*
X33227591Y-11489295D01*
X33227582Y-11489291D01*
X33125729Y-11462000D01*
X33125727Y-11462000D01*
X33020273Y-11462000D01*
X33020271Y-11462000D01*
X32931033Y-11485911D01*
X32931030Y-11485912D01*
X32918413Y-11489293D01*
X32895875Y-11502305D01*
X32895867Y-11502309D01*
X32827086Y-11542020D01*
X32752520Y-11616586D01*
X32699795Y-11707908D01*
X32699791Y-11707917D01*
X32672500Y-11809770D01*
X31032899Y-11809770D01*
X31027040Y-11787905D01*
X31005607Y-11707913D01*
X30952880Y-11616587D01*
X30878313Y-11542020D01*
X30868986Y-11536635D01*
X30786991Y-11489295D01*
X30786982Y-11489291D01*
X30685129Y-11462000D01*
X30685127Y-11462000D01*
X30579673Y-11462000D01*
X30579671Y-11462000D01*
X30477817Y-11489291D01*
X30477808Y-11489295D01*
X30386486Y-11542020D01*
X30311920Y-11616586D01*
X30259195Y-11707908D01*
X30259191Y-11707917D01*
X30231900Y-11809770D01*
X29748900Y-11809770D01*
X29748900Y-11549621D01*
X29770574Y-11497295D01*
X29822900Y-11475621D01*
X29842053Y-11478143D01*
X29887026Y-11490193D01*
X29924370Y-11500199D01*
X29924371Y-11500200D01*
X29924373Y-11500200D01*
X30029829Y-11500200D01*
X30029829Y-11500199D01*
X30131687Y-11472907D01*
X30223013Y-11420180D01*
X30297580Y-11345613D01*
X30350307Y-11254287D01*
X30377599Y-11152429D01*
X30377600Y-11152429D01*
X30377600Y-11046971D01*
X30377599Y-11046970D01*
X30374552Y-11035600D01*
X30350307Y-10945113D01*
X30297580Y-10853787D01*
X30224274Y-10780481D01*
X30202600Y-10728155D01*
X30202600Y-10257650D01*
X30224274Y-10205324D01*
X30276600Y-10183650D01*
X30313600Y-10193564D01*
X30341213Y-10209507D01*
X30443070Y-10236799D01*
X30443071Y-10236800D01*
X30443073Y-10236800D01*
X30548529Y-10236800D01*
X30548529Y-10236799D01*
X30650387Y-10209507D01*
X30741713Y-10156780D01*
X30813819Y-10084673D01*
X30866144Y-10063000D01*
X31249839Y-10063000D01*
X31281112Y-10069933D01*
X31302815Y-10080053D01*
X31355240Y-10104499D01*
X31400821Y-10110500D01*
X31788000Y-10110499D01*
X31840326Y-10132173D01*
X31862000Y-10184499D01*
X31862000Y-10355500D01*
X31840326Y-10407826D01*
X31788000Y-10429500D01*
X31400822Y-10429500D01*
X31355241Y-10435500D01*
X31355239Y-10435501D01*
X31255200Y-10482150D01*
X31177150Y-10560200D01*
X31130500Y-10660241D01*
X31124500Y-10705822D01*
X31124500Y-11104177D01*
X31130500Y-11149758D01*
X31130501Y-11149760D01*
X31177150Y-11249799D01*
X31255201Y-11327850D01*
X31355240Y-11374499D01*
X31400821Y-11380500D01*
X32774178Y-11380499D01*
X32819760Y-11374499D01*
X32919799Y-11327850D01*
X32997850Y-11249799D01*
X33044499Y-11149760D01*
X33050500Y-11104179D01*
X33050499Y-10705822D01*
X33044499Y-10660240D01*
X32997850Y-10560201D01*
X32919799Y-10482150D01*
X32819760Y-10435501D01*
X32819758Y-10435500D01*
X32786179Y-10431079D01*
X32774179Y-10429500D01*
X32774177Y-10429500D01*
X32387000Y-10429500D01*
X32334674Y-10407826D01*
X32313000Y-10355500D01*
X32313000Y-10184499D01*
X32334674Y-10132173D01*
X32387000Y-10110499D01*
X32774178Y-10110499D01*
X32819760Y-10104499D01*
X32919799Y-10057850D01*
X32994275Y-9983374D01*
X33046601Y-9961700D01*
X34069392Y-9961700D01*
X34121718Y-9983374D01*
X34140869Y-10016545D01*
X34157885Y-10080048D01*
X34157886Y-10080053D01*
X34157888Y-10080057D01*
X34217698Y-10183650D01*
X34229532Y-10204147D01*
X34330853Y-10305468D01*
X34454947Y-10377114D01*
X34593352Y-10414199D01*
X34593353Y-10414200D01*
X34593355Y-10414200D01*
X34736647Y-10414200D01*
X34736647Y-10414199D01*
X34816549Y-10392790D01*
X34872702Y-10400182D01*
X34907180Y-10445115D01*
X34899788Y-10501268D01*
X34876816Y-10525795D01*
X34839844Y-10550500D01*
X34824580Y-10560699D01*
X34720696Y-10664583D01*
X34639078Y-10786733D01*
X34582861Y-10922453D01*
X34582858Y-10922464D01*
X34558094Y-11046970D01*
X34554200Y-11066545D01*
X34554200Y-11213455D01*
X34559976Y-11242493D01*
X34582858Y-11357535D01*
X34582861Y-11357546D01*
X34639078Y-11493266D01*
X34711339Y-11601413D01*
X34720699Y-11615420D01*
X34824580Y-11719301D01*
X34946731Y-11800920D01*
X34946732Y-11800920D01*
X34946733Y-11800921D01*
X35082453Y-11857138D01*
X35082458Y-11857140D01*
X35226545Y-11885800D01*
X35373455Y-11885800D01*
X35517542Y-11857140D01*
X35653269Y-11800920D01*
X35775420Y-11719301D01*
X35879301Y-11615420D01*
X35896471Y-11589722D01*
X35943563Y-11558257D01*
X35999112Y-11569306D01*
X36030578Y-11616398D01*
X36032000Y-11630835D01*
X36032000Y-14371042D01*
X36010326Y-14423368D01*
X35968368Y-14465326D01*
X35916042Y-14487000D01*
X35812371Y-14487000D01*
X35710517Y-14514291D01*
X35710508Y-14514295D01*
X35619186Y-14567020D01*
X35544620Y-14641586D01*
X35491895Y-14732908D01*
X35491891Y-14732917D01*
X35464600Y-14834770D01*
X35464600Y-14940229D01*
X35491891Y-15042082D01*
X35491895Y-15042091D01*
X35537124Y-15120429D01*
X35544620Y-15133413D01*
X35619187Y-15207980D01*
X35710513Y-15260707D01*
X35812370Y-15287999D01*
X35812371Y-15288000D01*
X35812373Y-15288000D01*
X35917829Y-15288000D01*
X35917829Y-15287999D01*
X36019687Y-15260707D01*
X36111013Y-15207980D01*
X36140174Y-15178819D01*
X36192500Y-15157145D01*
X36244826Y-15178819D01*
X36266500Y-15231145D01*
X36266500Y-15255529D01*
X36293791Y-15357382D01*
X36293795Y-15357391D01*
X36310675Y-15386628D01*
X36346520Y-15448713D01*
X36421087Y-15523280D01*
X36512413Y-15576007D01*
X36614270Y-15603299D01*
X36614271Y-15603300D01*
X36614273Y-15603300D01*
X36719729Y-15603300D01*
X36719729Y-15603299D01*
X36821587Y-15576007D01*
X36912913Y-15523280D01*
X36987480Y-15448713D01*
X37040207Y-15357387D01*
X37067499Y-15255529D01*
X37067500Y-15255529D01*
X37067500Y-15200000D01*
X37500000Y-15200000D01*
X41250000Y-15200000D01*
X41250000Y-2800000D01*
X37500000Y-2800000D01*
X37500000Y-15200000D01*
X37067500Y-15200000D01*
X37067500Y-15150071D01*
X37067499Y-15150070D01*
X37058859Y-15117826D01*
X37040207Y-15048213D01*
X36987480Y-14956887D01*
X36914174Y-14883581D01*
X36892500Y-14831255D01*
X36892500Y-9287145D01*
X36892499Y-9287143D01*
X36891739Y-9285309D01*
X36872679Y-9239293D01*
X36858171Y-9204266D01*
X36858169Y-9204263D01*
X36476940Y-8823034D01*
X36455266Y-8770708D01*
X36457788Y-8751555D01*
X36458962Y-8747174D01*
X36479199Y-8671647D01*
X36479200Y-8671647D01*
X36479200Y-8528353D01*
X36479199Y-8528352D01*
X36473308Y-8506368D01*
X36442114Y-8389947D01*
X36370468Y-8265853D01*
X36269147Y-8164532D01*
X36269144Y-8164530D01*
X36145057Y-8092888D01*
X36145048Y-8092884D01*
X36006647Y-8055800D01*
X36001838Y-8055167D01*
X36002129Y-8052954D01*
X35956674Y-8034126D01*
X35935000Y-7981800D01*
X35935000Y-7948200D01*
X35956674Y-7895874D01*
X36002129Y-7877045D01*
X36001838Y-7874833D01*
X36006639Y-7874200D01*
X36006645Y-7874200D01*
X36145053Y-7837114D01*
X36269147Y-7765468D01*
X36370468Y-7664147D01*
X36442114Y-7540053D01*
X36479199Y-7401647D01*
X36479200Y-7401647D01*
X36479200Y-7258353D01*
X36479199Y-7258352D01*
X36479017Y-7257674D01*
X36442114Y-7119947D01*
X36370468Y-6995853D01*
X36306739Y-6932124D01*
X36285066Y-6879800D01*
X36306740Y-6827474D01*
X36359066Y-6805800D01*
X36389455Y-6805800D01*
X36533542Y-6777140D01*
X36669269Y-6720920D01*
X36791420Y-6639301D01*
X36895301Y-6535420D01*
X36976920Y-6413269D01*
X37033140Y-6277542D01*
X37061800Y-6133455D01*
X37061800Y-5986545D01*
X37033140Y-5842458D01*
X37021275Y-5813813D01*
X36976921Y-5706733D01*
X36976584Y-5706229D01*
X36895301Y-5584580D01*
X36791420Y-5480699D01*
X36780918Y-5473682D01*
X36669266Y-5399078D01*
X36533546Y-5342861D01*
X36533535Y-5342858D01*
X36389455Y-5314200D01*
X36242545Y-5314200D01*
X36098464Y-5342858D01*
X36098453Y-5342861D01*
X35962733Y-5399078D01*
X35840583Y-5480696D01*
X35736696Y-5584583D01*
X35655078Y-5706733D01*
X35598861Y-5842453D01*
X35598858Y-5842464D01*
X35570200Y-5986545D01*
X35570200Y-6133454D01*
X35598858Y-6277535D01*
X35598861Y-6277546D01*
X35655078Y-6413266D01*
X35731139Y-6527100D01*
X35736699Y-6535420D01*
X35840580Y-6639301D01*
X35840583Y-6639303D01*
X35867796Y-6657486D01*
X35899262Y-6704578D01*
X35888213Y-6760127D01*
X35845837Y-6790493D01*
X35724951Y-6822884D01*
X35724942Y-6822888D01*
X35600855Y-6894530D01*
X35499530Y-6995855D01*
X35427888Y-7119942D01*
X35427884Y-7119951D01*
X35390800Y-7258352D01*
X35390167Y-7263162D01*
X35387954Y-7262870D01*
X35369126Y-7308326D01*
X35316800Y-7330000D01*
X34665000Y-7330000D01*
X34665000Y-7981800D01*
X34643326Y-8034126D01*
X34597870Y-8052954D01*
X34598162Y-8055167D01*
X34593352Y-8055800D01*
X34454951Y-8092884D01*
X34454942Y-8092888D01*
X34330855Y-8164530D01*
X34229530Y-8265855D01*
X34157888Y-8389942D01*
X34157884Y-8389951D01*
X34120800Y-8528352D01*
X34120800Y-8594800D01*
X34099126Y-8647126D01*
X34046800Y-8668800D01*
X33121107Y-8668800D01*
X33068781Y-8647126D01*
X33047107Y-8594800D01*
X33047740Y-8585141D01*
X33049447Y-8572174D01*
X33050500Y-8564179D01*
X33050499Y-8165822D01*
X33044499Y-8120240D01*
X32997850Y-8020201D01*
X32919799Y-7942150D01*
X32819760Y-7895501D01*
X32819758Y-7895500D01*
X32786179Y-7891079D01*
X32774179Y-7889500D01*
X32774177Y-7889500D01*
X31400822Y-7889500D01*
X31355241Y-7895500D01*
X31355239Y-7895501D01*
X31255200Y-7942150D01*
X31177150Y-8020200D01*
X31130500Y-8120241D01*
X31124500Y-8165822D01*
X31124500Y-8205300D01*
X31102826Y-8257626D01*
X31050500Y-8279300D01*
X30437145Y-8279300D01*
X30384819Y-8257626D01*
X30311513Y-8184320D01*
X30232652Y-8138789D01*
X30198173Y-8093855D01*
X30205566Y-8037703D01*
X30217322Y-8022381D01*
X30897531Y-7342174D01*
X30949857Y-7320500D01*
X31074376Y-7320500D01*
X31126702Y-7342174D01*
X31141443Y-7363226D01*
X31177150Y-7439799D01*
X31255201Y-7517850D01*
X31355240Y-7564499D01*
X31400821Y-7570500D01*
X32774178Y-7570499D01*
X32819760Y-7564499D01*
X32919799Y-7517850D01*
X32997850Y-7439799D01*
X33044499Y-7339760D01*
X33050500Y-7294179D01*
X33050499Y-6895822D01*
X33044499Y-6850240D01*
X32997850Y-6750201D01*
X32919799Y-6672150D01*
X32819760Y-6625501D01*
X32819758Y-6625500D01*
X32786179Y-6621079D01*
X32774179Y-6619500D01*
X32774177Y-6619500D01*
X31400822Y-6619500D01*
X31355241Y-6625500D01*
X31355239Y-6625501D01*
X31255200Y-6672150D01*
X31177148Y-6750202D01*
X31144826Y-6819519D01*
X31143256Y-6822888D01*
X31141444Y-6826773D01*
X31099687Y-6865037D01*
X31074377Y-6869500D01*
X30879275Y-6869500D01*
X30879267Y-6869499D01*
X30870655Y-6869499D01*
X30780946Y-6869499D01*
X30749667Y-6882454D01*
X30749668Y-6882455D01*
X30698064Y-6903829D01*
X30698063Y-6903831D01*
X29332229Y-8269664D01*
X29328240Y-8279297D01*
X29328239Y-8279300D01*
X29297899Y-8352544D01*
X29297899Y-8450866D01*
X29297900Y-8450875D01*
X29297900Y-10562735D01*
X29276226Y-10615061D01*
X29223900Y-10636735D01*
X29186901Y-10626821D01*
X29183395Y-10624796D01*
X29183382Y-10624791D01*
X29081529Y-10597500D01*
X29081527Y-10597500D01*
X28976073Y-10597500D01*
X28976071Y-10597500D01*
X28874217Y-10624791D01*
X28874208Y-10624795D01*
X28782886Y-10677520D01*
X28708320Y-10752086D01*
X28655595Y-10843408D01*
X28655591Y-10843417D01*
X28628300Y-10945270D01*
X28628300Y-11042943D01*
X28606626Y-11095269D01*
X28554300Y-11116943D01*
X28501974Y-11095269D01*
X26924378Y-9517673D01*
X26924378Y-9517672D01*
X26850538Y-9443832D01*
X26850536Y-9443830D01*
X26837047Y-9438242D01*
X26826258Y-9433773D01*
X26826258Y-9433772D01*
X26767655Y-9409499D01*
X26677945Y-9409499D01*
X26669333Y-9409499D01*
X26669325Y-9409500D01*
X25925624Y-9409500D01*
X25873298Y-9387826D01*
X25858557Y-9366774D01*
X25838268Y-9323266D01*
X25822850Y-9290201D01*
X25788003Y-9255354D01*
X25772089Y-9216934D01*
X25766329Y-9203030D01*
X25766329Y-9203028D01*
X25788002Y-9150704D01*
X25810970Y-9127736D01*
X25810970Y-9127734D01*
X25821378Y-9117326D01*
X26075127Y-8863577D01*
X26075130Y-8863575D01*
X26085535Y-8853170D01*
X26085536Y-8853170D01*
X26148970Y-8789736D01*
X26183300Y-8706855D01*
X26183300Y-5894057D01*
X26204974Y-5841731D01*
X26257300Y-5820057D01*
X26309626Y-5841731D01*
X27523826Y-7055931D01*
X27545500Y-7108257D01*
X27545500Y-7211929D01*
X27572791Y-7313782D01*
X27572795Y-7313791D01*
X27609899Y-7378057D01*
X27625520Y-7405113D01*
X27700087Y-7479680D01*
X27791413Y-7532407D01*
X27893270Y-7559699D01*
X27893271Y-7559700D01*
X27893273Y-7559700D01*
X27998729Y-7559700D01*
X27998729Y-7559699D01*
X28100587Y-7532407D01*
X28191913Y-7479680D01*
X28266480Y-7405113D01*
X28319207Y-7313787D01*
X28346499Y-7211929D01*
X28346500Y-7211929D01*
X28346500Y-7106471D01*
X28346499Y-7106470D01*
X28344520Y-7099086D01*
X28319207Y-7004613D01*
X28266480Y-6913287D01*
X28191913Y-6838720D01*
X28162042Y-6821474D01*
X28100591Y-6785995D01*
X28100582Y-6785991D01*
X27998729Y-6758700D01*
X27998727Y-6758700D01*
X27895057Y-6758700D01*
X27842731Y-6737026D01*
X27092250Y-5986545D01*
X33538200Y-5986545D01*
X33538200Y-6133454D01*
X33566858Y-6277535D01*
X33566861Y-6277546D01*
X33623078Y-6413266D01*
X33699139Y-6527100D01*
X33704699Y-6535420D01*
X33808580Y-6639301D01*
X33930731Y-6720920D01*
X33930732Y-6720920D01*
X33930733Y-6720921D01*
X34048279Y-6769610D01*
X34066458Y-6777140D01*
X34210545Y-6805800D01*
X34357455Y-6805800D01*
X34501542Y-6777140D01*
X34637269Y-6720920D01*
X34759420Y-6639301D01*
X34863301Y-6535420D01*
X34944920Y-6413269D01*
X35001140Y-6277542D01*
X35029800Y-6133455D01*
X35029800Y-5986545D01*
X35001140Y-5842458D01*
X34989275Y-5813813D01*
X34944921Y-5706733D01*
X34944584Y-5706229D01*
X34863301Y-5584580D01*
X34759420Y-5480699D01*
X34748918Y-5473682D01*
X34637266Y-5399078D01*
X34501546Y-5342861D01*
X34501535Y-5342858D01*
X34357455Y-5314200D01*
X34210545Y-5314200D01*
X34066464Y-5342858D01*
X34066453Y-5342861D01*
X33930733Y-5399078D01*
X33808583Y-5480696D01*
X33704696Y-5584583D01*
X33623078Y-5706733D01*
X33566861Y-5842453D01*
X33566858Y-5842464D01*
X33538200Y-5986545D01*
X27092250Y-5986545D01*
X26622175Y-5516470D01*
X28818800Y-5516470D01*
X28818800Y-5621929D01*
X28846091Y-5723782D01*
X28846095Y-5723791D01*
X28882280Y-5786465D01*
X28898820Y-5815113D01*
X28973387Y-5889680D01*
X29064713Y-5942407D01*
X29166570Y-5969699D01*
X29166571Y-5969700D01*
X29166573Y-5969700D01*
X29272029Y-5969700D01*
X29272029Y-5969699D01*
X29373887Y-5942407D01*
X29465213Y-5889680D01*
X29539780Y-5815113D01*
X29592507Y-5723787D01*
X29619799Y-5621929D01*
X29619800Y-5621929D01*
X29619800Y-5516471D01*
X29619799Y-5516470D01*
X29604604Y-5459762D01*
X29592507Y-5414613D01*
X29539780Y-5323287D01*
X29465213Y-5248720D01*
X29415252Y-5219875D01*
X29373891Y-5195995D01*
X29373882Y-5195991D01*
X29272029Y-5168700D01*
X29272027Y-5168700D01*
X29166573Y-5168700D01*
X29166571Y-5168700D01*
X29064717Y-5195991D01*
X29064708Y-5195995D01*
X28973386Y-5248720D01*
X28898820Y-5323286D01*
X28846095Y-5414608D01*
X28846091Y-5414617D01*
X28818800Y-5516470D01*
X26622175Y-5516470D01*
X25535978Y-4430273D01*
X25535978Y-4430272D01*
X25462138Y-4356432D01*
X25462136Y-4356430D01*
X25437863Y-4346375D01*
X25437858Y-4346373D01*
X25437858Y-4346372D01*
X25379255Y-4322099D01*
X25289545Y-4322099D01*
X25280933Y-4322099D01*
X25280925Y-4322100D01*
X22149275Y-4322100D01*
X22149267Y-4322099D01*
X22140655Y-4322099D01*
X22050945Y-4322099D01*
X21992339Y-4346374D01*
X21992337Y-4346375D01*
X21992336Y-4346374D01*
X21968063Y-4356430D01*
X20307630Y-6016863D01*
X20303762Y-6026202D01*
X20273299Y-6099744D01*
X20273299Y-6198066D01*
X20273300Y-6198075D01*
X20273300Y-8356973D01*
X20273299Y-8356987D01*
X20273299Y-8452655D01*
X20284859Y-8480563D01*
X20307629Y-8535534D01*
X20307631Y-8535537D01*
X20381471Y-8609377D01*
X20381473Y-8609378D01*
X20894768Y-9122673D01*
X20906379Y-9150704D01*
X20915561Y-9172873D01*
X20916442Y-9174999D01*
X20898548Y-9218200D01*
X20894769Y-9227324D01*
X20862266Y-9259828D01*
X20798828Y-9323266D01*
X20790355Y-9343724D01*
X20790355Y-9343725D01*
X20764499Y-9406144D01*
X20764499Y-9504466D01*
X20764500Y-9504475D01*
X20764500Y-9995043D01*
X20742826Y-10047369D01*
X20690500Y-10069043D01*
X20638174Y-10047369D01*
X19286050Y-8695245D01*
X19275370Y-8684565D01*
X19275370Y-8684564D01*
X19211936Y-8621130D01*
X19209343Y-8620056D01*
X19202296Y-8613148D01*
X19193702Y-8592973D01*
X19181519Y-8574741D01*
X19182925Y-8567671D01*
X19180101Y-8561041D01*
X19188289Y-8540699D01*
X19192567Y-8519192D01*
X19199598Y-8512605D01*
X19201251Y-8508501D01*
X19206258Y-8506368D01*
X19217094Y-8496218D01*
X19245913Y-8479580D01*
X19320480Y-8405013D01*
X19373207Y-8313687D01*
X19400499Y-8211829D01*
X19400500Y-8211829D01*
X19400500Y-8106371D01*
X19400499Y-8106370D01*
X19396885Y-8092884D01*
X19373207Y-8004513D01*
X19320480Y-7913187D01*
X19245913Y-7838620D01*
X19234468Y-7832012D01*
X19199991Y-7787080D01*
X19207383Y-7730927D01*
X19234468Y-7703841D01*
X19300913Y-7665480D01*
X19375480Y-7590913D01*
X19428207Y-7499587D01*
X19455499Y-7397729D01*
X19455500Y-7397729D01*
X19455500Y-7292271D01*
X19455499Y-7292270D01*
X19448923Y-7267729D01*
X19428207Y-7190413D01*
X19375480Y-7099087D01*
X19300913Y-7024520D01*
X19266433Y-7004613D01*
X19209591Y-6971795D01*
X19209582Y-6971791D01*
X19107729Y-6944500D01*
X19107727Y-6944500D01*
X19002273Y-6944500D01*
X19002271Y-6944500D01*
X18900417Y-6971791D01*
X18900408Y-6971795D01*
X18809086Y-7024520D01*
X18734520Y-7099086D01*
X18681795Y-7190408D01*
X18681791Y-7190417D01*
X18654500Y-7292270D01*
X18654500Y-7397729D01*
X18681791Y-7499582D01*
X18681795Y-7499591D01*
X18700742Y-7532408D01*
X18734520Y-7590913D01*
X18809087Y-7665480D01*
X18820528Y-7672085D01*
X18855008Y-7717018D01*
X18847617Y-7773170D01*
X18820531Y-7800257D01*
X18754087Y-7838619D01*
X18679519Y-7913187D01*
X18627656Y-8003015D01*
X18582723Y-8037493D01*
X18526570Y-8030099D01*
X18511245Y-8018340D01*
X17985078Y-7492173D01*
X17985078Y-7492172D01*
X17911237Y-7418331D01*
X17911233Y-7418328D01*
X17879327Y-7405113D01*
X17828355Y-7383999D01*
X17738645Y-7383999D01*
X17730033Y-7383999D01*
X17730025Y-7384000D01*
X16398969Y-7384000D01*
X16346643Y-7362326D01*
X16324969Y-7310000D01*
X16346643Y-7257674D01*
X16369077Y-7242305D01*
X16409141Y-7224616D01*
X16484616Y-7149141D01*
X16527730Y-7051498D01*
X16530500Y-7027623D01*
X16530499Y-6572378D01*
X16527730Y-6548502D01*
X16484616Y-6450859D01*
X16409141Y-6375384D01*
X16311498Y-6332270D01*
X16287623Y-6329500D01*
X16287619Y-6329500D01*
X15989057Y-6329500D01*
X15936731Y-6307826D01*
X15776878Y-6147973D01*
X15776878Y-6147972D01*
X15703038Y-6074132D01*
X15703036Y-6074130D01*
X15702414Y-6073872D01*
X15678758Y-6064073D01*
X15678758Y-6064072D01*
X15620155Y-6039799D01*
X15530445Y-6039799D01*
X15521833Y-6039799D01*
X15521825Y-6039800D01*
X15115357Y-6039800D01*
X15063031Y-6018126D01*
X15041357Y-5965800D01*
X15063031Y-5913474D01*
X15410231Y-5566274D01*
X15462557Y-5544600D01*
X16670055Y-5544600D01*
X16722381Y-5566274D01*
X16795687Y-5639580D01*
X16887013Y-5692307D01*
X16988870Y-5719599D01*
X16988871Y-5719600D01*
X16988873Y-5719600D01*
X17094329Y-5719600D01*
X17094329Y-5719599D01*
X17196187Y-5692307D01*
X17287513Y-5639580D01*
X17362080Y-5565013D01*
X17414807Y-5473687D01*
X17442099Y-5371829D01*
X17442100Y-5371829D01*
X17442100Y-5266373D01*
X17429641Y-5219875D01*
X17429641Y-5219873D01*
X17425808Y-5205570D01*
X18897000Y-5205570D01*
X18897000Y-5311029D01*
X18924291Y-5412882D01*
X18924295Y-5412891D01*
X18944243Y-5447442D01*
X18977020Y-5504213D01*
X19051587Y-5578780D01*
X19142913Y-5631507D01*
X19244770Y-5658799D01*
X19244771Y-5658800D01*
X19244773Y-5658800D01*
X19350229Y-5658800D01*
X19350229Y-5658799D01*
X19452087Y-5631507D01*
X19543413Y-5578780D01*
X19617980Y-5504213D01*
X19670707Y-5412887D01*
X19697999Y-5311029D01*
X19698000Y-5311029D01*
X19698000Y-5205571D01*
X19697999Y-5205570D01*
X19695433Y-5195995D01*
X19670707Y-5103713D01*
X19617980Y-5012387D01*
X19543413Y-4937820D01*
X19525935Y-4927729D01*
X19452091Y-4885095D01*
X19452082Y-4885091D01*
X19350229Y-4857800D01*
X19350227Y-4857800D01*
X19244773Y-4857800D01*
X19244771Y-4857800D01*
X19142917Y-4885091D01*
X19142908Y-4885095D01*
X19051586Y-4937820D01*
X18977020Y-5012386D01*
X18924295Y-5103708D01*
X18924291Y-5103717D01*
X18897000Y-5205570D01*
X17425808Y-5205570D01*
X17414808Y-5164517D01*
X17414807Y-5164513D01*
X17362080Y-5073187D01*
X17287513Y-4998620D01*
X17221487Y-4960500D01*
X17196191Y-4945895D01*
X17196182Y-4945891D01*
X17094329Y-4918600D01*
X17094327Y-4918600D01*
X16988873Y-4918600D01*
X16988871Y-4918600D01*
X16887017Y-4945891D01*
X16887008Y-4945895D01*
X16795686Y-4998620D01*
X16722381Y-5071926D01*
X16670055Y-5093600D01*
X15666757Y-5093600D01*
X15614431Y-5071926D01*
X15592757Y-5019600D01*
X15614431Y-4967274D01*
X16302735Y-4278970D01*
X18111500Y-4278970D01*
X18111500Y-4384429D01*
X18138791Y-4486282D01*
X18138795Y-4486291D01*
X18191520Y-4577613D01*
X18266087Y-4652180D01*
X18357413Y-4704907D01*
X18459270Y-4732199D01*
X18459271Y-4732200D01*
X18459273Y-4732200D01*
X18564729Y-4732200D01*
X18564729Y-4732199D01*
X18666587Y-4704907D01*
X18757913Y-4652180D01*
X18832480Y-4577613D01*
X18885207Y-4486287D01*
X18912499Y-4384429D01*
X18912500Y-4384429D01*
X18912500Y-4278971D01*
X18912499Y-4278970D01*
X18885208Y-4177117D01*
X18885207Y-4177113D01*
X18832480Y-4085787D01*
X18757913Y-4011220D01*
X18749769Y-4006518D01*
X18666591Y-3958495D01*
X18666582Y-3958491D01*
X18660905Y-3956970D01*
X27432900Y-3956970D01*
X27432900Y-4062429D01*
X27460191Y-4164282D01*
X27460192Y-4164285D01*
X27460193Y-4164287D01*
X27512920Y-4255613D01*
X27587487Y-4330180D01*
X27678813Y-4382907D01*
X27780670Y-4410199D01*
X27780671Y-4410200D01*
X27884343Y-4410200D01*
X27936669Y-4431874D01*
X28132529Y-4627734D01*
X28132530Y-4627736D01*
X28195964Y-4691170D01*
X28220239Y-4701225D01*
X28261363Y-4718259D01*
X28300739Y-4756735D01*
X28336187Y-4837016D01*
X28412984Y-4913813D01*
X28512338Y-4957682D01*
X28536627Y-4960500D01*
X28903372Y-4960499D01*
X28927662Y-4957682D01*
X29027016Y-4913813D01*
X29103813Y-4837016D01*
X29147682Y-4737662D01*
X29150500Y-4713373D01*
X29150499Y-4286628D01*
X29147682Y-4262338D01*
X29103813Y-4162984D01*
X29027016Y-4086187D01*
X28927662Y-4042318D01*
X28927663Y-4042318D01*
X28922804Y-4041754D01*
X28903373Y-4039500D01*
X28903369Y-4039500D01*
X28536627Y-4039500D01*
X28512340Y-4042317D01*
X28412983Y-4086187D01*
X28373214Y-4125957D01*
X28320888Y-4147631D01*
X28268562Y-4125957D01*
X28255574Y-4112969D01*
X28233900Y-4060643D01*
X28233900Y-3956971D01*
X28233899Y-3956970D01*
X28206608Y-3855117D01*
X28206607Y-3855113D01*
X28153880Y-3763787D01*
X28079313Y-3689220D01*
X28053478Y-3674304D01*
X27987991Y-3636495D01*
X27987982Y-3636491D01*
X27886129Y-3609200D01*
X27886127Y-3609200D01*
X27780673Y-3609200D01*
X27780671Y-3609200D01*
X27678817Y-3636491D01*
X27678808Y-3636495D01*
X27587486Y-3689220D01*
X27512920Y-3763786D01*
X27460195Y-3855108D01*
X27460191Y-3855117D01*
X27432900Y-3956970D01*
X18660905Y-3956970D01*
X18564729Y-3931200D01*
X18564727Y-3931200D01*
X18459273Y-3931200D01*
X18459271Y-3931200D01*
X18357417Y-3958491D01*
X18357408Y-3958495D01*
X18266086Y-4011220D01*
X18191520Y-4085786D01*
X18138795Y-4177108D01*
X18138791Y-4177117D01*
X18111500Y-4278970D01*
X16302735Y-4278970D01*
X17333335Y-3248370D01*
X18769200Y-3248370D01*
X18769200Y-3353829D01*
X18796491Y-3455682D01*
X18796495Y-3455691D01*
X18829582Y-3512999D01*
X18849220Y-3547013D01*
X18923787Y-3621580D01*
X19015113Y-3674307D01*
X19116970Y-3701599D01*
X19116971Y-3701600D01*
X19116973Y-3701600D01*
X19222429Y-3701600D01*
X19222429Y-3701599D01*
X19324287Y-3674307D01*
X19415613Y-3621580D01*
X19490180Y-3547013D01*
X19542907Y-3455687D01*
X19570199Y-3353829D01*
X19570200Y-3353829D01*
X19570200Y-3248371D01*
X19570199Y-3248370D01*
X19542908Y-3146517D01*
X19542907Y-3146513D01*
X19490180Y-3055187D01*
X19415613Y-2980620D01*
X19376275Y-2957908D01*
X19324291Y-2927895D01*
X19324282Y-2927891D01*
X19232133Y-2903200D01*
X19232130Y-2903200D01*
X19222427Y-2900600D01*
X19116973Y-2900600D01*
X19107270Y-2903200D01*
X19107267Y-2903200D01*
X19015117Y-2927891D01*
X19015108Y-2927895D01*
X18923786Y-2980620D01*
X18849220Y-3055186D01*
X18796495Y-3146508D01*
X18796491Y-3146517D01*
X18769200Y-3248370D01*
X17333335Y-3248370D01*
X17804831Y-2776874D01*
X17857157Y-2755200D01*
X30960555Y-2755200D01*
X31012881Y-2776874D01*
X31086187Y-2850180D01*
X31177513Y-2902907D01*
X31279370Y-2930199D01*
X31279371Y-2930200D01*
X31325500Y-2930200D01*
X31377826Y-2951874D01*
X31399500Y-3004200D01*
X31399500Y-4006519D01*
X31414353Y-4100304D01*
X31414354Y-4100306D01*
X31453490Y-4177113D01*
X31471950Y-4213342D01*
X31561658Y-4303050D01*
X31674696Y-4360646D01*
X31768481Y-4375500D01*
X32331518Y-4375499D01*
X32331519Y-4375499D01*
X32425304Y-4360646D01*
X32425306Y-4360645D01*
X32453318Y-4346372D01*
X32538342Y-4303050D01*
X32628050Y-4213342D01*
X32685646Y-4100304D01*
X32700500Y-4006519D01*
X32700499Y-3530211D01*
X32722173Y-3477886D01*
X32774499Y-3456212D01*
X32811498Y-3466126D01*
X32845413Y-3485707D01*
X32947270Y-3512999D01*
X32947271Y-3513000D01*
X32947273Y-3513000D01*
X33052729Y-3513000D01*
X33052729Y-3512999D01*
X33154587Y-3485707D01*
X33245913Y-3432980D01*
X33320480Y-3358413D01*
X33373207Y-3267087D01*
X33400499Y-3165229D01*
X33400500Y-3165229D01*
X33400500Y-3059771D01*
X33400499Y-3059770D01*
X33379127Y-2980009D01*
X33373207Y-2957913D01*
X33320480Y-2866587D01*
X33245913Y-2792020D01*
X33244126Y-2790988D01*
X33154591Y-2739295D01*
X33154582Y-2739291D01*
X33052729Y-2712000D01*
X33052727Y-2712000D01*
X32947273Y-2712000D01*
X32947271Y-2712000D01*
X32845417Y-2739291D01*
X32845408Y-2739295D01*
X32754086Y-2792020D01*
X32744421Y-2801685D01*
X32692094Y-2823357D01*
X32639769Y-2801681D01*
X32631999Y-2790988D01*
X32631474Y-2791370D01*
X32628051Y-2786659D01*
X32538343Y-2696951D01*
X32538342Y-2696950D01*
X32425304Y-2639354D01*
X32425302Y-2639353D01*
X32425301Y-2639353D01*
X32331520Y-2624500D01*
X31806600Y-2624500D01*
X31754274Y-2602826D01*
X31732600Y-2550500D01*
X31732600Y-2476971D01*
X31732599Y-2476970D01*
X31705308Y-2375117D01*
X31705307Y-2375113D01*
X31652580Y-2283787D01*
X31578013Y-2209220D01*
X31555860Y-2196430D01*
X31486691Y-2156495D01*
X31486682Y-2156491D01*
X31384829Y-2129200D01*
X31384827Y-2129200D01*
X31279373Y-2129200D01*
X31279371Y-2129200D01*
X31177517Y-2156491D01*
X31177508Y-2156495D01*
X31086186Y-2209220D01*
X31012881Y-2282526D01*
X30960555Y-2304200D01*
X17688245Y-2304200D01*
X17605366Y-2338528D01*
X17541929Y-2401965D01*
X14351825Y-5592068D01*
X14299499Y-5613742D01*
X14247173Y-5592068D01*
X14225499Y-5539744D01*
X14225499Y-4818482D01*
X14224955Y-4815049D01*
X14210646Y-4724695D01*
X14210645Y-4724693D01*
X14173697Y-4652180D01*
X14153050Y-4611658D01*
X14063342Y-4521950D01*
X13950304Y-4464354D01*
X13950302Y-4464353D01*
X13950301Y-4464353D01*
X13856519Y-4449500D01*
X12493480Y-4449500D01*
X12399695Y-4464353D01*
X12399693Y-4464354D01*
X12286657Y-4521950D01*
X12196951Y-4611656D01*
X12139353Y-4724698D01*
X12124500Y-4818480D01*
X12124500Y-5581518D01*
X12133846Y-5640524D01*
X12132420Y-5646460D01*
X12134757Y-5652100D01*
X12125978Y-5673292D01*
X12120624Y-5695597D01*
X12115418Y-5698786D01*
X12113083Y-5704426D01*
X12091891Y-5713203D01*
X12072333Y-5725189D01*
X12060757Y-5726100D01*
X12046257Y-5726100D01*
X11993931Y-5704426D01*
X11044678Y-4755173D01*
X11044678Y-4755172D01*
X10970838Y-4681332D01*
X10970836Y-4681330D01*
X10970832Y-4681328D01*
X10946558Y-4671273D01*
X10946558Y-4671272D01*
X10887955Y-4646999D01*
X10798245Y-4646999D01*
X10789633Y-4646999D01*
X10789625Y-4647000D01*
X10464075Y-4647000D01*
X10464067Y-4646999D01*
X10455455Y-4646999D01*
X10365746Y-4646999D01*
X10317194Y-4667108D01*
X10317195Y-4667109D01*
X10282867Y-4681328D01*
X10282865Y-4681329D01*
X10219430Y-4744764D01*
X9108830Y-5855363D01*
X9106863Y-5860111D01*
X9106861Y-5860118D01*
X9074499Y-5938245D01*
X9074499Y-5984935D01*
X9072130Y-5994073D01*
X9060325Y-6009717D01*
X9052825Y-6027826D01*
X9043860Y-6031539D01*
X9038017Y-6039284D01*
X9018607Y-6041999D01*
X9000499Y-6049500D01*
X8630136Y-6049500D01*
X8605013Y-6052414D01*
X8605007Y-6052415D01*
X8502234Y-6097794D01*
X8422794Y-6177234D01*
X8413596Y-6198066D01*
X8405014Y-6217504D01*
X8399324Y-6230390D01*
X8358361Y-6269503D01*
X8331629Y-6274500D01*
X7970545Y-6274500D01*
X7887666Y-6308828D01*
X7887663Y-6308831D01*
X3798829Y-10397664D01*
X3798829Y-10397665D01*
X3791982Y-10414197D01*
X3791981Y-10414200D01*
X3764499Y-10480545D01*
X3764499Y-10578866D01*
X3764500Y-10578875D01*
X3764500Y-13994649D01*
X3742826Y-14046975D01*
X3720392Y-14062343D01*
X3690859Y-14075383D01*
X3615385Y-14150857D01*
X3573873Y-14244872D01*
X3572270Y-14248502D01*
X3569627Y-14271287D01*
X3569500Y-14272380D01*
X100500Y-14272380D01*
X100500Y-11814231D01*
X1519500Y-11814231D01*
X1519500Y-11965768D01*
X1558717Y-12112130D01*
X1558721Y-12112139D01*
X1630583Y-12236607D01*
X1634485Y-12243365D01*
X1741635Y-12350515D01*
X1872865Y-12426281D01*
X2019231Y-12465499D01*
X2019232Y-12465500D01*
X2019234Y-12465500D01*
X2170768Y-12465500D01*
X2170768Y-12465499D01*
X2317135Y-12426281D01*
X2448365Y-12350515D01*
X2555515Y-12243365D01*
X2631281Y-12112135D01*
X2670499Y-11965768D01*
X2670500Y-11965768D01*
X2670500Y-11814232D01*
X2670499Y-11814231D01*
X2666932Y-11800920D01*
X2631281Y-11667865D01*
X2555515Y-11536635D01*
X2448365Y-11429485D01*
X2448362Y-11429483D01*
X2317139Y-11353721D01*
X2317130Y-11353717D01*
X2170768Y-11314500D01*
X2170766Y-11314500D01*
X2019234Y-11314500D01*
X2019232Y-11314500D01*
X1872869Y-11353717D01*
X1872860Y-11353721D01*
X1741637Y-11429483D01*
X1634483Y-11536637D01*
X1558721Y-11667860D01*
X1558717Y-11667869D01*
X1519500Y-11814231D01*
X100500Y-11814231D01*
X100500Y-9559770D01*
X1881700Y-9559770D01*
X1881700Y-9665229D01*
X1908991Y-9767082D01*
X1908995Y-9767091D01*
X1947149Y-9833176D01*
X1961720Y-9858413D01*
X2036287Y-9932980D01*
X2127613Y-9985707D01*
X2229470Y-10012999D01*
X2229471Y-10013000D01*
X2229473Y-10013000D01*
X2334929Y-10013000D01*
X2334929Y-10012999D01*
X2436787Y-9985707D01*
X2528113Y-9932980D01*
X2602680Y-9858413D01*
X2655407Y-9767087D01*
X2682699Y-9665229D01*
X2682700Y-9665229D01*
X2682700Y-9559771D01*
X2682699Y-9559770D01*
X2666370Y-9498830D01*
X2655407Y-9457913D01*
X2602680Y-9366587D01*
X2528113Y-9292020D01*
X2481706Y-9265227D01*
X2436791Y-9239295D01*
X2436782Y-9239291D01*
X2334929Y-9212000D01*
X2334927Y-9212000D01*
X2229473Y-9212000D01*
X2229471Y-9212000D01*
X2127617Y-9239291D01*
X2127608Y-9239295D01*
X2036286Y-9292020D01*
X1961720Y-9366586D01*
X1908995Y-9457908D01*
X1908991Y-9457917D01*
X1881700Y-9559770D01*
X100500Y-9559770D01*
X100500Y-8197270D01*
X2799500Y-8197270D01*
X2799500Y-8302729D01*
X2826791Y-8404582D01*
X2826795Y-8404591D01*
X2848542Y-8442257D01*
X2879520Y-8495913D01*
X2954087Y-8570480D01*
X3045413Y-8623207D01*
X3147270Y-8650499D01*
X3147271Y-8650500D01*
X3147273Y-8650500D01*
X3252729Y-8650500D01*
X3252729Y-8650499D01*
X3354587Y-8623207D01*
X3445913Y-8570480D01*
X3520480Y-8495913D01*
X3573207Y-8404587D01*
X3600499Y-8302729D01*
X3600500Y-8302729D01*
X3600500Y-8197271D01*
X3600499Y-8197270D01*
X3592072Y-8165821D01*
X3573207Y-8095413D01*
X3520480Y-8004087D01*
X3445913Y-7929520D01*
X3428005Y-7919181D01*
X3354591Y-7876795D01*
X3354582Y-7876791D01*
X3252729Y-7849500D01*
X3252727Y-7849500D01*
X3147273Y-7849500D01*
X3147271Y-7849500D01*
X3045417Y-7876791D01*
X3045408Y-7876795D01*
X2954086Y-7929520D01*
X2879520Y-8004086D01*
X2826795Y-8095408D01*
X2826791Y-8095417D01*
X2799500Y-8197270D01*
X100500Y-8197270D01*
X100500Y-6986070D01*
X4781900Y-6986070D01*
X4781900Y-7091529D01*
X4809191Y-7193382D01*
X4809195Y-7193391D01*
X4853714Y-7270499D01*
X4861920Y-7284713D01*
X4936487Y-7359280D01*
X5027813Y-7412007D01*
X5129670Y-7439299D01*
X5129671Y-7439300D01*
X5129673Y-7439300D01*
X5235129Y-7439300D01*
X5235129Y-7439299D01*
X5336987Y-7412007D01*
X5428313Y-7359280D01*
X5502880Y-7284713D01*
X5555607Y-7193387D01*
X5582899Y-7091529D01*
X5582900Y-7091529D01*
X5582900Y-6986071D01*
X5582899Y-6986070D01*
X5578587Y-6969979D01*
X5555607Y-6884213D01*
X5502880Y-6792887D01*
X5428313Y-6718320D01*
X5371467Y-6685500D01*
X5336991Y-6665595D01*
X5336982Y-6665591D01*
X5235129Y-6638300D01*
X5235127Y-6638300D01*
X5129673Y-6638300D01*
X5129671Y-6638300D01*
X5027817Y-6665591D01*
X5027808Y-6665595D01*
X4936486Y-6718320D01*
X4861920Y-6792886D01*
X4809195Y-6884208D01*
X4809191Y-6884217D01*
X4781900Y-6986070D01*
X100500Y-6986070D01*
X100500Y-6034231D01*
X1519500Y-6034231D01*
X1519500Y-6185768D01*
X1558717Y-6332130D01*
X1558721Y-6332139D01*
X1634483Y-6463362D01*
X1634485Y-6463365D01*
X1741635Y-6570515D01*
X1872865Y-6646281D01*
X2019231Y-6685499D01*
X2019232Y-6685500D01*
X2019234Y-6685500D01*
X2170768Y-6685500D01*
X2170768Y-6685499D01*
X2317135Y-6646281D01*
X2448365Y-6570515D01*
X2555515Y-6463365D01*
X2631281Y-6332135D01*
X2670499Y-6185768D01*
X2670500Y-6185768D01*
X2670500Y-6034232D01*
X2670499Y-6034231D01*
X2669840Y-6031773D01*
X2631281Y-5887865D01*
X2555515Y-5756635D01*
X2448365Y-5649485D01*
X2441496Y-5645519D01*
X2317139Y-5573721D01*
X2317130Y-5573717D01*
X2170768Y-5534500D01*
X2170766Y-5534500D01*
X2019234Y-5534500D01*
X2019232Y-5534500D01*
X1872869Y-5573717D01*
X1872860Y-5573721D01*
X1741637Y-5649483D01*
X1634483Y-5756637D01*
X1558721Y-5887860D01*
X1558717Y-5887869D01*
X1519500Y-6034231D01*
X100500Y-6034231D01*
X100500Y-3002083D01*
X100616Y-2997934D01*
X104549Y-2927895D01*
X118499Y-2679492D01*
X119429Y-2671254D01*
X124849Y-2639354D01*
X172502Y-2358889D01*
X174341Y-2350828D01*
X262065Y-2046332D01*
X264797Y-2038525D01*
X386055Y-1745781D01*
X389646Y-1738324D01*
X542918Y-1461001D01*
X547319Y-1453996D01*
X730678Y-1195576D01*
X735844Y-1189099D01*
X863622Y-1046115D01*
X946979Y-952837D01*
X952837Y-946979D01*
X1189099Y-735843D01*
X1195576Y-730678D01*
X1453996Y-547319D01*
X1461001Y-542918D01*
X1738324Y-389646D01*
X1745781Y-386055D01*
X2038525Y-264797D01*
X2046332Y-262065D01*
X2350828Y-174341D01*
X2358889Y-172502D01*
X2671262Y-119428D01*
X2679492Y-118499D01*
X2997934Y-100615D01*
X3002083Y-100500D01*
X3026929Y-100500D01*
X41426000Y-100500D01*
X41478326Y-122174D01*
G37*
%TD.AperFunction*%
%TD*%
M02*
