M48
; DRILL file {KiCad 9.0.9-9.0.9~ubuntu22.04.1} date 2026-08-30T16:40:41+0000
; FORMAT={-:-/ absolute / metric / decimal}
; #@! TF.CreationDate,2026-08-30T16:40:41+00:00
; #@! TF.GenerationSoftware,Kicad,Pcbnew,9.0.9-9.0.9~ubuntu22.04.1
; #@! TF.FileFunction,Plated,1,4,PTH
FMAT,2
METRIC
; #@! TA.AperFunction,Plated,PTH,ViaDrill
T1C0.250
; #@! TA.AperFunction,Plated,PTH,ComponentDrill
T2C0.600
%
G90
G05
T1
X2.282Y-9.612
X3.0Y-2.5
X3.0Y-13.0
X3.2Y-8.25
X5.182Y-7.039
X6.236Y-10.295
X6.927Y-10.888
X8.2Y-9.0
X9.0Y-9.5
X10.35Y-13.15
X10.649Y-5.326
X11.0Y-15.5
X11.012Y-7.21
X12.0Y-2.5
X12.054Y-6.127
X13.404Y-8.001
X14.855Y-9.213
X14.963Y-8.226
X17.042Y-5.319
X17.177Y-9.644
X17.909Y-11.756
X18.0Y-15.5
X18.05Y-14.117
X18.196Y-16.485
X18.512Y-4.332
X19.0Y-8.159
X19.055Y-7.345
X19.17Y-3.301
X19.232Y-10.392
X19.297Y-5.258
X19.607Y-14.863
X19.68Y-8.687
X20.0Y-6.0
X21.585Y-7.262
X21.616Y-14.932
X21.998Y-5.299
X22.448Y-9.595
X22.706Y-11.616
X22.88Y-16.93
X23.016Y-7.885
X23.4Y-14.205
X23.758Y-7.814
X23.845Y-13.29
X23.874Y-5.349
X25.164Y-5.103
X25.26Y-5.844
X25.266Y-16.4
X25.396Y-11.808
X25.985Y-16.92
X26.692Y-14.79
X27.466Y-12.843
X27.688Y-14.806
X27.833Y-4.01
X27.946Y-7.159
X28.0Y-9.5
X28.951Y-11.863
X29.029Y-10.998
X29.219Y-5.569
X29.977Y-11.1
X30.066Y-8.505
X30.42Y-15.009
X30.496Y-9.836
X30.632Y-11.862
X30.887Y-14.396
X31.207Y-13.748
X31.332Y-2.53
X31.914Y-14.635
X33.0Y-3.112
X33.0Y-6.0
X33.073Y-11.862
X33.637Y-15.068
X35.0Y-15.5
X35.865Y-14.887
X36.667Y-15.203
T2
X1.045Y-4.68G85X2.145Y-4.68
G05
X1.045Y-13.32G85X2.145Y-13.32
G05
X5.375Y-4.68G85X6.175Y-4.68
G05
X5.375Y-13.32G85X6.175Y-13.32
G05
M30
