%TF.GenerationSoftware,KiCad,Pcbnew,9.0.9-9.0.9~ubuntu22.04.1*%
%TF.CreationDate,2026-08-30T16:40:41+00:00*%
%TF.ProjectId,anticipy_r1,616e7469-6369-4707-995f-72312e6b6963,rev?*%
%TF.SameCoordinates,Original*%
%TF.FileFunction,Soldermask,Top*%
%TF.FilePolarity,Negative*%
%FSLAX46Y46*%
G04 Gerber Fmt 4.6, Leading zero omitted, Abs format (unit mm)*
G04 Created by KiCad (PCBNEW 9.0.9-9.0.9~ubuntu22.04.1) date 2026-08-30 16:40:41*
%MOMM*%
%LPD*%
G01*
G04 APERTURE LIST*
G04 Aperture macros list*
%AMRoundRect*
0 Rectangle with rounded corners*
0 $1 Rounding radius*
0 $2 $3 $4 $5 $6 $7 $8 $9 X,Y pos of 4 corners*
0 Add a 4 corners polygon primitive as box body*
4,1,4,$2,$3,$4,$5,$6,$7,$8,$9,$2,$3,0*
0 Add four circle primitives for the rounded corners*
1,1,$1+$1,$2,$3*
1,1,$1+$1,$4,$5*
1,1,$1+$1,$6,$7*
1,1,$1+$1,$8,$9*
0 Add four rect primitives between the rounded corners*
20,1,$1+$1,$2,$3,$4,$5,0*
20,1,$1+$1,$4,$5,$6,$7,0*
20,1,$1+$1,$6,$7,$8,$9,0*
20,1,$1+$1,$8,$9,$2,$3,0*%
%AMFreePoly0*
4,1,64,0.235856,1.440014,0.383010,1.379061,0.515445,1.290571,0.628071,1.177945,0.716561,1.045510,0.777514,0.898356,0.808588,0.742139,0.808588,0.582861,0.777514,0.426644,0.716561,0.279490,0.628071,0.147055,0.515445,0.034429,0.383010,-0.054061,0.235856,-0.115014,0.079639,-0.146088,0.031751,-0.146088,0.029264,-0.147118,-0.029264,-0.147118,-0.031751,-0.146088,-0.079639,-0.146088,
-0.235856,-0.115014,-0.383010,-0.054061,-0.515445,0.034429,-0.628071,0.147055,-0.716561,0.279490,-0.777514,0.426644,-0.808588,0.582861,-0.808588,0.729972,-0.512500,0.729972,-0.512500,0.595028,-0.477574,0.464683,-0.410102,0.347818,-0.314682,0.252398,-0.197817,0.184926,-0.067472,0.150000,0.067472,0.150000,0.197817,0.184926,0.314682,0.252398,0.410102,0.347818,0.477574,0.464683,
0.512500,0.595028,0.512500,0.729972,0.477574,0.860317,0.410102,0.977182,0.314682,1.072602,0.197817,1.140074,0.067472,1.175000,-0.067472,1.175000,-0.197817,1.140074,-0.314682,1.072602,-0.410102,0.977182,-0.477574,0.860317,-0.512500,0.729972,-0.808588,0.729972,-0.808588,0.742139,-0.777514,0.898356,-0.716561,1.045510,-0.628071,1.177945,-0.515445,1.290571,-0.383010,1.379061,
-0.235856,1.440014,-0.079639,1.471088,0.079639,1.471088,0.235856,1.440014,0.235856,1.440014,$1*%
G04 Aperture macros list end*
%ADD10RoundRect,0.150000X0.150000X-0.512500X0.150000X0.512500X-0.150000X0.512500X-0.150000X-0.512500X0*%
%ADD11RoundRect,0.062500X-0.375000X-0.062500X0.375000X-0.062500X0.375000X0.062500X-0.375000X0.062500X0*%
%ADD12RoundRect,0.062500X-0.062500X-0.375000X0.062500X-0.375000X0.062500X0.375000X-0.062500X0.375000X0*%
%ADD13R,1.600000X1.600000*%
%ADD14RoundRect,0.225000X-0.225000X-0.250000X0.225000X-0.250000X0.225000X0.250000X-0.225000X0.250000X0*%
%ADD15RoundRect,0.150000X-0.512500X-0.150000X0.512500X-0.150000X0.512500X0.150000X-0.512500X0.150000X0*%
%ADD16RoundRect,0.135000X-0.135000X-0.185000X0.135000X-0.185000X0.135000X0.185000X-0.135000X0.185000X0*%
%ADD17RoundRect,0.250000X0.475000X-0.250000X0.475000X0.250000X-0.475000X0.250000X-0.475000X-0.250000X0*%
%ADD18RoundRect,0.250000X-0.250000X-0.475000X0.250000X-0.475000X0.250000X0.475000X-0.250000X0.475000X0*%
%ADD19C,0.500000*%
%ADD20R,0.725000X0.522000*%
%ADD21FreePoly0,0.000000*%
%ADD22R,0.400000X0.600000*%
%ADD23R,0.600000X0.400000*%
%ADD24C,0.700000*%
%ADD25RoundRect,0.250000X-0.450000X-0.275000X0.450000X-0.275000X0.450000X0.275000X-0.450000X0.275000X0*%
%ADD26RoundRect,0.218750X-0.218750X-0.256250X0.218750X-0.256250X0.218750X0.256250X-0.218750X0.256250X0*%
%ADD27RoundRect,0.135000X0.185000X-0.135000X0.185000X0.135000X-0.185000X0.135000X-0.185000X-0.135000X0*%
%ADD28C,0.650000*%
%ADD29RoundRect,0.150000X0.425000X-0.150000X0.425000X0.150000X-0.425000X0.150000X-0.425000X-0.150000X0*%
%ADD30RoundRect,0.075000X0.500000X-0.075000X0.500000X0.075000X-0.500000X0.075000X-0.500000X-0.075000X0*%
%ADD31O,2.100000X1.000000*%
%ADD32O,1.800000X1.000000*%
%ADD33C,0.990600*%
G04 APERTURE END LIST*
D10*
%TO.C,U3*%
X22250000Y-6437500D03*
X23200000Y-6437500D03*
X24150000Y-6437500D03*
X24150000Y-4162500D03*
X22250000Y-4162500D03*
%TD*%
D11*
%TO.C,U2*%
X13062500Y-4750000D03*
X13062500Y-5250000D03*
X13062500Y-5750000D03*
X13062500Y-6250000D03*
D12*
X13750000Y-6937500D03*
X14250000Y-6937500D03*
X14750000Y-6937500D03*
X15250000Y-6937500D03*
D11*
X15937500Y-6250000D03*
X15937500Y-5750000D03*
X15937500Y-5250000D03*
X15937500Y-4750000D03*
D12*
X15250000Y-4062500D03*
X14750000Y-4062500D03*
X14250000Y-4062500D03*
X13750000Y-4062500D03*
D13*
X14500000Y-5500000D03*
%TD*%
D14*
%TO.C,C5*%
X20825000Y-2200000D03*
X22375000Y-2200000D03*
%TD*%
D15*
%TO.C,U4*%
X10062500Y-8550000D03*
X10062500Y-9500000D03*
X10062500Y-10450000D03*
X12337500Y-10450000D03*
X12337500Y-9500000D03*
X12337500Y-8550000D03*
%TD*%
D16*
%TO.C,R4*%
X16290000Y-2200000D03*
X17310000Y-2200000D03*
%TD*%
D17*
%TO.C,C3*%
X10500000Y-14150000D03*
X10500000Y-12250000D03*
%TD*%
D18*
%TO.C,C4*%
X22050000Y-8500000D03*
X23950000Y-8500000D03*
%TD*%
D16*
%TO.C,R11*%
X16890000Y-12600000D03*
X17910000Y-12600000D03*
%TD*%
D19*
%TO.C,MK1*%
X19700000Y-16370000D03*
D20*
X18862500Y-14296000D03*
X18862500Y-15118000D03*
D21*
X19700000Y-17032500D03*
D20*
X20537500Y-15118000D03*
X20537500Y-14296000D03*
%TD*%
D16*
%TO.C,R2*%
X8790000Y-16000000D03*
X9810000Y-16000000D03*
%TD*%
D19*
%TO.C,MK2*%
X23400000Y-16370000D03*
D20*
X22562500Y-14296000D03*
X22562500Y-15118000D03*
D21*
X23400000Y-17032500D03*
D20*
X24237500Y-15118000D03*
X24237500Y-14296000D03*
%TD*%
D22*
%TO.C,U1*%
X37250000Y-4350000D03*
X36150000Y-4350000D03*
X35350000Y-4350000D03*
X33750000Y-4350000D03*
X33350000Y-5250000D03*
X32950000Y-4350000D03*
X32550000Y-5250000D03*
X32150000Y-4350000D03*
X31750000Y-5250000D03*
X31350000Y-4350000D03*
X30950000Y-5250000D03*
X30550000Y-4350000D03*
X30150000Y-5250000D03*
X29750000Y-4350000D03*
D23*
X26350000Y-4200000D03*
X26350000Y-5000000D03*
X26350000Y-5800000D03*
X26350000Y-6600000D03*
X27250000Y-7000000D03*
X26350000Y-7400000D03*
X27250000Y-7800000D03*
X26350000Y-8200000D03*
X27250000Y-8600000D03*
X26350000Y-9000000D03*
X27250000Y-9400000D03*
X26350000Y-9800000D03*
X27250000Y-10200000D03*
X26350000Y-10600000D03*
X27250000Y-11000000D03*
X26350000Y-11400000D03*
X26350000Y-12200000D03*
X26350000Y-13000000D03*
X26350000Y-13800000D03*
D22*
X27350000Y-13650000D03*
X28150000Y-13650000D03*
X28550000Y-12750000D03*
X28950000Y-13650000D03*
X29350000Y-12750000D03*
X29750000Y-13650000D03*
X30150000Y-12750000D03*
X30550000Y-13650000D03*
X30950000Y-12750000D03*
X31750000Y-12750000D03*
X32150000Y-13650000D03*
X32550000Y-12750000D03*
X32950000Y-13650000D03*
X33350000Y-12750000D03*
X33750000Y-13650000D03*
X34150000Y-12750000D03*
X34950000Y-12750000D03*
X35350000Y-13650000D03*
X35750000Y-12750000D03*
X36150000Y-13650000D03*
X36550000Y-12750000D03*
X37250000Y-13650000D03*
D23*
X32950000Y-7000000D03*
X32950000Y-7800000D03*
X32950000Y-8600000D03*
X32950000Y-9400000D03*
X32950000Y-10200000D03*
X32950000Y-11000000D03*
%TD*%
D16*
%TO.C,R10*%
X16890000Y-10400000D03*
X17910000Y-10400000D03*
%TD*%
D24*
%TO.C,SW1*%
X15100000Y-14500000D03*
X15100000Y-16300000D03*
D25*
X13300000Y-14680000D03*
X16900000Y-14680000D03*
X13300000Y-16120000D03*
X16900000Y-16120000D03*
%TD*%
D26*
%TO.C,D2*%
X19212500Y-12600000D03*
X20787500Y-12600000D03*
%TD*%
D16*
%TO.C,R7*%
X9990000Y-4000000D03*
X11010000Y-4000000D03*
%TD*%
%TO.C,R3*%
X14090000Y-2200000D03*
X15110000Y-2200000D03*
%TD*%
D18*
%TO.C,C2*%
X18050000Y-8500000D03*
X19950000Y-8500000D03*
%TD*%
D16*
%TO.C,R5*%
X18490000Y-2200000D03*
X19510000Y-2200000D03*
%TD*%
D27*
%TO.C,R6*%
X18500000Y-6010000D03*
X18500000Y-4990000D03*
%TD*%
D16*
%TO.C,R1*%
X8790000Y-2000000D03*
X9810000Y-2000000D03*
%TD*%
D28*
%TO.C,J1*%
X2095000Y-11890000D03*
X2095000Y-6110000D03*
D29*
X1020000Y-12200000D03*
X1020000Y-11400000D03*
D30*
X1020000Y-10250000D03*
X1020000Y-9250000D03*
X1020000Y-8750000D03*
X1020000Y-7750000D03*
D29*
X1020000Y-6600000D03*
X1020000Y-5800000D03*
X1020000Y-5800000D03*
X1020000Y-6600000D03*
D30*
X1020000Y-7250000D03*
X1020000Y-8250000D03*
X1020000Y-9750000D03*
X1020000Y-10750000D03*
D29*
X1020000Y-11400000D03*
X1020000Y-12200000D03*
D31*
X1595000Y-13320000D03*
D32*
X5775000Y-13320000D03*
D31*
X1595000Y-4680000D03*
D32*
X5775000Y-4680000D03*
%TD*%
D26*
%TO.C,D1*%
X19212500Y-10400000D03*
X20787500Y-10400000D03*
%TD*%
D14*
%TO.C,C1*%
X11025000Y-2200000D03*
X12575000Y-2200000D03*
%TD*%
D33*
%TO.C,J4*%
X35300000Y-11140000D03*
X34284000Y-6060000D03*
X36316000Y-6060000D03*
%TD*%
M02*
