%TF.GenerationSoftware,KiCad,Pcbnew,9.0.9-9.0.9~ubuntu22.04.1*%
%TF.CreationDate,2026-08-30T16:40:41+00:00*%
%TF.ProjectId,anticipy_r1,616e7469-6369-4707-995f-72312e6b6963,rev?*%
%TF.SameCoordinates,Original*%
%TF.FileFunction,Soldermask,Bot*%
%TF.FilePolarity,Negative*%
%FSLAX46Y46*%
G04 Gerber Fmt 4.6, Leading zero omitted, Abs format (unit mm)*
G04 Created by KiCad (PCBNEW 9.0.9-9.0.9~ubuntu22.04.1) date 2026-08-30 16:40:41*
%MOMM*%
%LPD*%
G01*
G04 APERTURE LIST*
G04 Aperture macros list*
%AMRoundRect*
0 Rectangle with rounded corners*
0 $1 Rounding radius*
0 $2 $3 $4 $5 $6 $7 $8 $9 X,Y pos of 4 corners*
0 Add a 4 corners polygon primitive as box body*
4,1,4,$2,$3,$4,$5,$6,$7,$8,$9,$2,$3,0*
0 Add four circle primitives for the rounded corners*
1,1,$1+$1,$2,$3*
1,1,$1+$1,$4,$5*
1,1,$1+$1,$6,$7*
1,1,$1+$1,$8,$9*
0 Add four rect primitives between the rounded corners*
20,1,$1+$1,$2,$3,$4,$5,0*
20,1,$1+$1,$4,$5,$6,$7,0*
20,1,$1+$1,$6,$7,$8,$9,0*
20,1,$1+$1,$8,$9,$2,$3,0*%
G04 Aperture macros list end*
%ADD10C,0.500000*%
%ADD11C,0.700000*%
%ADD12C,0.650000*%
%ADD13O,2.100000X1.000000*%
%ADD14O,1.800000X1.000000*%
%ADD15RoundRect,0.135000X-0.135000X-0.185000X0.135000X-0.185000X0.135000X0.185000X-0.135000X0.185000X0*%
%ADD16RoundRect,0.250000X-0.250000X-0.475000X0.250000X-0.475000X0.250000X0.475000X-0.250000X0.475000X0*%
%ADD17RoundRect,0.112500X-0.187500X-0.112500X0.187500X-0.112500X0.187500X0.112500X-0.187500X0.112500X0*%
%ADD18RoundRect,0.162500X-0.650000X-0.162500X0.650000X-0.162500X0.650000X0.162500X-0.650000X0.162500X0*%
%ADD19RoundRect,0.140000X-0.140000X-0.170000X0.140000X-0.170000X0.140000X0.170000X-0.140000X0.170000X0*%
%ADD20RoundRect,0.140000X0.170000X-0.140000X0.170000X0.140000X-0.170000X0.140000X-0.170000X-0.140000X0*%
%ADD21RoundRect,0.050000X-0.112500X-0.050000X0.112500X-0.050000X0.112500X0.050000X-0.112500X0.050000X0*%
%ADD22RoundRect,0.050000X-0.050000X-0.112500X0.050000X-0.112500X0.050000X0.112500X-0.050000X0.112500X0*%
%ADD23RoundRect,0.150000X0.150000X0.625000X-0.150000X0.625000X-0.150000X-0.625000X0.150000X-0.625000X0*%
%ADD24RoundRect,0.250000X0.350000X0.650000X-0.350000X0.650000X-0.350000X-0.650000X0.350000X-0.650000X0*%
%ADD25C,0.990600*%
%ADD26C,0.787400*%
%ADD27RoundRect,0.150000X-0.587500X-0.150000X0.587500X-0.150000X0.587500X0.150000X-0.587500X0.150000X0*%
%ADD28RoundRect,0.150000X-0.625000X0.150000X-0.625000X-0.150000X0.625000X-0.150000X0.625000X0.150000X0*%
%ADD29RoundRect,0.250000X-0.650000X0.350000X-0.650000X-0.350000X0.650000X-0.350000X0.650000X0.350000X0*%
G04 APERTURE END LIST*
D10*
%TO.C,MK1*%
X19700000Y-16370000D03*
%TD*%
%TO.C,MK2*%
X23400000Y-16370000D03*
%TD*%
D11*
%TO.C,SW1*%
X15100000Y-14500000D03*
X15100000Y-16300000D03*
%TD*%
D12*
%TO.C,J1*%
X2095000Y-11890000D03*
X2095000Y-6110000D03*
D13*
X1595000Y-13320000D03*
D14*
X5775000Y-13320000D03*
D13*
X1595000Y-4680000D03*
D14*
X5775000Y-4680000D03*
%TD*%
D15*
%TO.C,R14*%
X3990000Y-14500000D03*
X5010000Y-14500000D03*
%TD*%
D16*
%TO.C,C6*%
X32050000Y-3500000D03*
X33950000Y-3500000D03*
%TD*%
D17*
%TO.C,D3*%
X19450000Y-13500000D03*
X21550000Y-13500000D03*
%TD*%
D18*
%TO.C,U5*%
X24912500Y-10905000D03*
X24912500Y-9635000D03*
X24912500Y-8365000D03*
X24912500Y-7095000D03*
X32087500Y-7095000D03*
X32087500Y-8365000D03*
X32087500Y-9635000D03*
X32087500Y-10905000D03*
%TD*%
D15*
%TO.C,R12*%
X15090000Y-6800000D03*
X16110000Y-6800000D03*
%TD*%
%TO.C,R15*%
X3990000Y-16300000D03*
X5010000Y-16300000D03*
%TD*%
D19*
%TO.C,C9*%
X19220000Y-15600000D03*
X20180000Y-15600000D03*
%TD*%
D16*
%TO.C,C8*%
X25550000Y-13500000D03*
X27450000Y-13500000D03*
%TD*%
D19*
%TO.C,C11*%
X28720000Y-4500000D03*
X29680000Y-4500000D03*
%TD*%
%TO.C,C7*%
X32520000Y-14000000D03*
X33480000Y-14000000D03*
%TD*%
D20*
%TO.C,C13*%
X7000000Y-15980000D03*
X7000000Y-15020000D03*
%TD*%
D21*
%TO.C,U6*%
X21437500Y-9525000D03*
X21437500Y-9175000D03*
X21437500Y-8825000D03*
X21437500Y-8475000D03*
D22*
X21850000Y-8237500D03*
X22200000Y-8237500D03*
X22550000Y-8237500D03*
D21*
X22962500Y-8475000D03*
X22962500Y-8825000D03*
X22962500Y-9175000D03*
X22962500Y-9525000D03*
D22*
X22550000Y-9762500D03*
X22200000Y-9762500D03*
X21850000Y-9762500D03*
%TD*%
D19*
%TO.C,C10*%
X22920000Y-15600000D03*
X23880000Y-15600000D03*
%TD*%
D23*
%TO.C,J3*%
X12500000Y-12900000D03*
X11500000Y-12900000D03*
D24*
X13800000Y-16775000D03*
X10200000Y-16775000D03*
%TD*%
D25*
%TO.C,J4*%
X35300000Y-11140000D03*
X34284000Y-6060000D03*
X36316000Y-6060000D03*
D26*
X34665000Y-9870000D03*
X35935000Y-9870000D03*
X34665000Y-8600000D03*
X35935000Y-8600000D03*
X34665000Y-7330000D03*
X35935000Y-7330000D03*
%TD*%
D19*
%TO.C,C12*%
X23120000Y-5400000D03*
X24080000Y-5400000D03*
%TD*%
D27*
%TO.C,Q1*%
X16562500Y-10450000D03*
X16562500Y-8550000D03*
X18437500Y-9500000D03*
%TD*%
D15*
%TO.C,R13*%
X15990000Y-13500000D03*
X17010000Y-13500000D03*
%TD*%
D28*
%TO.C,J2*%
X9300000Y-6500000D03*
X9300000Y-7500000D03*
X9300000Y-8500000D03*
D29*
X13175000Y-5200000D03*
X13175000Y-9800000D03*
%TD*%
D15*
%TO.C,R8*%
X20990000Y-6500000D03*
X22010000Y-6500000D03*
%TD*%
%TO.C,R9*%
X20990000Y-11500000D03*
X22010000Y-11500000D03*
%TD*%
M02*
