M48
; DRILL file {KiCad 6.0.2+dfsg-1} date Thu Aug 27 19:15:11 2026
; FORMAT={-:-/ absolute / metric / decimal}
; #@! TF.CreationDate,2026-08-27T19:15:11+00:00
; #@! TF.GenerationSoftware,Kicad,Pcbnew,6.0.2+dfsg-1
; #@! TF.FileFunction,Plated,1,2,PTH
FMAT,2
METRIC
; #@! TA.AperFunction,Plated,PTH,ViaDrill
T1C0.400
; #@! TA.AperFunction,Plated,PTH,ComponentDrill
T2C0.800
; #@! TA.AperFunction,Plated,PTH,ComponentDrill
T3C1.000
%
G90
G05
T1
X6.92Y-5.6
X9.46Y-7.845
X12.0Y-13.6
X13.3Y-15.5
X14.54Y-9.115
X17.08Y-14.4
X23.05Y-1.4
X23.725Y-10.385
X32.25Y-17.0
X32.275Y-7.845
X32.275Y-9.115
X33.5Y-11.655
X33.5Y-13.6
X35.0Y-10.385
X35.0Y-14.4
X44.0Y-5.6
T2
X4.38Y-2.13
X4.38Y-17.37
X6.92Y-2.13
X6.92Y-17.37
X9.46Y-2.13
X9.46Y-17.37
X12.0Y-2.13
X12.0Y-17.37
X14.54Y-2.13
X14.54Y-17.37
X17.08Y-2.13
X17.08Y-17.37
X19.62Y-2.13
X19.62Y-17.37
T3
X44.0Y-3.0
X44.0Y-16.5
X47.0Y-3.0
X47.0Y-16.5
T0
M30
