%TF.GenerationSoftware,KiCad,Pcbnew,6.0.2+dfsg-1*%
%TF.CreationDate,2026-08-27T19:15:11+00:00*%
%TF.ProjectId,anticipy_carrier,616e7469-6369-4707-995f-636172726965,rev?*%
%TF.SameCoordinates,Original*%
%TF.FileFunction,Legend,Top*%
%TF.FilePolarity,Positive*%
%FSLAX46Y46*%
G04 Gerber Fmt 4.6, Leading zero omitted, Abs format (unit mm)*
G04 Created by KiCad (PCBNEW 6.0.2+dfsg-1) date 2026-08-27 19:15:11*
%MOMM*%
%LPD*%
G01*
G04 APERTURE LIST*
G04 Aperture macros list*
%AMRoundRect*
0 Rectangle with rounded corners*
0 $1 Rounding radius*
0 $2 $3 $4 $5 $6 $7 $8 $9 X,Y pos of 4 corners*
0 Add a 4 corners polygon primitive as box body*
4,1,4,$2,$3,$4,$5,$6,$7,$8,$9,$2,$3,0*
0 Add four circle primitives for the rounded corners*
1,1,$1+$1,$2,$3*
1,1,$1+$1,$4,$5*
1,1,$1+$1,$6,$7*
1,1,$1+$1,$8,$9*
0 Add four rect primitives between the rounded corners*
20,1,$1+$1,$2,$3,$4,$5,0*
20,1,$1+$1,$4,$5,$6,$7,0*
20,1,$1+$1,$6,$7,$8,$9,0*
20,1,$1+$1,$8,$9,$2,$3,0*%
G04 Aperture macros list end*
%ADD10C,0.200000*%
%ADD11C,0.250000*%
%ADD12C,0.150000*%
%ADD13C,0.120000*%
%ADD14C,0.350000*%
%ADD15RoundRect,0.250000X-0.262500X-0.450000X0.262500X-0.450000X0.262500X0.450000X-0.262500X0.450000X0*%
%ADD16R,0.900000X1.200000*%
%ADD17RoundRect,0.250000X-0.250000X-0.475000X0.250000X-0.475000X0.250000X0.475000X-0.250000X0.475000X0*%
%ADD18RoundRect,0.150000X0.150000X-0.587500X0.150000X0.587500X-0.150000X0.587500X-0.150000X-0.587500X0*%
%ADD19C,1.900000*%
%ADD20RoundRect,0.150000X-0.825000X-0.150000X0.825000X-0.150000X0.825000X0.150000X-0.825000X0.150000X0*%
%ADD21C,1.600000*%
G04 APERTURE END LIST*
D10*
X44509523Y-15161904D02*
X44509523Y-14361904D01*
X44776190Y-14933333D01*
X45042857Y-14361904D01*
X45042857Y-15161904D01*
X45576190Y-14361904D02*
X45728571Y-14361904D01*
X45804761Y-14400000D01*
X45880952Y-14476190D01*
X45919047Y-14628571D01*
X45919047Y-14895238D01*
X45880952Y-15047619D01*
X45804761Y-15123809D01*
X45728571Y-15161904D01*
X45576190Y-15161904D01*
X45500000Y-15123809D01*
X45423809Y-15047619D01*
X45385714Y-14895238D01*
X45385714Y-14628571D01*
X45423809Y-14476190D01*
X45500000Y-14400000D01*
X45576190Y-14361904D01*
X46147619Y-14361904D02*
X46604761Y-14361904D01*
X46376190Y-15161904D02*
X46376190Y-14361904D01*
D11*
X45190476Y-10952380D02*
X45523809Y-11952380D01*
X45857142Y-10952380D01*
X46714285Y-11952380D02*
X46142857Y-11952380D01*
X46428571Y-11952380D02*
X46428571Y-10952380D01*
X46333333Y-11095238D01*
X46238095Y-11190476D01*
X46142857Y-11238095D01*
X40514285Y-9300000D02*
X41371428Y-9300000D01*
X40342857Y-9814285D02*
X40942857Y-8014285D01*
X41542857Y-9814285D01*
X42142857Y-9814285D02*
X42142857Y-8014285D01*
X43171428Y-9814285D01*
X43171428Y-8014285D01*
X43771428Y-8014285D02*
X44800000Y-8014285D01*
X44285714Y-9814285D02*
X44285714Y-8014285D01*
X45400000Y-9814285D02*
X45400000Y-8014285D01*
X47285714Y-9642857D02*
X47200000Y-9728571D01*
X46942857Y-9814285D01*
X46771428Y-9814285D01*
X46514285Y-9728571D01*
X46342857Y-9557142D01*
X46257142Y-9385714D01*
X46171428Y-9042857D01*
X46171428Y-8785714D01*
X46257142Y-8442857D01*
X46342857Y-8271428D01*
X46514285Y-8100000D01*
X46771428Y-8014285D01*
X46942857Y-8014285D01*
X47200000Y-8100000D01*
X47285714Y-8185714D01*
X48057142Y-9814285D02*
X48057142Y-8014285D01*
X48914285Y-9814285D02*
X48914285Y-8014285D01*
X49600000Y-8014285D01*
X49771428Y-8100000D01*
X49857142Y-8185714D01*
X49942857Y-8357142D01*
X49942857Y-8614285D01*
X49857142Y-8785714D01*
X49771428Y-8871428D01*
X49600000Y-8957142D01*
X48914285Y-8957142D01*
X51057142Y-8957142D02*
X51057142Y-9814285D01*
X50457142Y-8014285D02*
X51057142Y-8957142D01*
X51657142Y-8014285D01*
D10*
X44833333Y-1142857D02*
X44947619Y-1180952D01*
X44985714Y-1219047D01*
X45023809Y-1295238D01*
X45023809Y-1409523D01*
X44985714Y-1485714D01*
X44947619Y-1523809D01*
X44871428Y-1561904D01*
X44566666Y-1561904D01*
X44566666Y-761904D01*
X44833333Y-761904D01*
X44909523Y-800000D01*
X44947619Y-838095D01*
X44985714Y-914285D01*
X44985714Y-990476D01*
X44947619Y-1066666D01*
X44909523Y-1104761D01*
X44833333Y-1142857D01*
X44566666Y-1142857D01*
X45252380Y-761904D02*
X45709523Y-761904D01*
X45480952Y-1561904D02*
X45480952Y-761904D01*
X45976190Y-1561904D02*
X45976190Y-761904D01*
X46433333Y-1561904D01*
X46433333Y-761904D01*
D12*
%TO.C,R1*%
X20333333Y-14302380D02*
X20000000Y-13826190D01*
X19761904Y-14302380D02*
X19761904Y-13302380D01*
X20142857Y-13302380D01*
X20238095Y-13350000D01*
X20285714Y-13397619D01*
X20333333Y-13492857D01*
X20333333Y-13635714D01*
X20285714Y-13730952D01*
X20238095Y-13778571D01*
X20142857Y-13826190D01*
X19761904Y-13826190D01*
X21285714Y-14302380D02*
X20714285Y-14302380D01*
X21000000Y-14302380D02*
X21000000Y-13302380D01*
X20904761Y-13445238D01*
X20809523Y-13540476D01*
X20714285Y-13588095D01*
%TO.C,D1*%
X28261904Y-15452380D02*
X28261904Y-14452380D01*
X28500000Y-14452380D01*
X28642857Y-14500000D01*
X28738095Y-14595238D01*
X28785714Y-14690476D01*
X28833333Y-14880952D01*
X28833333Y-15023809D01*
X28785714Y-15214285D01*
X28738095Y-15309523D01*
X28642857Y-15404761D01*
X28500000Y-15452380D01*
X28261904Y-15452380D01*
X29785714Y-15452380D02*
X29214285Y-15452380D01*
X29500000Y-15452380D02*
X29500000Y-14452380D01*
X29404761Y-14595238D01*
X29309523Y-14690476D01*
X29214285Y-14738095D01*
%TO.C,C1*%
X23833333Y-1677142D02*
X23785714Y-1724761D01*
X23642857Y-1772380D01*
X23547619Y-1772380D01*
X23404761Y-1724761D01*
X23309523Y-1629523D01*
X23261904Y-1534285D01*
X23214285Y-1343809D01*
X23214285Y-1200952D01*
X23261904Y-1010476D01*
X23309523Y-915238D01*
X23404761Y-820000D01*
X23547619Y-772380D01*
X23642857Y-772380D01*
X23785714Y-820000D01*
X23833333Y-867619D01*
X24785714Y-1772380D02*
X24214285Y-1772380D01*
X24500000Y-1772380D02*
X24500000Y-772380D01*
X24404761Y-915238D01*
X24309523Y-1010476D01*
X24214285Y-1058095D01*
%TO.C,Q1*%
X22147619Y-17095238D02*
X22100000Y-17190476D01*
X22004761Y-17285714D01*
X21861904Y-17428571D01*
X21814285Y-17523809D01*
X21814285Y-17619047D01*
X22052380Y-17571428D02*
X22004761Y-17666666D01*
X21909523Y-17761904D01*
X21719047Y-17809523D01*
X21385714Y-17809523D01*
X21195238Y-17761904D01*
X21100000Y-17666666D01*
X21052380Y-17571428D01*
X21052380Y-17380952D01*
X21100000Y-17285714D01*
X21195238Y-17190476D01*
X21385714Y-17142857D01*
X21719047Y-17142857D01*
X21909523Y-17190476D01*
X22004761Y-17285714D01*
X22052380Y-17380952D01*
X22052380Y-17571428D01*
X22052380Y-16190476D02*
X22052380Y-16761904D01*
X22052380Y-16476190D02*
X21052380Y-16476190D01*
X21195238Y-16571428D01*
X21290476Y-16666666D01*
X21338095Y-16761904D01*
%TO.C,U2*%
X27238095Y-5802380D02*
X27238095Y-6611904D01*
X27285714Y-6707142D01*
X27333333Y-6754761D01*
X27428571Y-6802380D01*
X27619047Y-6802380D01*
X27714285Y-6754761D01*
X27761904Y-6707142D01*
X27809523Y-6611904D01*
X27809523Y-5802380D01*
X28238095Y-5897619D02*
X28285714Y-5850000D01*
X28380952Y-5802380D01*
X28619047Y-5802380D01*
X28714285Y-5850000D01*
X28761904Y-5897619D01*
X28809523Y-5992857D01*
X28809523Y-6088095D01*
X28761904Y-6230952D01*
X28190476Y-6802380D01*
X28809523Y-6802380D01*
%TO.C,U1*%
X11032380Y-9054523D02*
X11032380Y-10082619D01*
X11092857Y-10203571D01*
X11153333Y-10264047D01*
X11274285Y-10324523D01*
X11516190Y-10324523D01*
X11637142Y-10264047D01*
X11697619Y-10203571D01*
X11758095Y-10082619D01*
X11758095Y-9054523D01*
X13028095Y-10324523D02*
X12302380Y-10324523D01*
X12665238Y-10324523D02*
X12665238Y-9054523D01*
X12544285Y-9235952D01*
X12423333Y-9356904D01*
X12302380Y-9417380D01*
D13*
%TO.C,R1*%
X20272936Y-16235000D02*
X20727064Y-16235000D01*
X20272936Y-14765000D02*
X20727064Y-14765000D01*
%TO.C,D1*%
X26750000Y-16000000D02*
X26750000Y-18000000D01*
X26750000Y-18000000D02*
X30650000Y-18000000D01*
X26750000Y-16000000D02*
X30650000Y-16000000D01*
%TO.C,C1*%
X23738748Y-3735000D02*
X24261252Y-3735000D01*
X23738748Y-2265000D02*
X24261252Y-2265000D01*
%TO.C,Q1*%
X22440000Y-17000000D02*
X22440000Y-18675000D01*
X25560000Y-17000000D02*
X25560000Y-16350000D01*
X25560000Y-17000000D02*
X25560000Y-17650000D01*
X22440000Y-17000000D02*
X22440000Y-16350000D01*
%TO.C,U2*%
X28000000Y-7190000D02*
X24550000Y-7190000D01*
X28000000Y-7190000D02*
X29950000Y-7190000D01*
X28000000Y-12310000D02*
X29950000Y-12310000D01*
X28000000Y-12310000D02*
X26050000Y-12310000D01*
%TD*%
D14*
X32275000Y-7845000D03*
X23050000Y-1400000D03*
X23724999Y-10385000D03*
X32250000Y-17000000D03*
X32275000Y-9115000D03*
X6920000Y-5600000D03*
X44000000Y-5600000D03*
X13300000Y-15500000D03*
X9460000Y-7845000D03*
X35000000Y-14400000D03*
X17080000Y-14400000D03*
X35000000Y-10385000D03*
X14540000Y-9115000D03*
X33500000Y-13600000D03*
X12000000Y-13600000D03*
X33500000Y-11655000D03*
X44000000Y-3000000D03*
X47000000Y-3000000D03*
X44000000Y-16500000D03*
X47000000Y-16500000D03*
X9460000Y-17370000D03*
X4380000Y-17370000D03*
X4380000Y-2130000D03*
X6920000Y-2130000D03*
X9460000Y-2130000D03*
X12000000Y-2130000D03*
X14540000Y-2130000D03*
X17080000Y-2130000D03*
X19620000Y-2130000D03*
X19620000Y-17370000D03*
X17080000Y-17370000D03*
X14540000Y-17370000D03*
X12000000Y-17370000D03*
X6920000Y-17370000D03*
%LPC*%
D15*
%TO.C,R1*%
X19587500Y-15500000D03*
X21412500Y-15500000D03*
%TD*%
D16*
%TO.C,D1*%
X27350000Y-17000000D03*
X30650000Y-17000000D03*
%TD*%
D17*
%TO.C,C1*%
X23050000Y-3000000D03*
X24950000Y-3000000D03*
%TD*%
D18*
%TO.C,Q1*%
X23050000Y-17937500D03*
X24950000Y-17937500D03*
X24000000Y-16062500D03*
%TD*%
D19*
%TO.C,J1*%
X44000000Y-3000000D03*
X47000000Y-3000000D03*
X44000000Y-16500000D03*
X47000000Y-16500000D03*
%TD*%
D20*
%TO.C,U2*%
X25525000Y-7845000D03*
X25525000Y-9115000D03*
X25525000Y-10385000D03*
X25525000Y-11655000D03*
X30475000Y-11655000D03*
X30475000Y-10385000D03*
X30475000Y-9115000D03*
X30475000Y-7845000D03*
%TD*%
D21*
%TO.C,U1*%
X9460000Y-17370000D03*
X4380000Y-17370000D03*
X4380000Y-2130000D03*
X6920000Y-2130000D03*
X9460000Y-2130000D03*
X12000000Y-2130000D03*
X14540000Y-2130000D03*
X17080000Y-2130000D03*
X19620000Y-2130000D03*
X19620000Y-17370000D03*
X17080000Y-17370000D03*
X14540000Y-17370000D03*
X12000000Y-17370000D03*
X6920000Y-17370000D03*
%TD*%
M02*
