%TF.GenerationSoftware,KiCad,Pcbnew,6.0.2+dfsg-1*%
%TF.CreationDate,2026-08-27T19:15:11+00:00*%
%TF.ProjectId,anticipy_carrier,616e7469-6369-4707-995f-636172726965,rev?*%
%TF.SameCoordinates,Original*%
%TF.FileFunction,Copper,L2,Bot*%
%TF.FilePolarity,Positive*%
%FSLAX46Y46*%
G04 Gerber Fmt 4.6, Leading zero omitted, Abs format (unit mm)*
G04 Created by KiCad (PCBNEW 6.0.2+dfsg-1) date 2026-08-27 19:15:11*
%MOMM*%
%LPD*%
G01*
G04 APERTURE LIST*
%TA.AperFunction,ComponentPad*%
%ADD10C,1.900000*%
%TD*%
%TA.AperFunction,ComponentPad*%
%ADD11C,1.600000*%
%TD*%
%TA.AperFunction,ViaPad*%
%ADD12C,0.800000*%
%TD*%
%TA.AperFunction,Conductor*%
%ADD13C,0.300000*%
%TD*%
%ADD14C,0.350000*%
G04 APERTURE END LIST*
D10*
%TO.P,J1,BTN1*%
%TO.N,BTN*%
X44000000Y-3000000D03*
%TO.P,J1,BTN2*%
%TO.N,GND*%
X47000000Y-3000000D03*
%TO.P,J1,MOT+*%
%TO.N,3V3*%
X44000000Y-16500000D03*
%TO.P,J1,MOT-*%
%TO.N,MOT_SW*%
X47000000Y-16500000D03*
%TD*%
D11*
%TO.P,U1,3V3*%
%TO.N,3V3*%
X9460000Y-17370000D03*
%TO.P,U1,5V*%
%TO.N,N/C*%
X4380000Y-17370000D03*
%TO.P,U1,D0*%
X4380000Y-2130000D03*
%TO.P,U1,D1*%
%TO.N,BTN*%
X6920000Y-2130000D03*
%TO.P,U1,D2*%
%TO.N,CS*%
X9460000Y-2130000D03*
%TO.P,U1,D3*%
%TO.N,HAP_CTRL*%
X12000000Y-2130000D03*
%TO.P,U1,D4*%
%TO.N,N/C*%
X14540000Y-2130000D03*
%TO.P,U1,D5*%
X17080000Y-2130000D03*
%TO.P,U1,D6*%
X19620000Y-2130000D03*
%TO.P,U1,D7*%
X19620000Y-17370000D03*
%TO.P,U1,D8*%
%TO.N,SCK*%
X17080000Y-17370000D03*
%TO.P,U1,D9*%
%TO.N,MISO*%
X14540000Y-17370000D03*
%TO.P,U1,D10*%
%TO.N,MOSI*%
X12000000Y-17370000D03*
%TO.P,U1,GND*%
%TO.N,GND*%
X6920000Y-17370000D03*
%TD*%
D12*
%TO.N,3V3*%
X32275000Y-7845000D03*
X23050000Y-1400000D03*
X23724999Y-10385000D03*
X32250000Y-17000000D03*
X32275000Y-9115000D03*
%TO.N,BTN*%
X6920000Y-5600000D03*
X44000000Y-5600000D03*
%TO.N,HAP_CTRL*%
X13300000Y-15500000D03*
%TO.N,CS*%
X9460000Y-7845000D03*
%TO.N,SCK*%
X35000000Y-14400000D03*
X17080000Y-14400000D03*
X35000000Y-10385000D03*
%TO.N,MISO*%
X14540000Y-9115000D03*
%TO.N,MOSI*%
X33500000Y-13600000D03*
X12000000Y-13600000D03*
X33500000Y-11655000D03*
%TD*%
D13*
%TO.N,BTN*%
X6920000Y-2130000D02*
X6920000Y-5600000D01*
X44000000Y-5600000D02*
X44000000Y-3000000D01*
%TO.N,HAP_CTRL*%
X13300000Y-2130000D02*
X13300000Y-15500000D01*
X12000000Y-2130000D02*
X13300000Y-2130000D01*
%TO.N,CS*%
X9460000Y-2130000D02*
X9460000Y-7845000D01*
%TO.N,SCK*%
X35000000Y-14400000D02*
X35000000Y-10385000D01*
X17080000Y-17370000D02*
X17080000Y-14400000D01*
%TO.N,MISO*%
X14540000Y-17370000D02*
X14540000Y-9115000D01*
%TO.N,MOSI*%
X12000000Y-17370000D02*
X12000000Y-13600000D01*
X33500000Y-13600000D02*
X33500000Y-11655000D01*
%TD*%
%TA.AperFunction,Conductor*%
%TO.N,3V3*%
G36*
X52643039Y-319685D02*
G01*
X52688794Y-372489D01*
X52700000Y-424000D01*
X52700000Y-19076000D01*
X52680315Y-19143039D01*
X52627511Y-19188794D01*
X52576000Y-19200000D01*
X424000Y-19200000D01*
X356961Y-19180315D01*
X311206Y-19127511D01*
X300000Y-19076000D01*
X300000Y-17355267D01*
X3324922Y-17355267D01*
X3342154Y-17560480D01*
X3398918Y-17758438D01*
X3493050Y-17941600D01*
X3620966Y-18102990D01*
X3777794Y-18236461D01*
X3957559Y-18336929D01*
X4153415Y-18400566D01*
X4357902Y-18424950D01*
X4363945Y-18424485D01*
X4363947Y-18424485D01*
X4557192Y-18409615D01*
X4557196Y-18409614D01*
X4563230Y-18409150D01*
X4569062Y-18407522D01*
X4569066Y-18407521D01*
X4755738Y-18355401D01*
X4755740Y-18355400D01*
X4761579Y-18353770D01*
X4945394Y-18260919D01*
X4950173Y-18257185D01*
X4950178Y-18257182D01*
X5102892Y-18137867D01*
X5107673Y-18134132D01*
X5242236Y-17978240D01*
X5263051Y-17941600D01*
X5340959Y-17804456D01*
X5343956Y-17799181D01*
X5408959Y-17603774D01*
X5434770Y-17399462D01*
X5435181Y-17370000D01*
X5433736Y-17355267D01*
X5864922Y-17355267D01*
X5882154Y-17560480D01*
X5938918Y-17758438D01*
X6033050Y-17941600D01*
X6160966Y-18102990D01*
X6317794Y-18236461D01*
X6497559Y-18336929D01*
X6693415Y-18400566D01*
X6897902Y-18424950D01*
X6903945Y-18424485D01*
X6903947Y-18424485D01*
X7097192Y-18409615D01*
X7097196Y-18409614D01*
X7103230Y-18409150D01*
X7109062Y-18407522D01*
X7109066Y-18407521D01*
X7295738Y-18355401D01*
X7295740Y-18355400D01*
X7301579Y-18353770D01*
X7485394Y-18260919D01*
X7490173Y-18257185D01*
X7490178Y-18257182D01*
X7642892Y-18137867D01*
X7647673Y-18134132D01*
X7782236Y-17978240D01*
X7803051Y-17941600D01*
X7880959Y-17804456D01*
X7883956Y-17799181D01*
X7948959Y-17603774D01*
X7974770Y-17399462D01*
X7975181Y-17370000D01*
X7973736Y-17355267D01*
X10944922Y-17355267D01*
X10962154Y-17560480D01*
X11018918Y-17758438D01*
X11113050Y-17941600D01*
X11240966Y-18102990D01*
X11397794Y-18236461D01*
X11577559Y-18336929D01*
X11773415Y-18400566D01*
X11977902Y-18424950D01*
X11983945Y-18424485D01*
X11983947Y-18424485D01*
X12177192Y-18409615D01*
X12177196Y-18409614D01*
X12183230Y-18409150D01*
X12189062Y-18407522D01*
X12189066Y-18407521D01*
X12375738Y-18355401D01*
X12375740Y-18355400D01*
X12381579Y-18353770D01*
X12565394Y-18260919D01*
X12570173Y-18257185D01*
X12570178Y-18257182D01*
X12722892Y-18137867D01*
X12727673Y-18134132D01*
X12862236Y-17978240D01*
X12883051Y-17941600D01*
X12960959Y-17804456D01*
X12963956Y-17799181D01*
X13028959Y-17603774D01*
X13054770Y-17399462D01*
X13055181Y-17370000D01*
X13035085Y-17165048D01*
X12975563Y-16967902D01*
X12878883Y-16786072D01*
X12875039Y-16781358D01*
X12752563Y-16631188D01*
X12748726Y-16626483D01*
X12731586Y-16612303D01*
X12594717Y-16499076D01*
X12590050Y-16495215D01*
X12584726Y-16492336D01*
X12584721Y-16492333D01*
X12465123Y-16427668D01*
X12415514Y-16378467D01*
X12400100Y-16318591D01*
X12400100Y-15526585D01*
X12408770Y-15497057D01*
X12401581Y-15481798D01*
X12400100Y-15462692D01*
X12400100Y-14170427D01*
X12419785Y-14103388D01*
X12443569Y-14076136D01*
X12476368Y-14048124D01*
X12476370Y-14048122D01*
X12482052Y-14043269D01*
X12540483Y-13961953D01*
X12569510Y-13921558D01*
X12569512Y-13921554D01*
X12573871Y-13915488D01*
X12624469Y-13789624D01*
X12629773Y-13776430D01*
X12629774Y-13776428D01*
X12632561Y-13769494D01*
X12653137Y-13624915D01*
X12660578Y-13608561D01*
X12656923Y-13602874D01*
X12652798Y-13582836D01*
X12636871Y-13451215D01*
X12636870Y-13451211D01*
X12635972Y-13443790D01*
X12580353Y-13296599D01*
X12491229Y-13166923D01*
X12373746Y-13062250D01*
X12234686Y-12988622D01*
X12082078Y-12950289D01*
X12003404Y-12949877D01*
X11932205Y-12949504D01*
X11932204Y-12949504D01*
X11924731Y-12949465D01*
X11917468Y-12951209D01*
X11917465Y-12951209D01*
X11817108Y-12975303D01*
X11771729Y-12986197D01*
X11765090Y-12989623D01*
X11765089Y-12989624D01*
X11686608Y-13030132D01*
X11631906Y-13058366D01*
X11626276Y-13063277D01*
X11626272Y-13063280D01*
X11518971Y-13156884D01*
X11518968Y-13156887D01*
X11513333Y-13161803D01*
X11422856Y-13290538D01*
X11365699Y-13437139D01*
X11345161Y-13593142D01*
X11345981Y-13600570D01*
X11345981Y-13600572D01*
X11347432Y-13613715D01*
X11362428Y-13749541D01*
X11416502Y-13897307D01*
X11504263Y-14027909D01*
X11509795Y-14032942D01*
X11509796Y-14032944D01*
X11559354Y-14078038D01*
X11595690Y-14137716D01*
X11599900Y-14169752D01*
X11599900Y-16319077D01*
X11580215Y-16386116D01*
X11533349Y-16428966D01*
X11422222Y-16487062D01*
X11261729Y-16616102D01*
X11129356Y-16773858D01*
X11030146Y-16954320D01*
X11028314Y-16960095D01*
X10984739Y-17097462D01*
X10967877Y-17150616D01*
X10944922Y-17355267D01*
X7973736Y-17355267D01*
X7955085Y-17165048D01*
X7895563Y-16967902D01*
X7798883Y-16786072D01*
X7795039Y-16781358D01*
X7672563Y-16631188D01*
X7668726Y-16626483D01*
X7651586Y-16612303D01*
X7514717Y-16499076D01*
X7510050Y-16495215D01*
X7328899Y-16397268D01*
X7323103Y-16395474D01*
X7323101Y-16395473D01*
X7137974Y-16338166D01*
X7137970Y-16338165D01*
X7132174Y-16336371D01*
X6927366Y-16314845D01*
X6921333Y-16315394D01*
X6921329Y-16315394D01*
X6796295Y-16326773D01*
X6722279Y-16333509D01*
X6716466Y-16335220D01*
X6716465Y-16335220D01*
X6569524Y-16378467D01*
X6524722Y-16391653D01*
X6342222Y-16487062D01*
X6181729Y-16616102D01*
X6049356Y-16773858D01*
X5950146Y-16954320D01*
X5948314Y-16960095D01*
X5904739Y-17097462D01*
X5887877Y-17150616D01*
X5864922Y-17355267D01*
X5433736Y-17355267D01*
X5415085Y-17165048D01*
X5355563Y-16967902D01*
X5258883Y-16786072D01*
X5255039Y-16781358D01*
X5132563Y-16631188D01*
X5128726Y-16626483D01*
X5111586Y-16612303D01*
X4974717Y-16499076D01*
X4970050Y-16495215D01*
X4788899Y-16397268D01*
X4783103Y-16395474D01*
X4783101Y-16395473D01*
X4597974Y-16338166D01*
X4597970Y-16338165D01*
X4592174Y-16336371D01*
X4387366Y-16314845D01*
X4381333Y-16315394D01*
X4381329Y-16315394D01*
X4256295Y-16326773D01*
X4182279Y-16333509D01*
X4176466Y-16335220D01*
X4176465Y-16335220D01*
X4029524Y-16378467D01*
X3984722Y-16391653D01*
X3802222Y-16487062D01*
X3641729Y-16616102D01*
X3509356Y-16773858D01*
X3410146Y-16954320D01*
X3408314Y-16960095D01*
X3364739Y-17097462D01*
X3347877Y-17150616D01*
X3324922Y-17355267D01*
X300000Y-17355267D01*
X300000Y-2115267D01*
X3324922Y-2115267D01*
X3342154Y-2320480D01*
X3398918Y-2518438D01*
X3493050Y-2701600D01*
X3620966Y-2862990D01*
X3777794Y-2996461D01*
X3957559Y-3096929D01*
X4153415Y-3160566D01*
X4357902Y-3184950D01*
X4363945Y-3184485D01*
X4363947Y-3184485D01*
X4557192Y-3169615D01*
X4557196Y-3169614D01*
X4563230Y-3169150D01*
X4569062Y-3167522D01*
X4569066Y-3167521D01*
X4755738Y-3115401D01*
X4755740Y-3115400D01*
X4761579Y-3113770D01*
X4945394Y-3020919D01*
X4950173Y-3017185D01*
X4950178Y-3017182D01*
X5102892Y-2897867D01*
X5107673Y-2894132D01*
X5183259Y-2806565D01*
X5238271Y-2742834D01*
X5238273Y-2742831D01*
X5242236Y-2738240D01*
X5263051Y-2701600D01*
X5335792Y-2573552D01*
X5343956Y-2559181D01*
X5408959Y-2363774D01*
X5434770Y-2159462D01*
X5435181Y-2130000D01*
X5433736Y-2115267D01*
X5864922Y-2115267D01*
X5882154Y-2320480D01*
X5938918Y-2518438D01*
X6033050Y-2701600D01*
X6160966Y-2862990D01*
X6317794Y-2996461D01*
X6449410Y-3070019D01*
X6456395Y-3073923D01*
X6505312Y-3123812D01*
X6519900Y-3182165D01*
X6519900Y-5029907D01*
X6500215Y-5096946D01*
X6477414Y-5123349D01*
X6438971Y-5156884D01*
X6438968Y-5156887D01*
X6433333Y-5161803D01*
X6342856Y-5290538D01*
X6285699Y-5437139D01*
X6265161Y-5593142D01*
X6265981Y-5600570D01*
X6265981Y-5600572D01*
X6267432Y-5613715D01*
X6282428Y-5749541D01*
X6336502Y-5897307D01*
X6424263Y-6027909D01*
X6429795Y-6032942D01*
X6429796Y-6032944D01*
X6441143Y-6043269D01*
X6540643Y-6133807D01*
X6678924Y-6208887D01*
X6766525Y-6231869D01*
X6823895Y-6246920D01*
X6823897Y-6246920D01*
X6831123Y-6248816D01*
X6909788Y-6250052D01*
X6980983Y-6251171D01*
X6980986Y-6251171D01*
X6988453Y-6251288D01*
X6995735Y-6249620D01*
X6995737Y-6249620D01*
X7065142Y-6233724D01*
X7141831Y-6216159D01*
X7282402Y-6145459D01*
X7402052Y-6043269D01*
X7447961Y-5979379D01*
X7489510Y-5921558D01*
X7489512Y-5921554D01*
X7493871Y-5915488D01*
X7552561Y-5769494D01*
X7556458Y-5742111D01*
X7574159Y-5617738D01*
X7574160Y-5617730D01*
X7574731Y-5613715D01*
X7574875Y-5600000D01*
X7555972Y-5443790D01*
X7500353Y-5296599D01*
X7491982Y-5284419D01*
X7415462Y-5173081D01*
X7415459Y-5173077D01*
X7411229Y-5166923D01*
X7361611Y-5122715D01*
X7324652Y-5063421D01*
X7320100Y-5030132D01*
X7320100Y-3180700D01*
X7339785Y-3113661D01*
X7388191Y-3070019D01*
X7485394Y-3020919D01*
X7647673Y-2894132D01*
X7723259Y-2806565D01*
X7778271Y-2742834D01*
X7778273Y-2742831D01*
X7782236Y-2738240D01*
X7803051Y-2701600D01*
X7875792Y-2573552D01*
X7883956Y-2559181D01*
X7948959Y-2363774D01*
X7974770Y-2159462D01*
X7975181Y-2130000D01*
X7973736Y-2115267D01*
X8404922Y-2115267D01*
X8422154Y-2320480D01*
X8478918Y-2518438D01*
X8573050Y-2701600D01*
X8700966Y-2862990D01*
X8857794Y-2996461D01*
X8989410Y-3070019D01*
X8996395Y-3073923D01*
X9045312Y-3123812D01*
X9059900Y-3182165D01*
X9059900Y-7274907D01*
X9040215Y-7341946D01*
X9017414Y-7368349D01*
X8978971Y-7401884D01*
X8978968Y-7401887D01*
X8973333Y-7406803D01*
X8882856Y-7535538D01*
X8825699Y-7682139D01*
X8805161Y-7838142D01*
X8805981Y-7845570D01*
X8805981Y-7845572D01*
X8807432Y-7858715D01*
X8822428Y-7994541D01*
X8876502Y-8142307D01*
X8964263Y-8272909D01*
X8969795Y-8277942D01*
X8969796Y-8277944D01*
X8981143Y-8288269D01*
X9080643Y-8378807D01*
X9218924Y-8453887D01*
X9269327Y-8467110D01*
X9363895Y-8491920D01*
X9363897Y-8491920D01*
X9371123Y-8493816D01*
X9449788Y-8495052D01*
X9520983Y-8496171D01*
X9520986Y-8496171D01*
X9528453Y-8496288D01*
X9535735Y-8494620D01*
X9535737Y-8494620D01*
X9605142Y-8478724D01*
X9681831Y-8461159D01*
X9822402Y-8390459D01*
X9942052Y-8288269D01*
X9987961Y-8224379D01*
X10029510Y-8166558D01*
X10029512Y-8166554D01*
X10033871Y-8160488D01*
X10092561Y-8014494D01*
X10096458Y-7987111D01*
X10114159Y-7862738D01*
X10114160Y-7862730D01*
X10114731Y-7858715D01*
X10114875Y-7845000D01*
X10095972Y-7688790D01*
X10040353Y-7541599D01*
X10031982Y-7529419D01*
X9955462Y-7418081D01*
X9955459Y-7418077D01*
X9951229Y-7411923D01*
X9901611Y-7367715D01*
X9864652Y-7308421D01*
X9860100Y-7275132D01*
X9860100Y-3180700D01*
X9879785Y-3113661D01*
X9928191Y-3070019D01*
X10025394Y-3020919D01*
X10187673Y-2894132D01*
X10263259Y-2806565D01*
X10318271Y-2742834D01*
X10318273Y-2742831D01*
X10322236Y-2738240D01*
X10343051Y-2701600D01*
X10415792Y-2573552D01*
X10423956Y-2559181D01*
X10488959Y-2363774D01*
X10514770Y-2159462D01*
X10515181Y-2130000D01*
X10513736Y-2115267D01*
X10944922Y-2115267D01*
X10962154Y-2320480D01*
X11018918Y-2518438D01*
X11113050Y-2701600D01*
X11240966Y-2862990D01*
X11397794Y-2996461D01*
X11577559Y-3096929D01*
X11773415Y-3160566D01*
X11977902Y-3184950D01*
X11983945Y-3184485D01*
X11983947Y-3184485D01*
X12177192Y-3169615D01*
X12177196Y-3169614D01*
X12183230Y-3169150D01*
X12189062Y-3167522D01*
X12189066Y-3167521D01*
X12375738Y-3115401D01*
X12375740Y-3115400D01*
X12381579Y-3113770D01*
X12565394Y-3020919D01*
X12570173Y-3017185D01*
X12570178Y-3017182D01*
X12699558Y-2916098D01*
X12764504Y-2890336D01*
X12833069Y-2903776D01*
X12883483Y-2952152D01*
X12899900Y-3013811D01*
X12899900Y-13567939D01*
X12889262Y-13604167D01*
X12898612Y-13624563D01*
X12899900Y-13642386D01*
X12899900Y-14929907D01*
X12880215Y-14996946D01*
X12857414Y-15023349D01*
X12818971Y-15056884D01*
X12818968Y-15056887D01*
X12813333Y-15061803D01*
X12722856Y-15190538D01*
X12665699Y-15337139D01*
X12655439Y-15415073D01*
X12647039Y-15478877D01*
X12642077Y-15490094D01*
X12643077Y-15491650D01*
X12647351Y-15512978D01*
X12662428Y-15649541D01*
X12716502Y-15797307D01*
X12804263Y-15927909D01*
X12809795Y-15932942D01*
X12809796Y-15932944D01*
X12821143Y-15943269D01*
X12920643Y-16033807D01*
X13058924Y-16108887D01*
X13146525Y-16131869D01*
X13203895Y-16146920D01*
X13203897Y-16146920D01*
X13211123Y-16148816D01*
X13289788Y-16150052D01*
X13360983Y-16151171D01*
X13360986Y-16151171D01*
X13368453Y-16151288D01*
X13375735Y-16149620D01*
X13375737Y-16149620D01*
X13445142Y-16133723D01*
X13521831Y-16116159D01*
X13662402Y-16045459D01*
X13782052Y-15943269D01*
X13837786Y-15865706D01*
X13869510Y-15821558D01*
X13869512Y-15821554D01*
X13873871Y-15815488D01*
X13900849Y-15748379D01*
X13944118Y-15693520D01*
X14010177Y-15670762D01*
X14078054Y-15687332D01*
X14126197Y-15737968D01*
X14139900Y-15794630D01*
X14139900Y-16319077D01*
X14120215Y-16386116D01*
X14073349Y-16428966D01*
X13962222Y-16487062D01*
X13801729Y-16616102D01*
X13669356Y-16773858D01*
X13570146Y-16954320D01*
X13568314Y-16960095D01*
X13524739Y-17097462D01*
X13507877Y-17150616D01*
X13484922Y-17355267D01*
X13502154Y-17560480D01*
X13558918Y-17758438D01*
X13653050Y-17941600D01*
X13780966Y-18102990D01*
X13937794Y-18236461D01*
X14117559Y-18336929D01*
X14313415Y-18400566D01*
X14517902Y-18424950D01*
X14523945Y-18424485D01*
X14523947Y-18424485D01*
X14717192Y-18409615D01*
X14717196Y-18409614D01*
X14723230Y-18409150D01*
X14729062Y-18407522D01*
X14729066Y-18407521D01*
X14915738Y-18355401D01*
X14915740Y-18355400D01*
X14921579Y-18353770D01*
X15105394Y-18260919D01*
X15110173Y-18257185D01*
X15110178Y-18257182D01*
X15262892Y-18137867D01*
X15267673Y-18134132D01*
X15402236Y-17978240D01*
X15423051Y-17941600D01*
X15500959Y-17804456D01*
X15503956Y-17799181D01*
X15568959Y-17603774D01*
X15594770Y-17399462D01*
X15595181Y-17370000D01*
X15593736Y-17355267D01*
X16024922Y-17355267D01*
X16042154Y-17560480D01*
X16098918Y-17758438D01*
X16193050Y-17941600D01*
X16320966Y-18102990D01*
X16477794Y-18236461D01*
X16657559Y-18336929D01*
X16853415Y-18400566D01*
X17057902Y-18424950D01*
X17063945Y-18424485D01*
X17063947Y-18424485D01*
X17257192Y-18409615D01*
X17257196Y-18409614D01*
X17263230Y-18409150D01*
X17269062Y-18407522D01*
X17269066Y-18407521D01*
X17455738Y-18355401D01*
X17455740Y-18355400D01*
X17461579Y-18353770D01*
X17645394Y-18260919D01*
X17650173Y-18257185D01*
X17650178Y-18257182D01*
X17802892Y-18137867D01*
X17807673Y-18134132D01*
X17942236Y-17978240D01*
X17963051Y-17941600D01*
X18040959Y-17804456D01*
X18043956Y-17799181D01*
X18108959Y-17603774D01*
X18134770Y-17399462D01*
X18135181Y-17370000D01*
X18133736Y-17355267D01*
X18564922Y-17355267D01*
X18582154Y-17560480D01*
X18638918Y-17758438D01*
X18733050Y-17941600D01*
X18860966Y-18102990D01*
X19017794Y-18236461D01*
X19197559Y-18336929D01*
X19393415Y-18400566D01*
X19597902Y-18424950D01*
X19603945Y-18424485D01*
X19603947Y-18424485D01*
X19797192Y-18409615D01*
X19797196Y-18409614D01*
X19803230Y-18409150D01*
X19809062Y-18407522D01*
X19809066Y-18407521D01*
X19995738Y-18355401D01*
X19995740Y-18355400D01*
X20001579Y-18353770D01*
X20185394Y-18260919D01*
X20190173Y-18257185D01*
X20190178Y-18257182D01*
X20342892Y-18137867D01*
X20347673Y-18134132D01*
X20482236Y-17978240D01*
X20503051Y-17941600D01*
X20580959Y-17804456D01*
X20583956Y-17799181D01*
X20648959Y-17603774D01*
X20674770Y-17399462D01*
X20675181Y-17370000D01*
X20655085Y-17165048D01*
X20595563Y-16967902D01*
X20498883Y-16786072D01*
X20495039Y-16781358D01*
X20372563Y-16631188D01*
X20368726Y-16626483D01*
X20351586Y-16612303D01*
X20214717Y-16499076D01*
X20210050Y-16495215D01*
X20160549Y-16468450D01*
X45795172Y-16468450D01*
X45795544Y-16474126D01*
X45795544Y-16474129D01*
X45801374Y-16563077D01*
X45809598Y-16688541D01*
X45863890Y-16902318D01*
X45956231Y-17102620D01*
X46083528Y-17282741D01*
X46241517Y-17436648D01*
X46424909Y-17559186D01*
X46627560Y-17646252D01*
X46733014Y-17670114D01*
X46837137Y-17693675D01*
X46837139Y-17693675D01*
X46842684Y-17694930D01*
X46970022Y-17699933D01*
X47057396Y-17703366D01*
X47057398Y-17703366D01*
X47063077Y-17703589D01*
X47068697Y-17702774D01*
X47068700Y-17702774D01*
X47275738Y-17672755D01*
X47275740Y-17672755D01*
X47281358Y-17671940D01*
X47286735Y-17670115D01*
X47286738Y-17670114D01*
X47379490Y-17638628D01*
X47490216Y-17601042D01*
X47682656Y-17493271D01*
X47746935Y-17439811D01*
X47847867Y-17355866D01*
X47852234Y-17352234D01*
X47993271Y-17182656D01*
X48101042Y-16990216D01*
X48171940Y-16781358D01*
X48172755Y-16775738D01*
X48203065Y-16566693D01*
X48203065Y-16566688D01*
X48203589Y-16563077D01*
X48205241Y-16500000D01*
X48185059Y-16280362D01*
X48125189Y-16068080D01*
X48122677Y-16062986D01*
X48122675Y-16062981D01*
X48075195Y-15966703D01*
X48027637Y-15870263D01*
X47895669Y-15693536D01*
X47891499Y-15689681D01*
X47891496Y-15689678D01*
X47737880Y-15547678D01*
X47737879Y-15547677D01*
X47733704Y-15543818D01*
X47709729Y-15528691D01*
X47551977Y-15429156D01*
X47551975Y-15429155D01*
X47547168Y-15426122D01*
X47342307Y-15344391D01*
X47336726Y-15343281D01*
X47336723Y-15343280D01*
X47256129Y-15327249D01*
X47125982Y-15301361D01*
X47120295Y-15301287D01*
X47120290Y-15301286D01*
X46911126Y-15298548D01*
X46911121Y-15298548D01*
X46905438Y-15298474D01*
X46688061Y-15335827D01*
X46682728Y-15337795D01*
X46682726Y-15337795D01*
X46486461Y-15410200D01*
X46486458Y-15410201D01*
X46481130Y-15412167D01*
X46291577Y-15524940D01*
X46125749Y-15670367D01*
X46057475Y-15756973D01*
X45992717Y-15839117D01*
X45992714Y-15839121D01*
X45989200Y-15843579D01*
X45886503Y-16038774D01*
X45821096Y-16249416D01*
X45820428Y-16255061D01*
X45820427Y-16255065D01*
X45799845Y-16428966D01*
X45795172Y-16468450D01*
X20160549Y-16468450D01*
X20028899Y-16397268D01*
X20023103Y-16395474D01*
X20023101Y-16395473D01*
X19837974Y-16338166D01*
X19837970Y-16338165D01*
X19832174Y-16336371D01*
X19627366Y-16314845D01*
X19621333Y-16315394D01*
X19621329Y-16315394D01*
X19496295Y-16326773D01*
X19422279Y-16333509D01*
X19416466Y-16335220D01*
X19416465Y-16335220D01*
X19269524Y-16378467D01*
X19224722Y-16391653D01*
X19042222Y-16487062D01*
X18881729Y-16616102D01*
X18749356Y-16773858D01*
X18650146Y-16954320D01*
X18648314Y-16960095D01*
X18604739Y-17097462D01*
X18587877Y-17150616D01*
X18564922Y-17355267D01*
X18133736Y-17355267D01*
X18115085Y-17165048D01*
X18055563Y-16967902D01*
X17958883Y-16786072D01*
X17955039Y-16781358D01*
X17832563Y-16631188D01*
X17828726Y-16626483D01*
X17811586Y-16612303D01*
X17674717Y-16499076D01*
X17670050Y-16495215D01*
X17664726Y-16492336D01*
X17664721Y-16492333D01*
X17545123Y-16427668D01*
X17495514Y-16378467D01*
X17480100Y-16318591D01*
X17480100Y-14970427D01*
X17499785Y-14903388D01*
X17523569Y-14876136D01*
X17556368Y-14848124D01*
X17556370Y-14848122D01*
X17562052Y-14843269D01*
X17607962Y-14779378D01*
X17649510Y-14721558D01*
X17649512Y-14721554D01*
X17653871Y-14715488D01*
X17712561Y-14569494D01*
X17716458Y-14542111D01*
X17734159Y-14417738D01*
X17734160Y-14417730D01*
X17734731Y-14413715D01*
X17734875Y-14400000D01*
X17734045Y-14393142D01*
X34345161Y-14393142D01*
X34345981Y-14400570D01*
X34345981Y-14400572D01*
X34347432Y-14413715D01*
X34362428Y-14549541D01*
X34416502Y-14697307D01*
X34504263Y-14827909D01*
X34509795Y-14832942D01*
X34509796Y-14832944D01*
X34559354Y-14878038D01*
X34620643Y-14933807D01*
X34758924Y-15008887D01*
X34846525Y-15031869D01*
X34903895Y-15046920D01*
X34903897Y-15046920D01*
X34911123Y-15048816D01*
X34989788Y-15050052D01*
X35060983Y-15051171D01*
X35060986Y-15051171D01*
X35068453Y-15051288D01*
X35075735Y-15049620D01*
X35075737Y-15049620D01*
X35190438Y-15023349D01*
X35221831Y-15016159D01*
X35362402Y-14945459D01*
X35482052Y-14843269D01*
X35527961Y-14779379D01*
X35569510Y-14721558D01*
X35569512Y-14721554D01*
X35573871Y-14715488D01*
X35632561Y-14569494D01*
X35636458Y-14542111D01*
X35654159Y-14417738D01*
X35654160Y-14417730D01*
X35654731Y-14413715D01*
X35654875Y-14400000D01*
X35653148Y-14385731D01*
X35636871Y-14251215D01*
X35636870Y-14251211D01*
X35635972Y-14243790D01*
X35580353Y-14096599D01*
X35547037Y-14048124D01*
X35495462Y-13973081D01*
X35495459Y-13973077D01*
X35491229Y-13966923D01*
X35441611Y-13922715D01*
X35404652Y-13863421D01*
X35400100Y-13830132D01*
X35400100Y-10955427D01*
X35419785Y-10888388D01*
X35443569Y-10861136D01*
X35476368Y-10833124D01*
X35476370Y-10833122D01*
X35482052Y-10828269D01*
X35527961Y-10764379D01*
X35569510Y-10706558D01*
X35569512Y-10706554D01*
X35573871Y-10700488D01*
X35632561Y-10554494D01*
X35636458Y-10527111D01*
X35654159Y-10402738D01*
X35654160Y-10402730D01*
X35654731Y-10398715D01*
X35654875Y-10385000D01*
X35635972Y-10228790D01*
X35580353Y-10081599D01*
X35491229Y-9951923D01*
X35373746Y-9847250D01*
X35234686Y-9773622D01*
X35082078Y-9735289D01*
X35003405Y-9734877D01*
X34932205Y-9734504D01*
X34932204Y-9734504D01*
X34924731Y-9734465D01*
X34917468Y-9736209D01*
X34917465Y-9736209D01*
X34817108Y-9760303D01*
X34771729Y-9771197D01*
X34765090Y-9774623D01*
X34765089Y-9774624D01*
X34760252Y-9777121D01*
X34631906Y-9843366D01*
X34626276Y-9848277D01*
X34626272Y-9848280D01*
X34518971Y-9941884D01*
X34518968Y-9941887D01*
X34513333Y-9946803D01*
X34422856Y-10075538D01*
X34365699Y-10222139D01*
X34345161Y-10378142D01*
X34345981Y-10385570D01*
X34345981Y-10385572D01*
X34347432Y-10398715D01*
X34362428Y-10534541D01*
X34416502Y-10682307D01*
X34504263Y-10812909D01*
X34509795Y-10817942D01*
X34509796Y-10817944D01*
X34559354Y-10863038D01*
X34595690Y-10922716D01*
X34599900Y-10954752D01*
X34599900Y-13829907D01*
X34580215Y-13896946D01*
X34557414Y-13923349D01*
X34518971Y-13956884D01*
X34518968Y-13956887D01*
X34513333Y-13961803D01*
X34422856Y-14090538D01*
X34365699Y-14237139D01*
X34345161Y-14393142D01*
X17734045Y-14393142D01*
X17733148Y-14385731D01*
X17716871Y-14251215D01*
X17716870Y-14251211D01*
X17715972Y-14243790D01*
X17660353Y-14096599D01*
X17571229Y-13966923D01*
X17453746Y-13862250D01*
X17314686Y-13788622D01*
X17162078Y-13750289D01*
X17083404Y-13749877D01*
X17012205Y-13749504D01*
X17012204Y-13749504D01*
X17004731Y-13749465D01*
X16997468Y-13751209D01*
X16997465Y-13751209D01*
X16921303Y-13769494D01*
X16851729Y-13786197D01*
X16845090Y-13789623D01*
X16845089Y-13789624D01*
X16766608Y-13830132D01*
X16711906Y-13858366D01*
X16706276Y-13863277D01*
X16706272Y-13863280D01*
X16598971Y-13956884D01*
X16598968Y-13956887D01*
X16593333Y-13961803D01*
X16502856Y-14090538D01*
X16445699Y-14237139D01*
X16425161Y-14393142D01*
X16425981Y-14400570D01*
X16425981Y-14400572D01*
X16427432Y-14413715D01*
X16442428Y-14549541D01*
X16496502Y-14697307D01*
X16584263Y-14827909D01*
X16589795Y-14832942D01*
X16589796Y-14832944D01*
X16639354Y-14878038D01*
X16675690Y-14937716D01*
X16679900Y-14969752D01*
X16679900Y-16319077D01*
X16660215Y-16386116D01*
X16613349Y-16428966D01*
X16502222Y-16487062D01*
X16341729Y-16616102D01*
X16209356Y-16773858D01*
X16110146Y-16954320D01*
X16108314Y-16960095D01*
X16064739Y-17097462D01*
X16047877Y-17150616D01*
X16024922Y-17355267D01*
X15593736Y-17355267D01*
X15575085Y-17165048D01*
X15515563Y-16967902D01*
X15418883Y-16786072D01*
X15415039Y-16781358D01*
X15292563Y-16631188D01*
X15288726Y-16626483D01*
X15271586Y-16612303D01*
X15134717Y-16499076D01*
X15130050Y-16495215D01*
X15124726Y-16492336D01*
X15124721Y-16492333D01*
X15005123Y-16427668D01*
X14955514Y-16378467D01*
X14940100Y-16318591D01*
X14940100Y-13593142D01*
X32845161Y-13593142D01*
X32845981Y-13600570D01*
X32845981Y-13600572D01*
X32847432Y-13613715D01*
X32862428Y-13749541D01*
X32916502Y-13897307D01*
X33004263Y-14027909D01*
X33009795Y-14032942D01*
X33009796Y-14032944D01*
X33059354Y-14078038D01*
X33120643Y-14133807D01*
X33258924Y-14208887D01*
X33340061Y-14230173D01*
X33403895Y-14246920D01*
X33403897Y-14246920D01*
X33411123Y-14248816D01*
X33489788Y-14250052D01*
X33560983Y-14251171D01*
X33560986Y-14251171D01*
X33568453Y-14251288D01*
X33575735Y-14249620D01*
X33575737Y-14249620D01*
X33660644Y-14230173D01*
X33721831Y-14216159D01*
X33862402Y-14145459D01*
X33982052Y-14043269D01*
X34040483Y-13961953D01*
X34069510Y-13921558D01*
X34069512Y-13921554D01*
X34073871Y-13915488D01*
X34124469Y-13789624D01*
X34129773Y-13776430D01*
X34129774Y-13776428D01*
X34132561Y-13769494D01*
X34135406Y-13749504D01*
X34154159Y-13617738D01*
X34154160Y-13617730D01*
X34154731Y-13613715D01*
X34154875Y-13600000D01*
X34135972Y-13443790D01*
X34080353Y-13296599D01*
X34071982Y-13284419D01*
X33995462Y-13173081D01*
X33995459Y-13173077D01*
X33991229Y-13166923D01*
X33941611Y-13122715D01*
X33904652Y-13063421D01*
X33900100Y-13030132D01*
X33900100Y-12225427D01*
X33919785Y-12158388D01*
X33943569Y-12131136D01*
X33976368Y-12103124D01*
X33976370Y-12103122D01*
X33982052Y-12098269D01*
X34027962Y-12034378D01*
X34069510Y-11976558D01*
X34069512Y-11976554D01*
X34073871Y-11970488D01*
X34132561Y-11824494D01*
X34136458Y-11797111D01*
X34154159Y-11672738D01*
X34154160Y-11672730D01*
X34154731Y-11668715D01*
X34154875Y-11655000D01*
X34135972Y-11498790D01*
X34080353Y-11351599D01*
X33991229Y-11221923D01*
X33873746Y-11117250D01*
X33734686Y-11043622D01*
X33582078Y-11005289D01*
X33503404Y-11004877D01*
X33432205Y-11004504D01*
X33432204Y-11004504D01*
X33424731Y-11004465D01*
X33417468Y-11006209D01*
X33417465Y-11006209D01*
X33317108Y-11030303D01*
X33271729Y-11041197D01*
X33265090Y-11044623D01*
X33265089Y-11044624D01*
X33260252Y-11047121D01*
X33131906Y-11113366D01*
X33126276Y-11118277D01*
X33126272Y-11118280D01*
X33018971Y-11211884D01*
X33018968Y-11211887D01*
X33013333Y-11216803D01*
X32922856Y-11345538D01*
X32865699Y-11492139D01*
X32845161Y-11648142D01*
X32845981Y-11655570D01*
X32845981Y-11655572D01*
X32847432Y-11668715D01*
X32862428Y-11804541D01*
X32916502Y-11952307D01*
X33004263Y-12082909D01*
X33009795Y-12087942D01*
X33009796Y-12087944D01*
X33059354Y-12133038D01*
X33095690Y-12192716D01*
X33099900Y-12224752D01*
X33099900Y-13029907D01*
X33080215Y-13096946D01*
X33057414Y-13123349D01*
X33018971Y-13156884D01*
X33018968Y-13156887D01*
X33013333Y-13161803D01*
X32922856Y-13290538D01*
X32865699Y-13437139D01*
X32845161Y-13593142D01*
X14940100Y-13593142D01*
X14940100Y-9685427D01*
X14959785Y-9618388D01*
X14983569Y-9591136D01*
X15016368Y-9563124D01*
X15016370Y-9563122D01*
X15022052Y-9558269D01*
X15067961Y-9494379D01*
X15109510Y-9436558D01*
X15109512Y-9436554D01*
X15113871Y-9430488D01*
X15172561Y-9284494D01*
X15175401Y-9264541D01*
X15194159Y-9132738D01*
X15194160Y-9132730D01*
X15194731Y-9128715D01*
X15194875Y-9115000D01*
X15175972Y-8958790D01*
X15120353Y-8811599D01*
X15031229Y-8681923D01*
X14913746Y-8577250D01*
X14774686Y-8503622D01*
X14622078Y-8465289D01*
X14543404Y-8464877D01*
X14472205Y-8464504D01*
X14472204Y-8464504D01*
X14464731Y-8464465D01*
X14457468Y-8466209D01*
X14457465Y-8466209D01*
X14357108Y-8490303D01*
X14311729Y-8501197D01*
X14305090Y-8504623D01*
X14305089Y-8504624D01*
X14300252Y-8507121D01*
X14171906Y-8573366D01*
X14166276Y-8578277D01*
X14166272Y-8578280D01*
X14058971Y-8671884D01*
X14058968Y-8671887D01*
X14053333Y-8676803D01*
X13962856Y-8805538D01*
X13960140Y-8812503D01*
X13960140Y-8812504D01*
X13939630Y-8865110D01*
X13896938Y-8920420D01*
X13831120Y-8943868D01*
X13763074Y-8928011D01*
X13714403Y-8877882D01*
X13700100Y-8820067D01*
X13700100Y-3062529D01*
X13719785Y-2995490D01*
X13772589Y-2949735D01*
X13841747Y-2939791D01*
X13904466Y-2968098D01*
X13933175Y-2992531D01*
X13933181Y-2992535D01*
X13937794Y-2996461D01*
X14117559Y-3096929D01*
X14313415Y-3160566D01*
X14517902Y-3184950D01*
X14523945Y-3184485D01*
X14523947Y-3184485D01*
X14717192Y-3169615D01*
X14717196Y-3169614D01*
X14723230Y-3169150D01*
X14729062Y-3167522D01*
X14729066Y-3167521D01*
X14915738Y-3115401D01*
X14915740Y-3115400D01*
X14921579Y-3113770D01*
X15105394Y-3020919D01*
X15110173Y-3017185D01*
X15110178Y-3017182D01*
X15262892Y-2897867D01*
X15267673Y-2894132D01*
X15343259Y-2806565D01*
X15398271Y-2742834D01*
X15398273Y-2742831D01*
X15402236Y-2738240D01*
X15423051Y-2701600D01*
X15495792Y-2573552D01*
X15503956Y-2559181D01*
X15568959Y-2363774D01*
X15594770Y-2159462D01*
X15595181Y-2130000D01*
X15593736Y-2115267D01*
X16024922Y-2115267D01*
X16042154Y-2320480D01*
X16098918Y-2518438D01*
X16193050Y-2701600D01*
X16320966Y-2862990D01*
X16477794Y-2996461D01*
X16657559Y-3096929D01*
X16853415Y-3160566D01*
X17057902Y-3184950D01*
X17063945Y-3184485D01*
X17063947Y-3184485D01*
X17257192Y-3169615D01*
X17257196Y-3169614D01*
X17263230Y-3169150D01*
X17269062Y-3167522D01*
X17269066Y-3167521D01*
X17455738Y-3115401D01*
X17455740Y-3115400D01*
X17461579Y-3113770D01*
X17645394Y-3020919D01*
X17650173Y-3017185D01*
X17650178Y-3017182D01*
X17802892Y-2897867D01*
X17807673Y-2894132D01*
X17883259Y-2806565D01*
X17938271Y-2742834D01*
X17938273Y-2742831D01*
X17942236Y-2738240D01*
X17963051Y-2701600D01*
X18035792Y-2573552D01*
X18043956Y-2559181D01*
X18108959Y-2363774D01*
X18134770Y-2159462D01*
X18135181Y-2130000D01*
X18133736Y-2115267D01*
X18564922Y-2115267D01*
X18582154Y-2320480D01*
X18638918Y-2518438D01*
X18733050Y-2701600D01*
X18860966Y-2862990D01*
X19017794Y-2996461D01*
X19197559Y-3096929D01*
X19393415Y-3160566D01*
X19597902Y-3184950D01*
X19603945Y-3184485D01*
X19603947Y-3184485D01*
X19797192Y-3169615D01*
X19797196Y-3169614D01*
X19803230Y-3169150D01*
X19809062Y-3167522D01*
X19809066Y-3167521D01*
X19995738Y-3115401D01*
X19995740Y-3115400D01*
X20001579Y-3113770D01*
X20185394Y-3020919D01*
X20190173Y-3017185D01*
X20190178Y-3017182D01*
X20252551Y-2968450D01*
X42795172Y-2968450D01*
X42795544Y-2974126D01*
X42795544Y-2974129D01*
X42807764Y-3160566D01*
X42809598Y-3188541D01*
X42863890Y-3402318D01*
X42956231Y-3602620D01*
X43083528Y-3782741D01*
X43241517Y-3936648D01*
X43424909Y-4059186D01*
X43515864Y-4098263D01*
X43524848Y-4102123D01*
X43578673Y-4146672D01*
X43599900Y-4216053D01*
X43599900Y-5029907D01*
X43580215Y-5096946D01*
X43557414Y-5123349D01*
X43518971Y-5156884D01*
X43518968Y-5156887D01*
X43513333Y-5161803D01*
X43422856Y-5290538D01*
X43365699Y-5437139D01*
X43345161Y-5593142D01*
X43345981Y-5600570D01*
X43345981Y-5600572D01*
X43347432Y-5613715D01*
X43362428Y-5749541D01*
X43416502Y-5897307D01*
X43504263Y-6027909D01*
X43509795Y-6032942D01*
X43509796Y-6032944D01*
X43521143Y-6043269D01*
X43620643Y-6133807D01*
X43758924Y-6208887D01*
X43846525Y-6231869D01*
X43903895Y-6246920D01*
X43903897Y-6246920D01*
X43911123Y-6248816D01*
X43989788Y-6250052D01*
X44060983Y-6251171D01*
X44060986Y-6251171D01*
X44068453Y-6251288D01*
X44075735Y-6249620D01*
X44075737Y-6249620D01*
X44145142Y-6233724D01*
X44221831Y-6216159D01*
X44362402Y-6145459D01*
X44482052Y-6043269D01*
X44527962Y-5979378D01*
X44569510Y-5921558D01*
X44569512Y-5921554D01*
X44573871Y-5915488D01*
X44632561Y-5769494D01*
X44636458Y-5742111D01*
X44654159Y-5617738D01*
X44654160Y-5617730D01*
X44654731Y-5613715D01*
X44654875Y-5600000D01*
X44635972Y-5443790D01*
X44580353Y-5296599D01*
X44571982Y-5284419D01*
X44495462Y-5173081D01*
X44495459Y-5173077D01*
X44491229Y-5166923D01*
X44441611Y-5122715D01*
X44404652Y-5063421D01*
X44400100Y-5030132D01*
X44400100Y-4220489D01*
X44419785Y-4153450D01*
X44472589Y-4107695D01*
X44484230Y-4103074D01*
X44490216Y-4101042D01*
X44682656Y-3993271D01*
X44746935Y-3939811D01*
X44847867Y-3855866D01*
X44852234Y-3852234D01*
X44993271Y-3682656D01*
X45101042Y-3490216D01*
X45171940Y-3281358D01*
X45185398Y-3188541D01*
X45203065Y-3066693D01*
X45203065Y-3066688D01*
X45203589Y-3063077D01*
X45205241Y-3000000D01*
X45202342Y-2968450D01*
X45795172Y-2968450D01*
X45795544Y-2974126D01*
X45795544Y-2974129D01*
X45807764Y-3160566D01*
X45809598Y-3188541D01*
X45863890Y-3402318D01*
X45956231Y-3602620D01*
X46083528Y-3782741D01*
X46241517Y-3936648D01*
X46424909Y-4059186D01*
X46627560Y-4146252D01*
X46733014Y-4170114D01*
X46837137Y-4193675D01*
X46837139Y-4193675D01*
X46842684Y-4194930D01*
X46970022Y-4199933D01*
X47057396Y-4203366D01*
X47057398Y-4203366D01*
X47063077Y-4203589D01*
X47068697Y-4202774D01*
X47068700Y-4202774D01*
X47275738Y-4172755D01*
X47275740Y-4172755D01*
X47281358Y-4171940D01*
X47286735Y-4170115D01*
X47286738Y-4170114D01*
X47400101Y-4131632D01*
X47490216Y-4101042D01*
X47682656Y-3993271D01*
X47746935Y-3939811D01*
X47847867Y-3855866D01*
X47852234Y-3852234D01*
X47993271Y-3682656D01*
X48101042Y-3490216D01*
X48171940Y-3281358D01*
X48185398Y-3188541D01*
X48203065Y-3066693D01*
X48203065Y-3066688D01*
X48203589Y-3063077D01*
X48205241Y-3000000D01*
X48185059Y-2780362D01*
X48125189Y-2568080D01*
X48122677Y-2562986D01*
X48122675Y-2562981D01*
X48075195Y-2466703D01*
X48027637Y-2370263D01*
X47895669Y-2193536D01*
X47891499Y-2189681D01*
X47891496Y-2189678D01*
X47737880Y-2047678D01*
X47737879Y-2047677D01*
X47733704Y-2043818D01*
X47709729Y-2028691D01*
X47551977Y-1929156D01*
X47551975Y-1929155D01*
X47547168Y-1926122D01*
X47342307Y-1844391D01*
X47336726Y-1843281D01*
X47336723Y-1843280D01*
X47262056Y-1828428D01*
X47125982Y-1801361D01*
X47120295Y-1801287D01*
X47120290Y-1801286D01*
X46911126Y-1798548D01*
X46911121Y-1798548D01*
X46905438Y-1798474D01*
X46688061Y-1835827D01*
X46682728Y-1837795D01*
X46682726Y-1837795D01*
X46486461Y-1910200D01*
X46486458Y-1910201D01*
X46481130Y-1912167D01*
X46291577Y-2024940D01*
X46125749Y-2170367D01*
X46103896Y-2198088D01*
X45992717Y-2339117D01*
X45992714Y-2339121D01*
X45989200Y-2343579D01*
X45886503Y-2538774D01*
X45821096Y-2749416D01*
X45820428Y-2755061D01*
X45820427Y-2755065D01*
X45801368Y-2916098D01*
X45795172Y-2968450D01*
X45202342Y-2968450D01*
X45185059Y-2780362D01*
X45125189Y-2568080D01*
X45122677Y-2562986D01*
X45122675Y-2562981D01*
X45075195Y-2466703D01*
X45027637Y-2370263D01*
X44895669Y-2193536D01*
X44891499Y-2189681D01*
X44891496Y-2189678D01*
X44737880Y-2047678D01*
X44737879Y-2047677D01*
X44733704Y-2043818D01*
X44709729Y-2028691D01*
X44551977Y-1929156D01*
X44551975Y-1929155D01*
X44547168Y-1926122D01*
X44342307Y-1844391D01*
X44336726Y-1843281D01*
X44336723Y-1843280D01*
X44262056Y-1828428D01*
X44125982Y-1801361D01*
X44120295Y-1801287D01*
X44120290Y-1801286D01*
X43911126Y-1798548D01*
X43911121Y-1798548D01*
X43905438Y-1798474D01*
X43688061Y-1835827D01*
X43682728Y-1837795D01*
X43682726Y-1837795D01*
X43486461Y-1910200D01*
X43486458Y-1910201D01*
X43481130Y-1912167D01*
X43291577Y-2024940D01*
X43125749Y-2170367D01*
X43103896Y-2198088D01*
X42992717Y-2339117D01*
X42992714Y-2339121D01*
X42989200Y-2343579D01*
X42886503Y-2538774D01*
X42821096Y-2749416D01*
X42820428Y-2755061D01*
X42820427Y-2755065D01*
X42801368Y-2916098D01*
X42795172Y-2968450D01*
X20252551Y-2968450D01*
X20342892Y-2897867D01*
X20347673Y-2894132D01*
X20423259Y-2806565D01*
X20478271Y-2742834D01*
X20478273Y-2742831D01*
X20482236Y-2738240D01*
X20503051Y-2701600D01*
X20575792Y-2573552D01*
X20583956Y-2559181D01*
X20648959Y-2363774D01*
X20674770Y-2159462D01*
X20675181Y-2130000D01*
X20666433Y-2040783D01*
X20655677Y-1931084D01*
X20655677Y-1931082D01*
X20655085Y-1925048D01*
X20618077Y-1802472D01*
X20597316Y-1733708D01*
X20597316Y-1733707D01*
X20595563Y-1727902D01*
X20498883Y-1546072D01*
X20368726Y-1386483D01*
X20351586Y-1372303D01*
X20214717Y-1259076D01*
X20210050Y-1255215D01*
X20028899Y-1157268D01*
X20023103Y-1155474D01*
X20023101Y-1155473D01*
X19837974Y-1098166D01*
X19837970Y-1098165D01*
X19832174Y-1096371D01*
X19627366Y-1074845D01*
X19621333Y-1075394D01*
X19621329Y-1075394D01*
X19496295Y-1086773D01*
X19422279Y-1093509D01*
X19416466Y-1095220D01*
X19416465Y-1095220D01*
X19230542Y-1149940D01*
X19224722Y-1151653D01*
X19042222Y-1247062D01*
X18881729Y-1376102D01*
X18749356Y-1533858D01*
X18650146Y-1714320D01*
X18648314Y-1720095D01*
X18608216Y-1846501D01*
X18587877Y-1910616D01*
X18585581Y-1931084D01*
X18573277Y-2040783D01*
X18564922Y-2115267D01*
X18133736Y-2115267D01*
X18126433Y-2040783D01*
X18115677Y-1931084D01*
X18115677Y-1931082D01*
X18115085Y-1925048D01*
X18078077Y-1802472D01*
X18057316Y-1733708D01*
X18057316Y-1733707D01*
X18055563Y-1727902D01*
X17958883Y-1546072D01*
X17828726Y-1386483D01*
X17811586Y-1372303D01*
X17674717Y-1259076D01*
X17670050Y-1255215D01*
X17488899Y-1157268D01*
X17483103Y-1155474D01*
X17483101Y-1155473D01*
X17297974Y-1098166D01*
X17297970Y-1098165D01*
X17292174Y-1096371D01*
X17087366Y-1074845D01*
X17081333Y-1075394D01*
X17081329Y-1075394D01*
X16956295Y-1086773D01*
X16882279Y-1093509D01*
X16876466Y-1095220D01*
X16876465Y-1095220D01*
X16690542Y-1149940D01*
X16684722Y-1151653D01*
X16502222Y-1247062D01*
X16341729Y-1376102D01*
X16209356Y-1533858D01*
X16110146Y-1714320D01*
X16108314Y-1720095D01*
X16068216Y-1846501D01*
X16047877Y-1910616D01*
X16045581Y-1931084D01*
X16033277Y-2040783D01*
X16024922Y-2115267D01*
X15593736Y-2115267D01*
X15586433Y-2040783D01*
X15575677Y-1931084D01*
X15575677Y-1931082D01*
X15575085Y-1925048D01*
X15538077Y-1802472D01*
X15517316Y-1733708D01*
X15517316Y-1733707D01*
X15515563Y-1727902D01*
X15418883Y-1546072D01*
X15288726Y-1386483D01*
X15271586Y-1372303D01*
X15134717Y-1259076D01*
X15130050Y-1255215D01*
X14948899Y-1157268D01*
X14943103Y-1155474D01*
X14943101Y-1155473D01*
X14757974Y-1098166D01*
X14757970Y-1098165D01*
X14752174Y-1096371D01*
X14547366Y-1074845D01*
X14541333Y-1075394D01*
X14541329Y-1075394D01*
X14416295Y-1086773D01*
X14342279Y-1093509D01*
X14336466Y-1095220D01*
X14336465Y-1095220D01*
X14150542Y-1149940D01*
X14144722Y-1151653D01*
X13962222Y-1247062D01*
X13801729Y-1376102D01*
X13669356Y-1533858D01*
X13666435Y-1539172D01*
X13666432Y-1539176D01*
X13582657Y-1691562D01*
X13533111Y-1740826D01*
X13464796Y-1755483D01*
X13435676Y-1749756D01*
X13433880Y-1749172D01*
X13425179Y-1744739D01*
X13415537Y-1743212D01*
X13415534Y-1743211D01*
X13331487Y-1729900D01*
X13309641Y-1726440D01*
X13300000Y-1724913D01*
X13290359Y-1726440D01*
X13278154Y-1728373D01*
X13258756Y-1729900D01*
X13051133Y-1729900D01*
X12984094Y-1710215D01*
X12941647Y-1664114D01*
X12881732Y-1551430D01*
X12881731Y-1551429D01*
X12878883Y-1546072D01*
X12748726Y-1386483D01*
X12731586Y-1372303D01*
X12594717Y-1259076D01*
X12590050Y-1255215D01*
X12408899Y-1157268D01*
X12403103Y-1155474D01*
X12403101Y-1155473D01*
X12217974Y-1098166D01*
X12217970Y-1098165D01*
X12212174Y-1096371D01*
X12007366Y-1074845D01*
X12001333Y-1075394D01*
X12001329Y-1075394D01*
X11876295Y-1086773D01*
X11802279Y-1093509D01*
X11796466Y-1095220D01*
X11796465Y-1095220D01*
X11610542Y-1149940D01*
X11604722Y-1151653D01*
X11422222Y-1247062D01*
X11261729Y-1376102D01*
X11129356Y-1533858D01*
X11030146Y-1714320D01*
X11028314Y-1720095D01*
X10988216Y-1846501D01*
X10967877Y-1910616D01*
X10965581Y-1931084D01*
X10953277Y-2040783D01*
X10944922Y-2115267D01*
X10513736Y-2115267D01*
X10506433Y-2040783D01*
X10495677Y-1931084D01*
X10495677Y-1931082D01*
X10495085Y-1925048D01*
X10458077Y-1802472D01*
X10437316Y-1733708D01*
X10437316Y-1733707D01*
X10435563Y-1727902D01*
X10338883Y-1546072D01*
X10208726Y-1386483D01*
X10191586Y-1372303D01*
X10054717Y-1259076D01*
X10050050Y-1255215D01*
X9868899Y-1157268D01*
X9863103Y-1155474D01*
X9863101Y-1155473D01*
X9677974Y-1098166D01*
X9677970Y-1098165D01*
X9672174Y-1096371D01*
X9467366Y-1074845D01*
X9461333Y-1075394D01*
X9461329Y-1075394D01*
X9336295Y-1086773D01*
X9262279Y-1093509D01*
X9256466Y-1095220D01*
X9256465Y-1095220D01*
X9070542Y-1149940D01*
X9064722Y-1151653D01*
X8882222Y-1247062D01*
X8721729Y-1376102D01*
X8589356Y-1533858D01*
X8490146Y-1714320D01*
X8488314Y-1720095D01*
X8448216Y-1846501D01*
X8427877Y-1910616D01*
X8425581Y-1931084D01*
X8413277Y-2040783D01*
X8404922Y-2115267D01*
X7973736Y-2115267D01*
X7966433Y-2040783D01*
X7955677Y-1931084D01*
X7955677Y-1931082D01*
X7955085Y-1925048D01*
X7918077Y-1802472D01*
X7897316Y-1733708D01*
X7897316Y-1733707D01*
X7895563Y-1727902D01*
X7798883Y-1546072D01*
X7668726Y-1386483D01*
X7651586Y-1372303D01*
X7514717Y-1259076D01*
X7510050Y-1255215D01*
X7328899Y-1157268D01*
X7323103Y-1155474D01*
X7323101Y-1155473D01*
X7137974Y-1098166D01*
X7137970Y-1098165D01*
X7132174Y-1096371D01*
X6927366Y-1074845D01*
X6921333Y-1075394D01*
X6921329Y-1075394D01*
X6796295Y-1086773D01*
X6722279Y-1093509D01*
X6716466Y-1095220D01*
X6716465Y-1095220D01*
X6530542Y-1149940D01*
X6524722Y-1151653D01*
X6342222Y-1247062D01*
X6181729Y-1376102D01*
X6049356Y-1533858D01*
X5950146Y-1714320D01*
X5948314Y-1720095D01*
X5908216Y-1846501D01*
X5887877Y-1910616D01*
X5885581Y-1931084D01*
X5873277Y-2040783D01*
X5864922Y-2115267D01*
X5433736Y-2115267D01*
X5426433Y-2040783D01*
X5415677Y-1931084D01*
X5415677Y-1931082D01*
X5415085Y-1925048D01*
X5378077Y-1802472D01*
X5357316Y-1733708D01*
X5357316Y-1733707D01*
X5355563Y-1727902D01*
X5258883Y-1546072D01*
X5128726Y-1386483D01*
X5111586Y-1372303D01*
X4974717Y-1259076D01*
X4970050Y-1255215D01*
X4788899Y-1157268D01*
X4783103Y-1155474D01*
X4783101Y-1155473D01*
X4597974Y-1098166D01*
X4597970Y-1098165D01*
X4592174Y-1096371D01*
X4387366Y-1074845D01*
X4381333Y-1075394D01*
X4381329Y-1075394D01*
X4256295Y-1086773D01*
X4182279Y-1093509D01*
X4176466Y-1095220D01*
X4176465Y-1095220D01*
X3990542Y-1149940D01*
X3984722Y-1151653D01*
X3802222Y-1247062D01*
X3641729Y-1376102D01*
X3509356Y-1533858D01*
X3410146Y-1714320D01*
X3408314Y-1720095D01*
X3368216Y-1846501D01*
X3347877Y-1910616D01*
X3345581Y-1931084D01*
X3333277Y-2040783D01*
X3324922Y-2115267D01*
X300000Y-2115267D01*
X300000Y-424000D01*
X319685Y-356961D01*
X372489Y-311206D01*
X424000Y-300000D01*
X52576000Y-300000D01*
X52643039Y-319685D01*
G37*
%TD.AperFunction*%
%TD*%
D14*
X32275000Y-7845000D03*
X23050000Y-1400000D03*
X23724999Y-10385000D03*
X32250000Y-17000000D03*
X32275000Y-9115000D03*
X6920000Y-5600000D03*
X44000000Y-5600000D03*
X13300000Y-15500000D03*
X9460000Y-7845000D03*
X35000000Y-14400000D03*
X17080000Y-14400000D03*
X35000000Y-10385000D03*
X14540000Y-9115000D03*
X33500000Y-13600000D03*
X12000000Y-13600000D03*
X33500000Y-11655000D03*
X44000000Y-3000000D03*
X47000000Y-3000000D03*
X44000000Y-16500000D03*
X47000000Y-16500000D03*
X9460000Y-17370000D03*
X4380000Y-17370000D03*
X4380000Y-2130000D03*
X6920000Y-2130000D03*
X9460000Y-2130000D03*
X12000000Y-2130000D03*
X14540000Y-2130000D03*
X17080000Y-2130000D03*
X19620000Y-2130000D03*
X19620000Y-17370000D03*
X17080000Y-17370000D03*
X14540000Y-17370000D03*
X12000000Y-17370000D03*
X6920000Y-17370000D03*
M02*
